M48
;GenerationSoftware,Autodesk,EAGLE,9.6.2*%
;CreationDate,2021-08-09T23:00:42Z*%
FMAT,2
ICI,OFF
METRIC,TZ,000.000
T7C0.350
T6C0.813
T5C0.914
T4C1.016
T3C1.100
T2C1.118
T1C3.048
%
G90
M71
T1
X60960Y2540
X86360Y2540
X60960Y40640
X86360Y40640
T2
X61468Y36830
X73660Y3810
X61468Y26670
X73660Y13970
T3
X69850Y6350
X77470Y13970
X69850Y13970
X77470Y6350
T4
X61468Y11430
X61468Y8890
X61468Y21590
X61468Y19050
X61468Y16510
T5
X66040Y34290
X66040Y31750
X66040Y26670
X66040Y24130
X66040Y21590
X66040Y19050
X66040Y16510
X66040Y13970
X66040Y11430
X66040Y8890
X66040Y6350
X66040Y3810
X81280Y39370
X81280Y36830
X81280Y34290
X81280Y31750
X81280Y29210
X81280Y26670
X81280Y24130
X66040Y29210
X81280Y19050
X81280Y16510
X81280Y13970
X81280Y11430
X81280Y8890
X81280Y6350
X81280Y3810
X81280Y21590
X66040Y39370
X66040Y36830
T6
X77470Y39370
X85852Y15240
X85852Y17780
X73660Y29210
X73660Y39370
X69850Y26670
X73660Y16510
X73660Y26670
X77470Y16510
X77470Y26670
X85852Y11430
X85852Y6350
X85852Y25400
X87122Y33020
X87122Y35560
X84582Y35560
X69850Y29210
X69850Y39370
X85852Y27940
X77470Y29210
X69850Y16510
T7
X63246Y12802
X68072Y20345
X56693Y15240
X57201Y18847
M30