G04 EAGLE Gerber RS-274X export*
G75*
%MOMM*%
%FSLAX34Y34*%
%LPD*%
%INBottom Copper*%
%IPPOS*%
%AMOC8*
5,1,8,0,0,1.08239X$1,22.5*%
G01*
%ADD10C,1.676400*%
%ADD11P,1.429621X8X292.500000*%
%ADD12R,1.778000X1.778000*%
%ADD13C,1.778000*%
%ADD14P,1.429621X8X112.500000*%
%ADD15R,7.620000X2.032000*%
%ADD16C,1.879600*%
%ADD17P,1.732040X8X292.500000*%
%ADD18C,1.700000*%
%ADD19C,0.152400*%
%ADD20C,0.756400*%
%ADD21C,0.812800*%


D10*
X614680Y266700D03*
X614680Y368300D03*
D11*
X774700Y266700D03*
X774700Y165100D03*
X736600Y266700D03*
X736600Y165100D03*
D12*
X660400Y393700D03*
D13*
X660400Y368300D03*
X660400Y342900D03*
X660400Y317500D03*
X660400Y292100D03*
X660400Y266700D03*
X660400Y241300D03*
X660400Y215900D03*
X660400Y190500D03*
X660400Y165100D03*
X660400Y139700D03*
X660400Y114300D03*
X660400Y88900D03*
X660400Y63500D03*
X660400Y38100D03*
X812800Y393700D03*
X812800Y368300D03*
X812800Y342900D03*
X812800Y317500D03*
X812800Y292100D03*
X812800Y266700D03*
X812800Y241300D03*
X812800Y215900D03*
X812800Y190500D03*
X812800Y165100D03*
X812800Y139700D03*
X812800Y114300D03*
X812800Y88900D03*
X812800Y63500D03*
X812800Y38100D03*
D14*
X858520Y254000D03*
X858520Y279400D03*
X774700Y292100D03*
X774700Y393700D03*
D15*
X523240Y203200D03*
X523240Y228600D03*
X523240Y177800D03*
X523240Y152400D03*
X523240Y279400D03*
X523240Y127000D03*
X523240Y304800D03*
D14*
X858520Y152400D03*
X858520Y177800D03*
X736600Y292100D03*
X736600Y393700D03*
D11*
X698500Y266700D03*
X698500Y165100D03*
D16*
X614680Y165100D03*
X614680Y190500D03*
X614680Y215900D03*
X614680Y88900D03*
X614680Y114300D03*
D17*
X858520Y114300D03*
X858520Y63500D03*
D10*
X736600Y38100D03*
X736600Y139700D03*
D14*
X871220Y330200D03*
X871220Y355600D03*
X845820Y355600D03*
X698500Y292100D03*
X698500Y393700D03*
D18*
X698500Y63500D03*
X698500Y139700D03*
X774700Y63500D03*
X774700Y139700D03*
D19*
X774192Y165354D02*
X774192Y178308D01*
X675132Y277368D01*
X675132Y344424D01*
X665226Y354330D01*
X629412Y354330D01*
X579882Y304800D01*
X523240Y304800D01*
X774192Y165354D02*
X774700Y165100D01*
X660654Y292608D02*
X660654Y301752D01*
X672084Y313182D01*
X672084Y322326D01*
X665226Y329184D01*
X608838Y329184D01*
X559308Y279654D01*
X523494Y279654D01*
X660400Y292100D02*
X660654Y292608D01*
X523494Y279654D02*
X523240Y279400D01*
X718566Y63246D02*
X774192Y63246D01*
X718566Y63246D02*
X700278Y44958D01*
X683514Y44958D01*
X665226Y26670D01*
X655320Y26670D01*
X647192Y34798D01*
X572008Y188468D02*
X557784Y202692D01*
X523494Y202692D01*
X774192Y63246D02*
X774700Y63500D01*
X523494Y202692D02*
X523240Y203200D01*
D20*
X632460Y128016D03*
X572008Y188468D03*
D19*
X647192Y65368D02*
X647192Y34798D01*
X632460Y80100D02*
X632460Y128016D01*
X632460Y80100D02*
X647192Y65368D01*
D21*
X596900Y152400D02*
X566928Y152400D01*
X604520Y144780D02*
X624840Y144780D01*
X640080Y160020D01*
X640080Y297180D01*
X596900Y152400D02*
X604520Y144780D01*
D20*
X566928Y152400D03*
D21*
X640080Y297180D02*
X660400Y317500D01*
X523494Y152400D02*
X523494Y127254D01*
X523494Y152400D02*
X523240Y152400D01*
X523494Y156210D02*
X523494Y177546D01*
X523494Y156210D02*
X523240Y152400D01*
X523494Y177546D02*
X523240Y177800D01*
X523240Y152400D02*
X566928Y152400D01*
X523494Y127254D02*
X523240Y127000D01*
D20*
X680720Y203454D03*
D19*
X680720Y81280D02*
X698500Y63500D01*
X680720Y81280D02*
X680720Y203454D01*
X698754Y215646D02*
X774700Y139700D01*
X698754Y215646D02*
X660654Y215646D01*
X660400Y215900D01*
X774954Y279654D02*
X774954Y291846D01*
X774954Y279654D02*
X785622Y268986D01*
X785622Y134874D01*
X698754Y48006D01*
X670560Y48006D01*
X660654Y38100D01*
X774954Y291846D02*
X774700Y292100D01*
X660654Y38100D02*
X660400Y38100D01*
X774954Y393192D02*
X797052Y393192D01*
X810768Y379476D01*
X835152Y379476D01*
X854964Y359664D01*
X854964Y288798D01*
X849630Y283464D01*
X849630Y262890D01*
X858520Y254000D01*
X774954Y393192D02*
X774700Y393700D01*
X762000Y393954D02*
X736854Y393954D01*
X762000Y393954D02*
X773430Y405384D01*
X817626Y405384D01*
X861822Y361188D01*
X861822Y288798D01*
X867918Y282702D01*
X867918Y161544D01*
X858774Y152400D01*
X736600Y393700D02*
X736854Y393954D01*
X858520Y152400D02*
X858774Y152400D01*
X601980Y228600D02*
X523240Y228600D01*
X601980Y228600D02*
X614680Y215900D01*
D21*
X614680Y88900D02*
X640842Y62738D01*
X640842Y32103D02*
X654403Y18542D01*
X666397Y18542D01*
X685955Y38100D02*
X736600Y38100D01*
X640842Y32103D02*
X640842Y62738D01*
X666397Y18542D02*
X685955Y38100D01*
X806803Y18542D02*
X818797Y18542D01*
X832358Y32103D01*
X787245Y38100D02*
X736600Y38100D01*
X832358Y37338D02*
X832358Y32103D01*
X806803Y18542D02*
X787245Y38100D01*
X832358Y37338D02*
X858520Y63500D01*
X858520Y90002D01*
X839851Y108671D01*
X839851Y349631D02*
X845820Y355600D01*
X839851Y349631D02*
X839851Y108671D01*
M02*
