G04 EAGLE Gerber RS-274X export*
G75*
%MOMM*%
%FSLAX34Y34*%
%LPD*%
%INTop Copper*%
%IPPOS*%
%AMOC8*
5,1,8,0,0,1.08239X$1,22.5*%
G01*
%ADD10C,1.676400*%
%ADD11P,1.429621X8X292.500000*%
%ADD12R,1.778000X1.778000*%
%ADD13C,1.778000*%
%ADD14P,1.429621X8X112.500000*%
%ADD15R,7.620000X2.032000*%
%ADD16C,1.879600*%
%ADD17P,1.732040X8X292.500000*%
%ADD18C,1.700000*%
%ADD19C,0.152400*%
%ADD20C,0.756400*%
%ADD21C,0.812800*%


D10*
X614680Y266700D03*
X614680Y368300D03*
D11*
X774700Y266700D03*
X774700Y165100D03*
X736600Y266700D03*
X736600Y165100D03*
D12*
X660400Y393700D03*
D13*
X660400Y368300D03*
X660400Y342900D03*
X660400Y317500D03*
X660400Y292100D03*
X660400Y266700D03*
X660400Y241300D03*
X660400Y215900D03*
X660400Y190500D03*
X660400Y165100D03*
X660400Y139700D03*
X660400Y114300D03*
X660400Y88900D03*
X660400Y63500D03*
X660400Y38100D03*
X812800Y393700D03*
X812800Y368300D03*
X812800Y342900D03*
X812800Y317500D03*
X812800Y292100D03*
X812800Y266700D03*
X812800Y241300D03*
X812800Y215900D03*
X812800Y190500D03*
X812800Y165100D03*
X812800Y139700D03*
X812800Y114300D03*
X812800Y88900D03*
X812800Y63500D03*
X812800Y38100D03*
D14*
X858520Y254000D03*
X858520Y279400D03*
X774700Y292100D03*
X774700Y393700D03*
D15*
X523240Y203200D03*
X523240Y228600D03*
X523240Y177800D03*
X523240Y152400D03*
X523240Y279400D03*
X523240Y127000D03*
X523240Y304800D03*
D14*
X858520Y152400D03*
X858520Y177800D03*
X736600Y292100D03*
X736600Y393700D03*
D11*
X698500Y266700D03*
X698500Y165100D03*
D16*
X614680Y165100D03*
X614680Y190500D03*
X614680Y215900D03*
X614680Y88900D03*
X614680Y114300D03*
D17*
X858520Y114300D03*
X858520Y63500D03*
D10*
X736600Y38100D03*
X736600Y139700D03*
D14*
X871220Y330200D03*
X871220Y355600D03*
X845820Y355600D03*
X698500Y292100D03*
X698500Y393700D03*
D18*
X698500Y63500D03*
X698500Y139700D03*
X774700Y63500D03*
X774700Y139700D03*
D19*
X697992Y202438D02*
X697992Y266700D01*
X697992Y202438D02*
X686054Y190500D01*
X697992Y266700D02*
X698500Y266700D01*
X686054Y190500D02*
X660400Y190500D01*
X774954Y253746D02*
X774954Y266700D01*
X774954Y253746D02*
X812800Y215900D01*
X774954Y266700D02*
X774700Y266700D01*
X736854Y266700D02*
X736854Y258318D01*
X796544Y198628D01*
X796544Y130048D01*
X812292Y114300D01*
X736854Y266700D02*
X736600Y266700D01*
X812292Y114300D02*
X812800Y114300D01*
X659892Y235458D02*
X659892Y240792D01*
X659892Y235458D02*
X614934Y190500D01*
X659892Y240792D02*
X660400Y241300D01*
X614934Y190500D02*
X614680Y190500D01*
X572008Y188468D02*
X632460Y128016D01*
D20*
X632460Y128016D03*
X572008Y188468D03*
D21*
X660400Y317500D02*
X711200Y368300D01*
X858012Y343408D02*
X871220Y330200D01*
X858012Y343408D02*
X858012Y360650D01*
X850362Y368300D02*
X812800Y368300D01*
X850362Y368300D02*
X858012Y360650D01*
X871220Y330200D02*
X871220Y292100D01*
X858520Y279400D01*
X870712Y259050D02*
X870712Y248950D01*
X858520Y271242D02*
X858520Y279400D01*
X858520Y236758D02*
X858520Y177800D01*
X870712Y259050D02*
X858520Y271242D01*
X870712Y248950D02*
X858520Y236758D01*
D20*
X566928Y152400D03*
D21*
X714756Y368046D02*
X809244Y368046D01*
X812800Y368300D01*
X714756Y368046D02*
X711200Y368300D01*
X523494Y152400D02*
X523494Y127254D01*
X523494Y152400D02*
X523240Y152400D01*
X523494Y156210D02*
X523494Y177546D01*
X523494Y156210D02*
X523240Y152400D01*
X523494Y177546D02*
X523240Y177800D01*
X523240Y152400D02*
X566928Y152400D01*
X523494Y127254D02*
X523240Y127000D01*
D19*
X727710Y174625D02*
X727710Y270510D01*
X745998Y288798D01*
X745998Y295656D01*
X736854Y304800D01*
X523240Y304800D01*
X727710Y174625D02*
X727498Y174202D01*
X736600Y165100D01*
X666553Y278892D02*
X523494Y278892D01*
X523240Y279400D01*
D20*
X680720Y203454D03*
D19*
X680720Y266249D02*
X666553Y278892D01*
X680720Y266249D02*
X680720Y203454D01*
X660400Y266700D02*
X635508Y266700D01*
X572262Y203454D01*
X523494Y203454D01*
X523240Y203200D01*
X698754Y164592D02*
X698754Y140208D01*
X698754Y164592D02*
X698500Y165100D01*
X698754Y140208D02*
X698500Y139700D01*
D21*
X640842Y402365D02*
X651735Y413258D01*
X640842Y402365D02*
X640842Y394462D01*
X812262Y393700D02*
X812800Y393700D01*
X640842Y394462D02*
X614680Y368300D01*
X651735Y413258D02*
X792704Y413258D01*
X812262Y393700D01*
X597233Y237869D02*
X588901Y229537D01*
X597233Y237869D02*
X597233Y249253D01*
X614680Y266700D01*
X524177Y229537D02*
X523240Y228600D01*
X524177Y229537D02*
X588901Y229537D01*
D19*
X614934Y165354D02*
X659892Y165354D01*
X660400Y165100D01*
X614934Y165354D02*
X614680Y165100D01*
X736092Y283464D02*
X736092Y291846D01*
X736092Y283464D02*
X710946Y258318D01*
X710946Y123444D01*
X660654Y73152D01*
X660654Y64008D01*
X736092Y291846D02*
X736600Y292100D01*
X660654Y64008D02*
X660400Y63500D01*
X870966Y355854D02*
X870966Y357378D01*
X845820Y382524D01*
X709422Y382524D01*
X698754Y393192D01*
X870966Y355854D02*
X871220Y355600D01*
X698754Y393192D02*
X698500Y393700D01*
X698754Y291846D02*
X698754Y279654D01*
X707898Y270510D01*
X707898Y187452D01*
X677164Y156718D01*
X677164Y105664D01*
X660400Y88900D01*
X698754Y291846D02*
X698500Y292100D01*
D21*
X640842Y32103D02*
X654403Y18542D01*
X666397Y18542D01*
X679958Y32103D01*
X640842Y88138D02*
X614680Y114300D01*
X640842Y88138D02*
X640842Y32103D01*
X679958Y32103D02*
X679958Y83058D01*
X736600Y139700D01*
X795782Y29563D02*
X806803Y18542D01*
X818797Y18542D01*
X832358Y32103D01*
X795782Y29563D02*
X795782Y80518D01*
X832358Y88138D02*
X832358Y32103D01*
X832358Y88138D02*
X858520Y114300D01*
X795782Y80518D02*
X736600Y139700D01*
X832358Y140462D02*
X858520Y114300D01*
X832358Y140462D02*
X832358Y298097D01*
X812955Y317500D01*
X812800Y317500D01*
M02*
