G04 EAGLE Gerber RS-274X export*
G75*
%MOMM*%
%FSLAX34Y34*%
%LPD*%
%INSilkscreen Top*%
%IPPOS*%
%AMOC8*
5,1,8,0,0,1.08239X$1,22.5*%
G01*
%ADD10C,0.101600*%
%ADD11C,4.064000*%
%ADD12C,0.076200*%
%ADD13C,0.152400*%
%ADD14R,2.540000X0.508000*%
%ADD15R,0.762000X1.905000*%
%ADD16R,0.609600X0.863600*%
%ADD17C,0.000000*%
%ADD18C,0.254000*%
%ADD19C,0.203200*%
%ADD20C,0.304800*%
%ADD21C,0.127000*%
%ADD22C,0.050800*%
%ADD23R,1.870000X0.508000*%
%ADD24R,0.850000X0.635000*%


D10*
X721840Y17272D02*
X721840Y8834D01*
X721839Y8834D02*
X721841Y8721D01*
X721847Y8608D01*
X721857Y8495D01*
X721871Y8382D01*
X721888Y8270D01*
X721910Y8159D01*
X721935Y8049D01*
X721965Y7939D01*
X721998Y7831D01*
X722035Y7724D01*
X722075Y7618D01*
X722120Y7514D01*
X722168Y7411D01*
X722219Y7310D01*
X722274Y7211D01*
X722332Y7114D01*
X722394Y7019D01*
X722459Y6926D01*
X722527Y6836D01*
X722598Y6748D01*
X722673Y6662D01*
X722750Y6579D01*
X722830Y6499D01*
X722913Y6422D01*
X722999Y6347D01*
X723087Y6276D01*
X723177Y6208D01*
X723270Y6143D01*
X723365Y6081D01*
X723462Y6023D01*
X723561Y5968D01*
X723662Y5917D01*
X723765Y5869D01*
X723869Y5824D01*
X723975Y5784D01*
X724082Y5747D01*
X724190Y5714D01*
X724300Y5684D01*
X724410Y5659D01*
X724521Y5637D01*
X724633Y5620D01*
X724746Y5606D01*
X724859Y5596D01*
X724972Y5590D01*
X725085Y5588D01*
X725198Y5590D01*
X725311Y5596D01*
X725424Y5606D01*
X725537Y5620D01*
X725649Y5637D01*
X725760Y5659D01*
X725870Y5684D01*
X725980Y5714D01*
X726088Y5747D01*
X726195Y5784D01*
X726301Y5824D01*
X726405Y5869D01*
X726508Y5917D01*
X726609Y5968D01*
X726708Y6023D01*
X726805Y6081D01*
X726900Y6143D01*
X726993Y6208D01*
X727083Y6276D01*
X727171Y6347D01*
X727257Y6422D01*
X727340Y6499D01*
X727420Y6579D01*
X727497Y6662D01*
X727572Y6748D01*
X727643Y6836D01*
X727711Y6926D01*
X727776Y7019D01*
X727838Y7114D01*
X727896Y7211D01*
X727951Y7310D01*
X728002Y7411D01*
X728050Y7514D01*
X728095Y7618D01*
X728135Y7724D01*
X728172Y7831D01*
X728205Y7939D01*
X728235Y8049D01*
X728260Y8159D01*
X728282Y8270D01*
X728299Y8382D01*
X728313Y8495D01*
X728323Y8608D01*
X728329Y8721D01*
X728331Y8834D01*
X728331Y17272D01*
X739760Y8184D02*
X739758Y8085D01*
X739752Y7985D01*
X739743Y7886D01*
X739730Y7788D01*
X739713Y7690D01*
X739692Y7592D01*
X739667Y7496D01*
X739639Y7401D01*
X739607Y7307D01*
X739572Y7214D01*
X739533Y7122D01*
X739490Y7032D01*
X739445Y6944D01*
X739395Y6857D01*
X739343Y6773D01*
X739287Y6690D01*
X739229Y6610D01*
X739167Y6532D01*
X739102Y6457D01*
X739034Y6384D01*
X738964Y6314D01*
X738891Y6246D01*
X738816Y6181D01*
X738738Y6119D01*
X738658Y6061D01*
X738575Y6005D01*
X738491Y5953D01*
X738404Y5903D01*
X738316Y5858D01*
X738226Y5815D01*
X738134Y5776D01*
X738041Y5741D01*
X737947Y5709D01*
X737852Y5681D01*
X737756Y5656D01*
X737658Y5635D01*
X737560Y5618D01*
X737462Y5605D01*
X737363Y5596D01*
X737263Y5590D01*
X737164Y5588D01*
X737020Y5590D01*
X736875Y5596D01*
X736731Y5605D01*
X736588Y5618D01*
X736444Y5635D01*
X736301Y5656D01*
X736159Y5681D01*
X736018Y5709D01*
X735877Y5741D01*
X735737Y5777D01*
X735598Y5816D01*
X735460Y5859D01*
X735324Y5906D01*
X735188Y5956D01*
X735054Y6010D01*
X734922Y6067D01*
X734791Y6128D01*
X734662Y6192D01*
X734534Y6260D01*
X734408Y6330D01*
X734284Y6405D01*
X734163Y6482D01*
X734043Y6563D01*
X733925Y6646D01*
X733810Y6733D01*
X733697Y6823D01*
X733586Y6916D01*
X733478Y7011D01*
X733372Y7110D01*
X733269Y7211D01*
X733595Y14676D02*
X733597Y14775D01*
X733603Y14875D01*
X733612Y14974D01*
X733625Y15072D01*
X733642Y15170D01*
X733663Y15268D01*
X733688Y15364D01*
X733716Y15459D01*
X733748Y15553D01*
X733783Y15646D01*
X733822Y15738D01*
X733865Y15828D01*
X733910Y15916D01*
X733960Y16003D01*
X734012Y16087D01*
X734068Y16170D01*
X734126Y16250D01*
X734188Y16328D01*
X734253Y16403D01*
X734321Y16476D01*
X734391Y16546D01*
X734464Y16614D01*
X734539Y16679D01*
X734617Y16741D01*
X734697Y16799D01*
X734780Y16855D01*
X734864Y16907D01*
X734951Y16957D01*
X735039Y17002D01*
X735129Y17045D01*
X735221Y17084D01*
X735314Y17119D01*
X735408Y17151D01*
X735503Y17179D01*
X735600Y17204D01*
X735697Y17225D01*
X735795Y17242D01*
X735893Y17255D01*
X735992Y17264D01*
X736092Y17270D01*
X736191Y17272D01*
X736327Y17270D01*
X736463Y17264D01*
X736599Y17255D01*
X736735Y17242D01*
X736870Y17224D01*
X737004Y17204D01*
X737138Y17179D01*
X737272Y17151D01*
X737404Y17118D01*
X737535Y17083D01*
X737666Y17043D01*
X737795Y17000D01*
X737923Y16954D01*
X738049Y16903D01*
X738175Y16850D01*
X738298Y16792D01*
X738420Y16732D01*
X738540Y16668D01*
X738659Y16600D01*
X738775Y16530D01*
X738889Y16456D01*
X739002Y16379D01*
X739112Y16298D01*
X734892Y12404D02*
X734806Y12457D01*
X734722Y12514D01*
X734640Y12573D01*
X734560Y12636D01*
X734483Y12702D01*
X734408Y12770D01*
X734336Y12842D01*
X734267Y12916D01*
X734201Y12993D01*
X734138Y13072D01*
X734078Y13154D01*
X734021Y13238D01*
X733967Y13324D01*
X733917Y13412D01*
X733870Y13502D01*
X733826Y13593D01*
X733787Y13687D01*
X733750Y13781D01*
X733718Y13877D01*
X733689Y13975D01*
X733664Y14073D01*
X733643Y14172D01*
X733625Y14272D01*
X733612Y14372D01*
X733602Y14473D01*
X733596Y14575D01*
X733594Y14676D01*
X738463Y10456D02*
X738549Y10403D01*
X738633Y10346D01*
X738715Y10287D01*
X738795Y10224D01*
X738872Y10158D01*
X738947Y10090D01*
X739019Y10018D01*
X739088Y9944D01*
X739154Y9867D01*
X739217Y9788D01*
X739277Y9706D01*
X739334Y9622D01*
X739388Y9536D01*
X739438Y9448D01*
X739485Y9358D01*
X739529Y9267D01*
X739568Y9173D01*
X739605Y9079D01*
X739637Y8983D01*
X739666Y8885D01*
X739691Y8787D01*
X739712Y8688D01*
X739730Y8588D01*
X739743Y8488D01*
X739753Y8387D01*
X739759Y8285D01*
X739761Y8184D01*
X738463Y10456D02*
X734893Y12404D01*
X744869Y12079D02*
X748115Y12079D01*
X748115Y12080D02*
X748228Y12078D01*
X748341Y12072D01*
X748454Y12062D01*
X748567Y12048D01*
X748679Y12031D01*
X748790Y12009D01*
X748900Y11984D01*
X749010Y11954D01*
X749118Y11921D01*
X749225Y11884D01*
X749331Y11844D01*
X749435Y11799D01*
X749538Y11751D01*
X749639Y11700D01*
X749738Y11645D01*
X749835Y11587D01*
X749930Y11525D01*
X750023Y11460D01*
X750113Y11392D01*
X750201Y11321D01*
X750287Y11246D01*
X750370Y11169D01*
X750450Y11089D01*
X750527Y11006D01*
X750602Y10920D01*
X750673Y10832D01*
X750741Y10742D01*
X750806Y10649D01*
X750868Y10554D01*
X750926Y10457D01*
X750981Y10358D01*
X751032Y10257D01*
X751080Y10154D01*
X751125Y10050D01*
X751165Y9944D01*
X751202Y9837D01*
X751235Y9729D01*
X751265Y9619D01*
X751290Y9509D01*
X751312Y9398D01*
X751329Y9286D01*
X751343Y9173D01*
X751353Y9060D01*
X751359Y8947D01*
X751361Y8834D01*
X751359Y8721D01*
X751353Y8608D01*
X751343Y8495D01*
X751329Y8382D01*
X751312Y8270D01*
X751290Y8159D01*
X751265Y8049D01*
X751235Y7939D01*
X751202Y7831D01*
X751165Y7724D01*
X751125Y7618D01*
X751080Y7514D01*
X751032Y7411D01*
X750981Y7310D01*
X750926Y7211D01*
X750868Y7114D01*
X750806Y7019D01*
X750741Y6926D01*
X750673Y6836D01*
X750602Y6748D01*
X750527Y6662D01*
X750450Y6579D01*
X750370Y6499D01*
X750287Y6422D01*
X750201Y6347D01*
X750113Y6276D01*
X750023Y6208D01*
X749930Y6143D01*
X749835Y6081D01*
X749738Y6023D01*
X749639Y5968D01*
X749538Y5917D01*
X749435Y5869D01*
X749331Y5824D01*
X749225Y5784D01*
X749118Y5747D01*
X749010Y5714D01*
X748900Y5684D01*
X748790Y5659D01*
X748679Y5637D01*
X748567Y5620D01*
X748454Y5606D01*
X748341Y5596D01*
X748228Y5590D01*
X748115Y5588D01*
X744869Y5588D01*
X744869Y17272D01*
X748115Y17272D01*
X748216Y17270D01*
X748316Y17264D01*
X748416Y17254D01*
X748516Y17241D01*
X748615Y17223D01*
X748714Y17202D01*
X748811Y17177D01*
X748908Y17148D01*
X749003Y17115D01*
X749097Y17079D01*
X749189Y17039D01*
X749280Y16996D01*
X749369Y16949D01*
X749456Y16899D01*
X749542Y16845D01*
X749625Y16788D01*
X749705Y16728D01*
X749784Y16665D01*
X749860Y16598D01*
X749933Y16529D01*
X750003Y16457D01*
X750071Y16383D01*
X750136Y16306D01*
X750197Y16226D01*
X750256Y16144D01*
X750311Y16060D01*
X750363Y15974D01*
X750412Y15886D01*
X750457Y15796D01*
X750499Y15704D01*
X750537Y15611D01*
X750571Y15516D01*
X750602Y15421D01*
X750629Y15324D01*
X750652Y15226D01*
X750672Y15127D01*
X750687Y15027D01*
X750699Y14927D01*
X750707Y14827D01*
X750711Y14726D01*
X750711Y14626D01*
X750707Y14525D01*
X750699Y14425D01*
X750687Y14325D01*
X750672Y14225D01*
X750652Y14126D01*
X750629Y14028D01*
X750602Y13931D01*
X750571Y13836D01*
X750537Y13741D01*
X750499Y13648D01*
X750457Y13556D01*
X750412Y13466D01*
X750363Y13378D01*
X750311Y13292D01*
X750256Y13208D01*
X750197Y13126D01*
X750136Y13046D01*
X750071Y12969D01*
X750003Y12895D01*
X749933Y12823D01*
X749860Y12754D01*
X749784Y12687D01*
X749705Y12624D01*
X749625Y12564D01*
X749542Y12507D01*
X749456Y12453D01*
X749369Y12403D01*
X749280Y12356D01*
X749189Y12313D01*
X749097Y12273D01*
X749003Y12237D01*
X748908Y12204D01*
X748811Y12175D01*
X748714Y12150D01*
X748615Y12129D01*
X748516Y12111D01*
X748416Y12098D01*
X748316Y12088D01*
X748216Y12082D01*
X748115Y12080D01*
X854625Y139672D02*
X862415Y139672D01*
X858520Y143566D02*
X858520Y135777D01*
X854625Y241272D02*
X862415Y241272D01*
X858520Y245166D02*
X858520Y237377D01*
D11*
X609600Y25400D03*
X863600Y25400D03*
X863600Y406400D03*
X609600Y406400D03*
D12*
X682129Y423559D02*
X682129Y426833D01*
X682131Y426922D01*
X682137Y427011D01*
X682147Y427100D01*
X682160Y427188D01*
X682177Y427276D01*
X682199Y427363D01*
X682224Y427448D01*
X682252Y427533D01*
X682285Y427616D01*
X682321Y427698D01*
X682360Y427778D01*
X682403Y427856D01*
X682449Y427932D01*
X682499Y428007D01*
X682552Y428079D01*
X682608Y428148D01*
X682667Y428215D01*
X682728Y428280D01*
X682793Y428341D01*
X682860Y428400D01*
X682929Y428456D01*
X683001Y428509D01*
X683076Y428559D01*
X683152Y428605D01*
X683230Y428648D01*
X683310Y428687D01*
X683392Y428723D01*
X683475Y428756D01*
X683560Y428784D01*
X683645Y428809D01*
X683732Y428831D01*
X683820Y428848D01*
X683908Y428861D01*
X683997Y428871D01*
X684086Y428877D01*
X684175Y428879D01*
X684264Y428877D01*
X684353Y428871D01*
X684442Y428861D01*
X684530Y428848D01*
X684618Y428831D01*
X684705Y428809D01*
X684790Y428784D01*
X684875Y428756D01*
X684958Y428723D01*
X685040Y428687D01*
X685120Y428648D01*
X685198Y428605D01*
X685274Y428559D01*
X685349Y428509D01*
X685421Y428456D01*
X685490Y428400D01*
X685557Y428341D01*
X685622Y428280D01*
X685683Y428215D01*
X685742Y428148D01*
X685798Y428079D01*
X685851Y428007D01*
X685901Y427932D01*
X685947Y427856D01*
X685990Y427778D01*
X686029Y427698D01*
X686065Y427616D01*
X686098Y427533D01*
X686126Y427448D01*
X686151Y427363D01*
X686173Y427276D01*
X686190Y427188D01*
X686203Y427100D01*
X686213Y427011D01*
X686219Y426922D01*
X686221Y426833D01*
X686221Y423559D01*
X686219Y423470D01*
X686213Y423381D01*
X686203Y423292D01*
X686190Y423204D01*
X686173Y423116D01*
X686151Y423029D01*
X686126Y422944D01*
X686098Y422859D01*
X686065Y422776D01*
X686029Y422694D01*
X685990Y422614D01*
X685947Y422536D01*
X685901Y422460D01*
X685851Y422385D01*
X685798Y422313D01*
X685742Y422244D01*
X685683Y422177D01*
X685622Y422112D01*
X685557Y422051D01*
X685490Y421992D01*
X685421Y421936D01*
X685349Y421883D01*
X685274Y421833D01*
X685198Y421787D01*
X685120Y421744D01*
X685040Y421705D01*
X684958Y421669D01*
X684875Y421636D01*
X684790Y421608D01*
X684705Y421583D01*
X684618Y421561D01*
X684530Y421544D01*
X684442Y421531D01*
X684353Y421521D01*
X684264Y421515D01*
X684175Y421513D01*
X684086Y421515D01*
X683997Y421521D01*
X683908Y421531D01*
X683820Y421544D01*
X683732Y421561D01*
X683645Y421583D01*
X683560Y421608D01*
X683475Y421636D01*
X683392Y421669D01*
X683310Y421705D01*
X683230Y421744D01*
X683152Y421787D01*
X683076Y421833D01*
X683001Y421883D01*
X682929Y421936D01*
X682860Y421992D01*
X682793Y422051D01*
X682728Y422112D01*
X682667Y422177D01*
X682608Y422244D01*
X682552Y422313D01*
X682499Y422385D01*
X682449Y422460D01*
X682403Y422536D01*
X682360Y422614D01*
X682321Y422694D01*
X682285Y422776D01*
X682252Y422859D01*
X682224Y422944D01*
X682199Y423029D01*
X682177Y423116D01*
X682160Y423204D01*
X682147Y423292D01*
X682137Y423381D01*
X682131Y423470D01*
X682129Y423559D01*
X692598Y426424D02*
X692598Y419058D01*
X692598Y426424D02*
X690552Y426424D01*
X690483Y426422D01*
X690415Y426416D01*
X690346Y426407D01*
X690279Y426393D01*
X690212Y426376D01*
X690146Y426355D01*
X690082Y426331D01*
X690019Y426302D01*
X689958Y426271D01*
X689899Y426236D01*
X689841Y426198D01*
X689786Y426156D01*
X689734Y426112D01*
X689684Y426064D01*
X689636Y426014D01*
X689592Y425962D01*
X689551Y425907D01*
X689512Y425849D01*
X689477Y425790D01*
X689446Y425729D01*
X689417Y425666D01*
X689393Y425602D01*
X689372Y425536D01*
X689355Y425469D01*
X689341Y425402D01*
X689332Y425334D01*
X689326Y425265D01*
X689324Y425196D01*
X689324Y422741D01*
X689326Y422672D01*
X689332Y422604D01*
X689341Y422535D01*
X689355Y422468D01*
X689372Y422401D01*
X689393Y422335D01*
X689417Y422271D01*
X689446Y422208D01*
X689477Y422147D01*
X689512Y422088D01*
X689550Y422030D01*
X689592Y421975D01*
X689636Y421923D01*
X689684Y421873D01*
X689734Y421825D01*
X689786Y421781D01*
X689841Y421739D01*
X689899Y421701D01*
X689958Y421666D01*
X690019Y421635D01*
X690082Y421606D01*
X690146Y421582D01*
X690212Y421561D01*
X690279Y421544D01*
X690346Y421530D01*
X690415Y421521D01*
X690483Y421515D01*
X690552Y421513D01*
X692598Y421513D01*
X695319Y426424D02*
X697774Y426424D01*
X696137Y428879D02*
X696137Y422741D01*
X696139Y422672D01*
X696145Y422604D01*
X696154Y422535D01*
X696168Y422468D01*
X696185Y422401D01*
X696206Y422335D01*
X696230Y422271D01*
X696259Y422208D01*
X696290Y422147D01*
X696325Y422088D01*
X696363Y422030D01*
X696405Y421975D01*
X696449Y421923D01*
X696497Y421873D01*
X696547Y421825D01*
X696599Y421781D01*
X696654Y421739D01*
X696712Y421701D01*
X696771Y421666D01*
X696832Y421635D01*
X696895Y421606D01*
X696959Y421582D01*
X697025Y421561D01*
X697092Y421544D01*
X697159Y421530D01*
X697228Y421521D01*
X697296Y421515D01*
X697365Y421513D01*
X697774Y421513D01*
X701973Y424378D02*
X703815Y424378D01*
X701973Y424377D02*
X701898Y424375D01*
X701823Y424369D01*
X701749Y424359D01*
X701675Y424346D01*
X701602Y424328D01*
X701530Y424307D01*
X701460Y424282D01*
X701391Y424253D01*
X701323Y424221D01*
X701257Y424185D01*
X701193Y424146D01*
X701131Y424104D01*
X701072Y424058D01*
X701015Y424009D01*
X700960Y423958D01*
X700909Y423903D01*
X700860Y423846D01*
X700814Y423787D01*
X700772Y423725D01*
X700733Y423661D01*
X700697Y423595D01*
X700665Y423527D01*
X700636Y423458D01*
X700611Y423388D01*
X700590Y423316D01*
X700572Y423243D01*
X700559Y423169D01*
X700549Y423095D01*
X700543Y423020D01*
X700541Y422945D01*
X700543Y422870D01*
X700549Y422795D01*
X700559Y422721D01*
X700572Y422647D01*
X700590Y422574D01*
X700611Y422502D01*
X700636Y422432D01*
X700665Y422363D01*
X700697Y422295D01*
X700733Y422229D01*
X700772Y422165D01*
X700814Y422103D01*
X700860Y422044D01*
X700909Y421987D01*
X700960Y421932D01*
X701015Y421881D01*
X701072Y421832D01*
X701131Y421786D01*
X701193Y421744D01*
X701257Y421705D01*
X701323Y421669D01*
X701391Y421637D01*
X701460Y421608D01*
X701530Y421583D01*
X701602Y421562D01*
X701675Y421544D01*
X701749Y421531D01*
X701823Y421521D01*
X701898Y421515D01*
X701973Y421513D01*
X703815Y421513D01*
X703815Y425196D01*
X703813Y425265D01*
X703807Y425333D01*
X703798Y425402D01*
X703784Y425469D01*
X703767Y425536D01*
X703746Y425602D01*
X703722Y425666D01*
X703693Y425729D01*
X703662Y425790D01*
X703627Y425849D01*
X703589Y425907D01*
X703547Y425962D01*
X703503Y426014D01*
X703455Y426064D01*
X703405Y426112D01*
X703353Y426156D01*
X703298Y426198D01*
X703240Y426236D01*
X703181Y426271D01*
X703120Y426302D01*
X703057Y426331D01*
X702993Y426355D01*
X702927Y426376D01*
X702860Y426393D01*
X702793Y426407D01*
X702724Y426416D01*
X702656Y426422D01*
X702587Y426424D01*
X700950Y426424D01*
X707488Y428879D02*
X707488Y421513D01*
X707488Y428879D02*
X709534Y428879D01*
X709623Y428877D01*
X709712Y428871D01*
X709801Y428861D01*
X709889Y428848D01*
X709977Y428831D01*
X710064Y428809D01*
X710149Y428784D01*
X710234Y428756D01*
X710317Y428723D01*
X710399Y428687D01*
X710479Y428648D01*
X710557Y428605D01*
X710633Y428559D01*
X710708Y428509D01*
X710780Y428456D01*
X710849Y428400D01*
X710916Y428341D01*
X710981Y428280D01*
X711042Y428215D01*
X711101Y428148D01*
X711157Y428079D01*
X711210Y428007D01*
X711260Y427932D01*
X711306Y427856D01*
X711349Y427778D01*
X711388Y427698D01*
X711424Y427616D01*
X711457Y427533D01*
X711485Y427448D01*
X711510Y427363D01*
X711532Y427276D01*
X711549Y427188D01*
X711562Y427100D01*
X711572Y427011D01*
X711578Y426922D01*
X711580Y426833D01*
X711580Y423559D01*
X711578Y423470D01*
X711572Y423381D01*
X711562Y423292D01*
X711549Y423204D01*
X711532Y423116D01*
X711510Y423029D01*
X711485Y422944D01*
X711457Y422859D01*
X711424Y422776D01*
X711388Y422694D01*
X711349Y422614D01*
X711306Y422536D01*
X711260Y422460D01*
X711210Y422385D01*
X711157Y422313D01*
X711101Y422244D01*
X711042Y422177D01*
X710981Y422112D01*
X710916Y422051D01*
X710849Y421992D01*
X710780Y421936D01*
X710708Y421883D01*
X710633Y421833D01*
X710557Y421787D01*
X710479Y421744D01*
X710399Y421705D01*
X710317Y421669D01*
X710234Y421636D01*
X710149Y421608D01*
X710064Y421583D01*
X709977Y421561D01*
X709889Y421544D01*
X709801Y421531D01*
X709712Y421521D01*
X709623Y421515D01*
X709534Y421513D01*
X707488Y421513D01*
X715258Y421513D02*
X715258Y426424D01*
X717714Y426424D01*
X717714Y425605D01*
X720019Y426424D02*
X720019Y421513D01*
X719814Y428470D02*
X719814Y428879D01*
X720224Y428879D01*
X720224Y428470D01*
X719814Y428470D01*
X722771Y426424D02*
X724408Y421513D01*
X726045Y426424D01*
X730095Y421513D02*
X732141Y421513D01*
X730095Y421513D02*
X730026Y421515D01*
X729958Y421521D01*
X729889Y421530D01*
X729822Y421544D01*
X729755Y421561D01*
X729689Y421582D01*
X729625Y421606D01*
X729562Y421635D01*
X729501Y421666D01*
X729442Y421701D01*
X729384Y421739D01*
X729329Y421781D01*
X729277Y421825D01*
X729227Y421873D01*
X729179Y421923D01*
X729135Y421975D01*
X729093Y422030D01*
X729055Y422088D01*
X729020Y422147D01*
X728989Y422208D01*
X728960Y422271D01*
X728936Y422335D01*
X728915Y422401D01*
X728898Y422468D01*
X728884Y422535D01*
X728875Y422604D01*
X728869Y422672D01*
X728867Y422741D01*
X728867Y424787D01*
X728869Y424866D01*
X728875Y424945D01*
X728884Y425024D01*
X728897Y425102D01*
X728915Y425179D01*
X728935Y425255D01*
X728960Y425330D01*
X728988Y425404D01*
X729019Y425477D01*
X729055Y425548D01*
X729093Y425617D01*
X729135Y425684D01*
X729180Y425749D01*
X729228Y425812D01*
X729279Y425873D01*
X729333Y425930D01*
X729389Y425986D01*
X729448Y426038D01*
X729510Y426088D01*
X729574Y426134D01*
X729640Y426178D01*
X729708Y426218D01*
X729778Y426254D01*
X729850Y426288D01*
X729924Y426318D01*
X729998Y426344D01*
X730074Y426367D01*
X730151Y426385D01*
X730228Y426401D01*
X730307Y426412D01*
X730385Y426420D01*
X730464Y426424D01*
X730544Y426424D01*
X730623Y426420D01*
X730701Y426412D01*
X730780Y426401D01*
X730857Y426385D01*
X730934Y426367D01*
X731010Y426344D01*
X731084Y426318D01*
X731158Y426288D01*
X731230Y426254D01*
X731300Y426218D01*
X731368Y426178D01*
X731434Y426134D01*
X731498Y426088D01*
X731560Y426038D01*
X731619Y425986D01*
X731675Y425930D01*
X731729Y425873D01*
X731780Y425812D01*
X731828Y425749D01*
X731873Y425684D01*
X731915Y425617D01*
X731953Y425548D01*
X731989Y425477D01*
X732020Y425404D01*
X732048Y425330D01*
X732073Y425255D01*
X732093Y425179D01*
X732111Y425102D01*
X732124Y425024D01*
X732133Y424945D01*
X732139Y424866D01*
X732141Y424787D01*
X732141Y423968D01*
X728867Y423968D01*
X739638Y426424D02*
X739638Y419058D01*
X742912Y423150D02*
X742912Y426424D01*
X742912Y423150D02*
X742910Y423071D01*
X742904Y422992D01*
X742895Y422913D01*
X742882Y422835D01*
X742864Y422758D01*
X742844Y422682D01*
X742819Y422607D01*
X742791Y422533D01*
X742760Y422460D01*
X742724Y422389D01*
X742686Y422320D01*
X742644Y422253D01*
X742599Y422188D01*
X742551Y422125D01*
X742500Y422064D01*
X742446Y422007D01*
X742390Y421951D01*
X742331Y421899D01*
X742269Y421849D01*
X742205Y421803D01*
X742139Y421759D01*
X742071Y421719D01*
X742001Y421683D01*
X741929Y421649D01*
X741855Y421619D01*
X741781Y421593D01*
X741705Y421570D01*
X741628Y421552D01*
X741551Y421536D01*
X741472Y421525D01*
X741394Y421517D01*
X741315Y421513D01*
X741235Y421513D01*
X741156Y421517D01*
X741078Y421525D01*
X740999Y421536D01*
X740922Y421552D01*
X740845Y421570D01*
X740769Y421593D01*
X740695Y421619D01*
X740621Y421649D01*
X740549Y421683D01*
X740479Y421719D01*
X740411Y421759D01*
X740345Y421803D01*
X740281Y421849D01*
X740219Y421899D01*
X740160Y421951D01*
X740104Y422007D01*
X740050Y422064D01*
X739999Y422125D01*
X739951Y422188D01*
X739906Y422253D01*
X739864Y422320D01*
X739826Y422389D01*
X739790Y422460D01*
X739759Y422533D01*
X739731Y422607D01*
X739706Y422682D01*
X739686Y422758D01*
X739668Y422835D01*
X739655Y422913D01*
X739646Y422992D01*
X739640Y423071D01*
X739638Y423150D01*
X742912Y423150D02*
X742912Y422331D01*
X742914Y422275D01*
X742920Y422220D01*
X742929Y422165D01*
X742942Y422110D01*
X742959Y422057D01*
X742980Y422005D01*
X743004Y421955D01*
X743031Y421906D01*
X743062Y421859D01*
X743095Y421815D01*
X743132Y421773D01*
X743172Y421733D01*
X743214Y421696D01*
X743258Y421663D01*
X743305Y421632D01*
X743354Y421605D01*
X743404Y421581D01*
X743456Y421560D01*
X743509Y421543D01*
X743564Y421530D01*
X743619Y421521D01*
X743674Y421515D01*
X743730Y421513D01*
X746620Y421513D02*
X746620Y428879D01*
X748666Y428879D01*
X748755Y428877D01*
X748844Y428871D01*
X748933Y428861D01*
X749021Y428848D01*
X749109Y428831D01*
X749196Y428809D01*
X749281Y428784D01*
X749366Y428756D01*
X749449Y428723D01*
X749531Y428687D01*
X749611Y428648D01*
X749689Y428605D01*
X749765Y428559D01*
X749840Y428509D01*
X749912Y428456D01*
X749981Y428400D01*
X750048Y428341D01*
X750113Y428280D01*
X750174Y428215D01*
X750233Y428148D01*
X750289Y428079D01*
X750342Y428007D01*
X750392Y427932D01*
X750438Y427856D01*
X750481Y427778D01*
X750520Y427698D01*
X750556Y427616D01*
X750589Y427533D01*
X750617Y427448D01*
X750642Y427363D01*
X750664Y427276D01*
X750681Y427188D01*
X750694Y427100D01*
X750704Y427011D01*
X750710Y426922D01*
X750712Y426833D01*
X750710Y426744D01*
X750704Y426655D01*
X750694Y426566D01*
X750681Y426478D01*
X750664Y426390D01*
X750642Y426303D01*
X750617Y426218D01*
X750589Y426133D01*
X750556Y426050D01*
X750520Y425968D01*
X750481Y425888D01*
X750438Y425810D01*
X750392Y425734D01*
X750342Y425659D01*
X750289Y425587D01*
X750233Y425518D01*
X750174Y425451D01*
X750113Y425386D01*
X750048Y425325D01*
X749981Y425266D01*
X749912Y425210D01*
X749840Y425157D01*
X749765Y425107D01*
X749689Y425061D01*
X749611Y425018D01*
X749531Y424979D01*
X749449Y424943D01*
X749366Y424910D01*
X749281Y424882D01*
X749196Y424857D01*
X749109Y424835D01*
X749021Y424818D01*
X748933Y424805D01*
X748844Y424795D01*
X748755Y424789D01*
X748666Y424787D01*
X746620Y424787D01*
X755187Y421513D02*
X756824Y421513D01*
X755187Y421513D02*
X755109Y421515D01*
X755031Y421520D01*
X754954Y421530D01*
X754877Y421543D01*
X754801Y421559D01*
X754726Y421579D01*
X754652Y421603D01*
X754579Y421630D01*
X754507Y421661D01*
X754437Y421695D01*
X754369Y421732D01*
X754302Y421773D01*
X754237Y421817D01*
X754175Y421863D01*
X754115Y421913D01*
X754057Y421965D01*
X754002Y422020D01*
X753950Y422078D01*
X753900Y422138D01*
X753854Y422200D01*
X753810Y422265D01*
X753769Y422332D01*
X753732Y422400D01*
X753698Y422470D01*
X753667Y422542D01*
X753640Y422615D01*
X753616Y422689D01*
X753596Y422764D01*
X753580Y422840D01*
X753567Y422917D01*
X753557Y422994D01*
X753552Y423072D01*
X753550Y423150D01*
X753550Y427242D01*
X753552Y427322D01*
X753558Y427402D01*
X753568Y427482D01*
X753581Y427561D01*
X753599Y427640D01*
X753620Y427717D01*
X753646Y427793D01*
X753675Y427868D01*
X753707Y427942D01*
X753743Y428014D01*
X753783Y428084D01*
X753826Y428151D01*
X753872Y428217D01*
X753922Y428280D01*
X753974Y428341D01*
X754029Y428400D01*
X754088Y428455D01*
X754148Y428507D01*
X754212Y428557D01*
X754278Y428603D01*
X754345Y428646D01*
X754415Y428686D01*
X754487Y428722D01*
X754561Y428754D01*
X754635Y428783D01*
X754712Y428809D01*
X754789Y428830D01*
X754868Y428848D01*
X754947Y428861D01*
X755027Y428871D01*
X755107Y428877D01*
X755187Y428879D01*
X756824Y428879D01*
X760031Y425605D02*
X762077Y425605D01*
X762166Y425603D01*
X762255Y425597D01*
X762344Y425587D01*
X762432Y425574D01*
X762520Y425557D01*
X762607Y425535D01*
X762692Y425510D01*
X762777Y425482D01*
X762860Y425449D01*
X762942Y425413D01*
X763022Y425374D01*
X763100Y425331D01*
X763176Y425285D01*
X763251Y425235D01*
X763323Y425182D01*
X763392Y425126D01*
X763459Y425067D01*
X763524Y425006D01*
X763585Y424941D01*
X763644Y424874D01*
X763700Y424805D01*
X763753Y424733D01*
X763803Y424658D01*
X763849Y424582D01*
X763892Y424504D01*
X763931Y424424D01*
X763967Y424342D01*
X764000Y424259D01*
X764028Y424174D01*
X764053Y424089D01*
X764075Y424002D01*
X764092Y423914D01*
X764105Y423826D01*
X764115Y423737D01*
X764121Y423648D01*
X764123Y423559D01*
X764121Y423470D01*
X764115Y423381D01*
X764105Y423292D01*
X764092Y423204D01*
X764075Y423116D01*
X764053Y423029D01*
X764028Y422944D01*
X764000Y422859D01*
X763967Y422776D01*
X763931Y422694D01*
X763892Y422614D01*
X763849Y422536D01*
X763803Y422460D01*
X763753Y422385D01*
X763700Y422313D01*
X763644Y422244D01*
X763585Y422177D01*
X763524Y422112D01*
X763459Y422051D01*
X763392Y421992D01*
X763323Y421936D01*
X763251Y421883D01*
X763176Y421833D01*
X763100Y421787D01*
X763022Y421744D01*
X762942Y421705D01*
X762860Y421669D01*
X762777Y421636D01*
X762692Y421608D01*
X762607Y421583D01*
X762520Y421561D01*
X762432Y421544D01*
X762344Y421531D01*
X762255Y421521D01*
X762166Y421515D01*
X762077Y421513D01*
X760031Y421513D01*
X760031Y428879D01*
X762077Y428879D01*
X762156Y428877D01*
X762235Y428871D01*
X762314Y428862D01*
X762392Y428849D01*
X762469Y428831D01*
X762545Y428811D01*
X762620Y428786D01*
X762694Y428758D01*
X762767Y428727D01*
X762838Y428691D01*
X762907Y428653D01*
X762974Y428611D01*
X763039Y428566D01*
X763102Y428518D01*
X763163Y428467D01*
X763220Y428413D01*
X763276Y428357D01*
X763328Y428298D01*
X763378Y428236D01*
X763424Y428172D01*
X763468Y428106D01*
X763508Y428038D01*
X763544Y427968D01*
X763578Y427896D01*
X763608Y427822D01*
X763634Y427748D01*
X763657Y427672D01*
X763675Y427595D01*
X763691Y427518D01*
X763702Y427439D01*
X763710Y427361D01*
X763714Y427282D01*
X763714Y427202D01*
X763710Y427123D01*
X763702Y427045D01*
X763691Y426966D01*
X763675Y426889D01*
X763657Y426812D01*
X763634Y426736D01*
X763608Y426662D01*
X763578Y426588D01*
X763544Y426516D01*
X763508Y426446D01*
X763468Y426378D01*
X763424Y426312D01*
X763378Y426248D01*
X763328Y426186D01*
X763276Y426127D01*
X763220Y426071D01*
X763163Y426017D01*
X763102Y425966D01*
X763039Y425918D01*
X762974Y425873D01*
X762907Y425831D01*
X762838Y425793D01*
X762767Y425757D01*
X762694Y425726D01*
X762620Y425698D01*
X762545Y425673D01*
X762469Y425653D01*
X762392Y425635D01*
X762314Y425622D01*
X762235Y425613D01*
X762156Y425607D01*
X762077Y425605D01*
X770564Y426424D02*
X772200Y421513D01*
X773837Y426424D01*
X776738Y427242D02*
X778784Y428879D01*
X778784Y421513D01*
X776738Y421513D02*
X780830Y421513D01*
X783700Y421513D02*
X783700Y421922D01*
X784109Y421922D01*
X784109Y421513D01*
X783700Y421513D01*
X789230Y428880D02*
X789315Y428878D01*
X789400Y428872D01*
X789484Y428862D01*
X789568Y428849D01*
X789652Y428831D01*
X789734Y428810D01*
X789815Y428785D01*
X789895Y428756D01*
X789974Y428723D01*
X790051Y428687D01*
X790126Y428647D01*
X790200Y428604D01*
X790271Y428558D01*
X790340Y428508D01*
X790407Y428455D01*
X790471Y428399D01*
X790532Y428340D01*
X790591Y428279D01*
X790647Y428215D01*
X790700Y428148D01*
X790750Y428079D01*
X790796Y428008D01*
X790839Y427934D01*
X790879Y427859D01*
X790915Y427782D01*
X790948Y427703D01*
X790977Y427623D01*
X791002Y427542D01*
X791023Y427460D01*
X791041Y427376D01*
X791054Y427292D01*
X791064Y427208D01*
X791070Y427123D01*
X791072Y427038D01*
X789230Y428879D02*
X789134Y428877D01*
X789038Y428871D01*
X788943Y428861D01*
X788848Y428848D01*
X788753Y428830D01*
X788660Y428809D01*
X788567Y428784D01*
X788476Y428755D01*
X788385Y428723D01*
X788296Y428687D01*
X788209Y428647D01*
X788123Y428604D01*
X788039Y428558D01*
X787957Y428508D01*
X787877Y428454D01*
X787800Y428398D01*
X787725Y428338D01*
X787652Y428276D01*
X787582Y428210D01*
X787514Y428142D01*
X787449Y428071D01*
X787388Y427998D01*
X787329Y427922D01*
X787273Y427843D01*
X787221Y427763D01*
X787172Y427680D01*
X787126Y427596D01*
X787084Y427510D01*
X787046Y427422D01*
X787011Y427333D01*
X786979Y427242D01*
X790458Y425606D02*
X790518Y425665D01*
X790575Y425727D01*
X790630Y425791D01*
X790681Y425858D01*
X790730Y425927D01*
X790776Y425997D01*
X790819Y426070D01*
X790859Y426144D01*
X790895Y426220D01*
X790928Y426298D01*
X790958Y426377D01*
X790985Y426457D01*
X791008Y426538D01*
X791027Y426620D01*
X791043Y426702D01*
X791056Y426786D01*
X791065Y426870D01*
X791070Y426954D01*
X791072Y427038D01*
X790458Y425605D02*
X786979Y421513D01*
X791072Y421513D01*
X876681Y188102D02*
X884047Y188102D01*
X876681Y186056D02*
X876681Y190148D01*
X880773Y192805D02*
X882410Y192805D01*
X880773Y192805D02*
X880694Y192807D01*
X880615Y192813D01*
X880536Y192822D01*
X880458Y192835D01*
X880381Y192853D01*
X880305Y192873D01*
X880230Y192898D01*
X880156Y192926D01*
X880083Y192957D01*
X880012Y192993D01*
X879943Y193031D01*
X879876Y193073D01*
X879811Y193118D01*
X879748Y193166D01*
X879687Y193217D01*
X879630Y193271D01*
X879574Y193327D01*
X879522Y193386D01*
X879472Y193448D01*
X879426Y193512D01*
X879382Y193578D01*
X879342Y193646D01*
X879306Y193716D01*
X879272Y193788D01*
X879242Y193862D01*
X879216Y193936D01*
X879193Y194012D01*
X879175Y194089D01*
X879159Y194166D01*
X879148Y194245D01*
X879140Y194323D01*
X879136Y194402D01*
X879136Y194482D01*
X879140Y194561D01*
X879148Y194639D01*
X879159Y194718D01*
X879175Y194795D01*
X879193Y194872D01*
X879216Y194948D01*
X879242Y195022D01*
X879272Y195096D01*
X879306Y195168D01*
X879342Y195238D01*
X879382Y195306D01*
X879426Y195372D01*
X879472Y195436D01*
X879522Y195498D01*
X879574Y195557D01*
X879630Y195613D01*
X879687Y195667D01*
X879748Y195718D01*
X879811Y195766D01*
X879876Y195811D01*
X879943Y195853D01*
X880012Y195891D01*
X880083Y195927D01*
X880156Y195958D01*
X880230Y195986D01*
X880305Y196011D01*
X880381Y196031D01*
X880458Y196049D01*
X880536Y196062D01*
X880615Y196071D01*
X880694Y196077D01*
X880773Y196079D01*
X882410Y196079D01*
X882489Y196077D01*
X882568Y196071D01*
X882647Y196062D01*
X882725Y196049D01*
X882802Y196031D01*
X882878Y196011D01*
X882953Y195986D01*
X883027Y195958D01*
X883100Y195927D01*
X883171Y195891D01*
X883240Y195853D01*
X883307Y195811D01*
X883372Y195766D01*
X883435Y195718D01*
X883496Y195667D01*
X883553Y195613D01*
X883609Y195557D01*
X883661Y195498D01*
X883711Y195436D01*
X883757Y195372D01*
X883801Y195306D01*
X883841Y195238D01*
X883877Y195168D01*
X883911Y195096D01*
X883941Y195022D01*
X883967Y194948D01*
X883990Y194872D01*
X884008Y194795D01*
X884024Y194718D01*
X884035Y194639D01*
X884043Y194561D01*
X884047Y194482D01*
X884047Y194402D01*
X884043Y194323D01*
X884035Y194245D01*
X884024Y194166D01*
X884008Y194089D01*
X883990Y194012D01*
X883967Y193936D01*
X883941Y193862D01*
X883911Y193788D01*
X883877Y193716D01*
X883841Y193646D01*
X883801Y193578D01*
X883757Y193512D01*
X883711Y193448D01*
X883661Y193386D01*
X883609Y193327D01*
X883553Y193271D01*
X883496Y193217D01*
X883435Y193166D01*
X883372Y193118D01*
X883307Y193073D01*
X883240Y193031D01*
X883171Y192993D01*
X883100Y192957D01*
X883027Y192926D01*
X882953Y192898D01*
X882878Y192873D01*
X882802Y192853D01*
X882725Y192835D01*
X882647Y192822D01*
X882568Y192813D01*
X882489Y192807D01*
X882410Y192805D01*
X884047Y199546D02*
X879136Y199546D01*
X879136Y203229D01*
X879138Y203298D01*
X879144Y203366D01*
X879153Y203435D01*
X879167Y203502D01*
X879184Y203569D01*
X879205Y203635D01*
X879229Y203699D01*
X879258Y203762D01*
X879289Y203823D01*
X879324Y203882D01*
X879362Y203940D01*
X879404Y203995D01*
X879448Y204047D01*
X879496Y204097D01*
X879546Y204145D01*
X879598Y204189D01*
X879653Y204231D01*
X879711Y204269D01*
X879770Y204304D01*
X879831Y204335D01*
X879894Y204364D01*
X879958Y204388D01*
X880024Y204409D01*
X880091Y204426D01*
X880158Y204440D01*
X880227Y204449D01*
X880295Y204455D01*
X880364Y204457D01*
X880364Y204456D02*
X884047Y204456D01*
X884047Y202001D02*
X879136Y202001D01*
X876681Y208246D02*
X884047Y208246D01*
X876681Y208246D02*
X876681Y210292D01*
X876683Y210381D01*
X876689Y210470D01*
X876699Y210559D01*
X876712Y210647D01*
X876729Y210735D01*
X876751Y210822D01*
X876776Y210907D01*
X876804Y210992D01*
X876837Y211075D01*
X876873Y211157D01*
X876912Y211237D01*
X876955Y211315D01*
X877001Y211391D01*
X877051Y211466D01*
X877104Y211538D01*
X877160Y211607D01*
X877219Y211674D01*
X877280Y211739D01*
X877345Y211800D01*
X877412Y211859D01*
X877481Y211915D01*
X877553Y211968D01*
X877628Y212018D01*
X877704Y212064D01*
X877782Y212107D01*
X877862Y212146D01*
X877944Y212182D01*
X878027Y212215D01*
X878112Y212243D01*
X878197Y212268D01*
X878284Y212290D01*
X878372Y212307D01*
X878460Y212320D01*
X878549Y212330D01*
X878638Y212336D01*
X878727Y212338D01*
X882001Y212338D01*
X882090Y212336D01*
X882179Y212330D01*
X882268Y212320D01*
X882356Y212307D01*
X882444Y212290D01*
X882531Y212268D01*
X882616Y212243D01*
X882701Y212215D01*
X882784Y212182D01*
X882866Y212146D01*
X882946Y212107D01*
X883024Y212064D01*
X883100Y212018D01*
X883175Y211968D01*
X883247Y211915D01*
X883316Y211859D01*
X883383Y211800D01*
X883448Y211739D01*
X883509Y211674D01*
X883568Y211607D01*
X883624Y211538D01*
X883677Y211466D01*
X883727Y211391D01*
X883773Y211315D01*
X883816Y211237D01*
X883855Y211157D01*
X883891Y211075D01*
X883924Y210992D01*
X883952Y210907D01*
X883977Y210822D01*
X883999Y210735D01*
X884016Y210647D01*
X884029Y210559D01*
X884039Y210470D01*
X884045Y210381D01*
X884047Y210292D01*
X884047Y208246D01*
X876681Y221957D02*
X876683Y222042D01*
X876689Y222127D01*
X876699Y222211D01*
X876712Y222295D01*
X876730Y222379D01*
X876751Y222461D01*
X876776Y222542D01*
X876805Y222622D01*
X876838Y222701D01*
X876874Y222778D01*
X876914Y222853D01*
X876957Y222927D01*
X877003Y222998D01*
X877053Y223067D01*
X877106Y223134D01*
X877162Y223198D01*
X877221Y223259D01*
X877282Y223318D01*
X877346Y223374D01*
X877413Y223427D01*
X877482Y223477D01*
X877553Y223523D01*
X877627Y223566D01*
X877702Y223606D01*
X877779Y223642D01*
X877858Y223675D01*
X877938Y223704D01*
X878019Y223729D01*
X878101Y223750D01*
X878185Y223768D01*
X878269Y223781D01*
X878353Y223791D01*
X878438Y223797D01*
X878523Y223799D01*
X876681Y221957D02*
X876683Y221861D01*
X876689Y221765D01*
X876699Y221670D01*
X876712Y221575D01*
X876730Y221480D01*
X876751Y221387D01*
X876776Y221294D01*
X876805Y221203D01*
X876837Y221112D01*
X876873Y221023D01*
X876913Y220936D01*
X876956Y220850D01*
X877002Y220766D01*
X877052Y220684D01*
X877106Y220604D01*
X877162Y220527D01*
X877222Y220452D01*
X877284Y220379D01*
X877350Y220309D01*
X877418Y220241D01*
X877489Y220176D01*
X877562Y220115D01*
X877638Y220056D01*
X877717Y220000D01*
X877797Y219948D01*
X877880Y219899D01*
X877964Y219853D01*
X878050Y219811D01*
X878138Y219773D01*
X878227Y219738D01*
X878318Y219706D01*
X879955Y223184D02*
X879896Y223244D01*
X879834Y223301D01*
X879770Y223356D01*
X879703Y223407D01*
X879634Y223456D01*
X879564Y223502D01*
X879491Y223545D01*
X879417Y223585D01*
X879341Y223621D01*
X879263Y223654D01*
X879184Y223684D01*
X879104Y223711D01*
X879023Y223734D01*
X878941Y223753D01*
X878859Y223769D01*
X878775Y223782D01*
X878691Y223791D01*
X878607Y223796D01*
X878523Y223798D01*
X879955Y223184D02*
X884047Y219706D01*
X884047Y223798D01*
X880364Y227021D02*
X880211Y227023D01*
X880058Y227029D01*
X879906Y227038D01*
X879753Y227052D01*
X879601Y227069D01*
X879450Y227090D01*
X879299Y227115D01*
X879149Y227144D01*
X878999Y227176D01*
X878851Y227213D01*
X878703Y227253D01*
X878556Y227296D01*
X878411Y227344D01*
X878267Y227395D01*
X878124Y227449D01*
X877982Y227508D01*
X877843Y227569D01*
X877704Y227635D01*
X877634Y227661D01*
X877564Y227691D01*
X877497Y227724D01*
X877431Y227760D01*
X877367Y227799D01*
X877305Y227842D01*
X877246Y227888D01*
X877188Y227936D01*
X877134Y227987D01*
X877081Y228041D01*
X877032Y228098D01*
X876985Y228157D01*
X876942Y228218D01*
X876901Y228281D01*
X876864Y228346D01*
X876829Y228413D01*
X876799Y228482D01*
X876771Y228552D01*
X876748Y228623D01*
X876727Y228695D01*
X876711Y228768D01*
X876698Y228842D01*
X876688Y228917D01*
X876683Y228992D01*
X876681Y229067D01*
X876683Y229142D01*
X876688Y229217D01*
X876698Y229292D01*
X876711Y229366D01*
X876727Y229439D01*
X876748Y229511D01*
X876771Y229582D01*
X876799Y229652D01*
X876829Y229721D01*
X876864Y229788D01*
X876901Y229853D01*
X876942Y229916D01*
X876985Y229977D01*
X877032Y230036D01*
X877081Y230093D01*
X877134Y230147D01*
X877188Y230198D01*
X877246Y230247D01*
X877305Y230292D01*
X877367Y230335D01*
X877431Y230374D01*
X877497Y230411D01*
X877565Y230443D01*
X877634Y230473D01*
X877704Y230499D01*
X877842Y230564D01*
X877982Y230626D01*
X878124Y230684D01*
X878267Y230739D01*
X878411Y230790D01*
X878556Y230838D01*
X878703Y230881D01*
X878850Y230921D01*
X878999Y230958D01*
X879149Y230990D01*
X879299Y231019D01*
X879450Y231044D01*
X879601Y231065D01*
X879753Y231082D01*
X879906Y231096D01*
X880058Y231105D01*
X880211Y231111D01*
X880364Y231113D01*
X880364Y227022D02*
X880517Y227024D01*
X880670Y227030D01*
X880822Y227039D01*
X880975Y227053D01*
X881127Y227070D01*
X881278Y227091D01*
X881429Y227116D01*
X881579Y227145D01*
X881729Y227177D01*
X881877Y227214D01*
X882025Y227254D01*
X882172Y227297D01*
X882317Y227345D01*
X882461Y227396D01*
X882604Y227450D01*
X882746Y227509D01*
X882885Y227570D01*
X883024Y227636D01*
X883024Y227635D02*
X883095Y227661D01*
X883164Y227691D01*
X883231Y227724D01*
X883297Y227760D01*
X883361Y227799D01*
X883423Y227842D01*
X883482Y227888D01*
X883540Y227936D01*
X883594Y227987D01*
X883647Y228041D01*
X883696Y228098D01*
X883743Y228157D01*
X883786Y228218D01*
X883827Y228281D01*
X883864Y228346D01*
X883899Y228413D01*
X883929Y228482D01*
X883957Y228552D01*
X883980Y228623D01*
X884001Y228695D01*
X884017Y228768D01*
X884030Y228842D01*
X884040Y228917D01*
X884045Y228992D01*
X884047Y229067D01*
X883024Y230499D02*
X882886Y230564D01*
X882746Y230626D01*
X882604Y230684D01*
X882461Y230739D01*
X882317Y230790D01*
X882172Y230838D01*
X882025Y230881D01*
X881878Y230921D01*
X881729Y230958D01*
X881579Y230990D01*
X881429Y231019D01*
X881278Y231044D01*
X881127Y231065D01*
X880975Y231082D01*
X880822Y231096D01*
X880670Y231105D01*
X880517Y231111D01*
X880364Y231113D01*
X883024Y230499D02*
X883094Y230473D01*
X883164Y230443D01*
X883231Y230410D01*
X883297Y230374D01*
X883361Y230335D01*
X883423Y230292D01*
X883482Y230246D01*
X883540Y230198D01*
X883594Y230147D01*
X883647Y230093D01*
X883696Y230036D01*
X883743Y229977D01*
X883786Y229916D01*
X883827Y229853D01*
X883864Y229788D01*
X883899Y229721D01*
X883929Y229652D01*
X883957Y229582D01*
X883980Y229511D01*
X884001Y229439D01*
X884017Y229366D01*
X884030Y229292D01*
X884040Y229217D01*
X884045Y229142D01*
X884047Y229067D01*
X882410Y227430D02*
X878318Y230704D01*
X876681Y236587D02*
X876683Y236672D01*
X876689Y236757D01*
X876699Y236841D01*
X876712Y236925D01*
X876730Y237009D01*
X876751Y237091D01*
X876776Y237172D01*
X876805Y237252D01*
X876838Y237331D01*
X876874Y237408D01*
X876914Y237483D01*
X876957Y237557D01*
X877003Y237628D01*
X877053Y237697D01*
X877106Y237764D01*
X877162Y237828D01*
X877221Y237889D01*
X877282Y237948D01*
X877346Y238004D01*
X877413Y238057D01*
X877482Y238107D01*
X877553Y238153D01*
X877627Y238196D01*
X877702Y238236D01*
X877779Y238272D01*
X877858Y238305D01*
X877938Y238334D01*
X878019Y238359D01*
X878101Y238380D01*
X878185Y238398D01*
X878269Y238411D01*
X878353Y238421D01*
X878438Y238427D01*
X878523Y238429D01*
X876681Y236587D02*
X876683Y236491D01*
X876689Y236395D01*
X876699Y236300D01*
X876712Y236205D01*
X876730Y236110D01*
X876751Y236017D01*
X876776Y235924D01*
X876805Y235833D01*
X876837Y235742D01*
X876873Y235653D01*
X876913Y235566D01*
X876956Y235480D01*
X877002Y235396D01*
X877052Y235314D01*
X877106Y235234D01*
X877162Y235157D01*
X877222Y235082D01*
X877284Y235009D01*
X877350Y234939D01*
X877418Y234871D01*
X877489Y234806D01*
X877562Y234745D01*
X877638Y234686D01*
X877717Y234630D01*
X877797Y234578D01*
X877880Y234529D01*
X877964Y234483D01*
X878050Y234441D01*
X878138Y234403D01*
X878227Y234368D01*
X878318Y234336D01*
X879955Y237815D02*
X879896Y237875D01*
X879834Y237932D01*
X879770Y237987D01*
X879703Y238038D01*
X879634Y238087D01*
X879564Y238133D01*
X879491Y238176D01*
X879417Y238216D01*
X879341Y238252D01*
X879263Y238285D01*
X879184Y238315D01*
X879104Y238342D01*
X879023Y238365D01*
X878941Y238384D01*
X878859Y238400D01*
X878775Y238413D01*
X878691Y238422D01*
X878607Y238427D01*
X878523Y238429D01*
X879955Y237815D02*
X884047Y234336D01*
X884047Y238429D01*
X878318Y241652D02*
X876681Y243698D01*
X884047Y243698D01*
X884047Y241652D02*
X884047Y245744D01*
X678067Y397383D02*
X676021Y395746D01*
X678067Y397383D02*
X678067Y390017D01*
X676021Y390017D02*
X680113Y390017D01*
D13*
X632460Y215900D02*
X627380Y215900D01*
X632460Y215900D02*
X632460Y190500D01*
X627380Y190500D01*
X596900Y190500D02*
X586740Y190500D01*
X594360Y193040D02*
X596900Y190500D01*
X594360Y187960D01*
X596900Y165100D02*
X586740Y165100D01*
X589280Y167640D01*
X586740Y165100D02*
X589280Y162560D01*
D12*
X577427Y174117D02*
X575790Y174117D01*
X575712Y174119D01*
X575634Y174124D01*
X575557Y174134D01*
X575480Y174147D01*
X575404Y174163D01*
X575329Y174183D01*
X575255Y174207D01*
X575182Y174234D01*
X575110Y174265D01*
X575040Y174299D01*
X574972Y174336D01*
X574905Y174377D01*
X574840Y174421D01*
X574778Y174467D01*
X574718Y174517D01*
X574660Y174569D01*
X574605Y174624D01*
X574553Y174682D01*
X574503Y174742D01*
X574457Y174804D01*
X574413Y174869D01*
X574372Y174936D01*
X574335Y175004D01*
X574301Y175074D01*
X574270Y175146D01*
X574243Y175219D01*
X574219Y175293D01*
X574199Y175368D01*
X574183Y175444D01*
X574170Y175521D01*
X574160Y175598D01*
X574155Y175676D01*
X574153Y175754D01*
X574154Y175754D02*
X574154Y179846D01*
X574153Y179846D02*
X574155Y179926D01*
X574161Y180006D01*
X574171Y180086D01*
X574184Y180165D01*
X574202Y180244D01*
X574223Y180321D01*
X574249Y180397D01*
X574278Y180472D01*
X574310Y180546D01*
X574346Y180618D01*
X574386Y180688D01*
X574429Y180755D01*
X574475Y180821D01*
X574525Y180884D01*
X574577Y180945D01*
X574632Y181004D01*
X574691Y181059D01*
X574751Y181111D01*
X574815Y181161D01*
X574881Y181207D01*
X574948Y181250D01*
X575018Y181290D01*
X575090Y181326D01*
X575164Y181358D01*
X575238Y181387D01*
X575315Y181413D01*
X575392Y181434D01*
X575471Y181452D01*
X575550Y181465D01*
X575630Y181475D01*
X575710Y181481D01*
X575790Y181483D01*
X577427Y181483D01*
X580273Y179437D02*
X580273Y176163D01*
X580273Y179437D02*
X580275Y179526D01*
X580281Y179615D01*
X580291Y179704D01*
X580304Y179792D01*
X580321Y179880D01*
X580343Y179967D01*
X580368Y180052D01*
X580396Y180137D01*
X580429Y180220D01*
X580465Y180302D01*
X580504Y180382D01*
X580547Y180460D01*
X580593Y180536D01*
X580643Y180611D01*
X580696Y180683D01*
X580752Y180752D01*
X580811Y180819D01*
X580872Y180884D01*
X580937Y180945D01*
X581004Y181004D01*
X581073Y181060D01*
X581145Y181113D01*
X581220Y181163D01*
X581296Y181209D01*
X581374Y181252D01*
X581454Y181291D01*
X581536Y181327D01*
X581619Y181360D01*
X581704Y181388D01*
X581789Y181413D01*
X581876Y181435D01*
X581964Y181452D01*
X582052Y181465D01*
X582141Y181475D01*
X582230Y181481D01*
X582319Y181483D01*
X582408Y181481D01*
X582497Y181475D01*
X582586Y181465D01*
X582674Y181452D01*
X582762Y181435D01*
X582849Y181413D01*
X582934Y181388D01*
X583019Y181360D01*
X583102Y181327D01*
X583184Y181291D01*
X583264Y181252D01*
X583342Y181209D01*
X583418Y181163D01*
X583493Y181113D01*
X583565Y181060D01*
X583634Y181004D01*
X583701Y180945D01*
X583766Y180884D01*
X583827Y180819D01*
X583886Y180752D01*
X583942Y180683D01*
X583995Y180611D01*
X584045Y180536D01*
X584091Y180460D01*
X584134Y180382D01*
X584173Y180302D01*
X584209Y180220D01*
X584242Y180137D01*
X584270Y180052D01*
X584295Y179967D01*
X584317Y179880D01*
X584334Y179792D01*
X584347Y179704D01*
X584357Y179615D01*
X584363Y179526D01*
X584365Y179437D01*
X584365Y176163D01*
X584363Y176074D01*
X584357Y175985D01*
X584347Y175896D01*
X584334Y175808D01*
X584317Y175720D01*
X584295Y175633D01*
X584270Y175548D01*
X584242Y175463D01*
X584209Y175380D01*
X584173Y175298D01*
X584134Y175218D01*
X584091Y175140D01*
X584045Y175064D01*
X583995Y174989D01*
X583942Y174917D01*
X583886Y174848D01*
X583827Y174781D01*
X583766Y174716D01*
X583701Y174655D01*
X583634Y174596D01*
X583565Y174540D01*
X583493Y174487D01*
X583418Y174437D01*
X583342Y174391D01*
X583264Y174348D01*
X583184Y174309D01*
X583102Y174273D01*
X583019Y174240D01*
X582934Y174212D01*
X582849Y174187D01*
X582762Y174165D01*
X582674Y174148D01*
X582586Y174135D01*
X582497Y174125D01*
X582408Y174119D01*
X582319Y174117D01*
X582230Y174119D01*
X582141Y174125D01*
X582052Y174135D01*
X581964Y174148D01*
X581876Y174165D01*
X581789Y174187D01*
X581704Y174212D01*
X581619Y174240D01*
X581536Y174273D01*
X581454Y174309D01*
X581374Y174348D01*
X581296Y174391D01*
X581220Y174437D01*
X581145Y174487D01*
X581073Y174540D01*
X581004Y174596D01*
X580937Y174655D01*
X580872Y174716D01*
X580811Y174781D01*
X580752Y174848D01*
X580696Y174917D01*
X580643Y174989D01*
X580593Y175064D01*
X580547Y175140D01*
X580504Y175218D01*
X580465Y175298D01*
X580429Y175380D01*
X580396Y175463D01*
X580368Y175548D01*
X580343Y175633D01*
X580321Y175720D01*
X580304Y175808D01*
X580291Y175896D01*
X580281Y175985D01*
X580275Y176074D01*
X580273Y176163D01*
X587910Y174117D02*
X587910Y181483D01*
X590365Y177391D01*
X592821Y181483D01*
X592821Y174117D01*
X596688Y174117D02*
X596688Y181483D01*
X599144Y177391D01*
X601599Y181483D01*
X601599Y174117D01*
X635381Y189367D02*
X642747Y189367D01*
X642747Y193459D02*
X635381Y189367D01*
X635381Y193459D02*
X642747Y193459D01*
X640701Y196926D02*
X637427Y196926D01*
X637338Y196928D01*
X637249Y196934D01*
X637160Y196944D01*
X637072Y196957D01*
X636984Y196974D01*
X636897Y196996D01*
X636812Y197021D01*
X636727Y197049D01*
X636644Y197082D01*
X636562Y197118D01*
X636482Y197157D01*
X636404Y197200D01*
X636328Y197246D01*
X636253Y197296D01*
X636181Y197349D01*
X636112Y197405D01*
X636045Y197464D01*
X635980Y197525D01*
X635919Y197590D01*
X635860Y197657D01*
X635804Y197726D01*
X635751Y197798D01*
X635701Y197873D01*
X635655Y197949D01*
X635612Y198027D01*
X635573Y198107D01*
X635537Y198189D01*
X635504Y198272D01*
X635476Y198357D01*
X635451Y198442D01*
X635429Y198529D01*
X635412Y198617D01*
X635399Y198705D01*
X635389Y198794D01*
X635383Y198883D01*
X635381Y198972D01*
X635383Y199061D01*
X635389Y199150D01*
X635399Y199239D01*
X635412Y199327D01*
X635429Y199415D01*
X635451Y199502D01*
X635476Y199587D01*
X635504Y199672D01*
X635537Y199755D01*
X635573Y199837D01*
X635612Y199917D01*
X635655Y199995D01*
X635701Y200071D01*
X635751Y200146D01*
X635804Y200218D01*
X635860Y200287D01*
X635919Y200354D01*
X635980Y200419D01*
X636045Y200480D01*
X636112Y200539D01*
X636181Y200595D01*
X636253Y200648D01*
X636328Y200698D01*
X636404Y200744D01*
X636482Y200787D01*
X636562Y200826D01*
X636644Y200862D01*
X636727Y200895D01*
X636812Y200923D01*
X636897Y200948D01*
X636984Y200970D01*
X637072Y200987D01*
X637160Y201000D01*
X637249Y201010D01*
X637338Y201016D01*
X637427Y201018D01*
X640701Y201018D01*
X640790Y201016D01*
X640879Y201010D01*
X640968Y201000D01*
X641056Y200987D01*
X641144Y200970D01*
X641231Y200948D01*
X641316Y200923D01*
X641401Y200895D01*
X641484Y200862D01*
X641566Y200826D01*
X641646Y200787D01*
X641724Y200744D01*
X641800Y200698D01*
X641875Y200648D01*
X641947Y200595D01*
X642016Y200539D01*
X642083Y200480D01*
X642148Y200419D01*
X642209Y200354D01*
X642268Y200287D01*
X642324Y200218D01*
X642377Y200146D01*
X642427Y200071D01*
X642473Y199995D01*
X642516Y199917D01*
X642555Y199837D01*
X642591Y199755D01*
X642624Y199672D01*
X642652Y199587D01*
X642677Y199502D01*
X642699Y199415D01*
X642716Y199327D01*
X642729Y199239D01*
X642739Y199150D01*
X642745Y199061D01*
X642747Y198972D01*
X642745Y198883D01*
X642739Y198794D01*
X642729Y198705D01*
X642716Y198617D01*
X642699Y198529D01*
X642677Y198442D01*
X642652Y198357D01*
X642624Y198272D01*
X642591Y198189D01*
X642555Y198107D01*
X642516Y198027D01*
X642473Y197949D01*
X642427Y197873D01*
X642377Y197798D01*
X642324Y197726D01*
X642268Y197657D01*
X642209Y197590D01*
X642148Y197525D01*
X642083Y197464D01*
X642016Y197405D01*
X641947Y197349D01*
X641875Y197296D01*
X641800Y197246D01*
X641724Y197200D01*
X641646Y197157D01*
X641566Y197118D01*
X641484Y197082D01*
X641401Y197049D01*
X641316Y197021D01*
X641231Y196996D01*
X641144Y196974D01*
X641056Y196957D01*
X640968Y196944D01*
X640879Y196934D01*
X640790Y196928D01*
X640701Y196926D01*
X642747Y204536D02*
X635381Y204536D01*
X635381Y206582D01*
X635383Y206671D01*
X635389Y206760D01*
X635399Y206849D01*
X635412Y206937D01*
X635429Y207025D01*
X635451Y207112D01*
X635476Y207197D01*
X635504Y207282D01*
X635537Y207365D01*
X635573Y207447D01*
X635612Y207527D01*
X635655Y207605D01*
X635701Y207681D01*
X635751Y207756D01*
X635804Y207828D01*
X635860Y207897D01*
X635919Y207964D01*
X635980Y208029D01*
X636045Y208090D01*
X636112Y208149D01*
X636181Y208205D01*
X636253Y208258D01*
X636328Y208308D01*
X636404Y208354D01*
X636482Y208397D01*
X636562Y208436D01*
X636644Y208472D01*
X636727Y208505D01*
X636812Y208533D01*
X636897Y208558D01*
X636984Y208580D01*
X637072Y208597D01*
X637160Y208610D01*
X637249Y208620D01*
X637338Y208626D01*
X637427Y208628D01*
X637516Y208626D01*
X637605Y208620D01*
X637694Y208610D01*
X637782Y208597D01*
X637870Y208580D01*
X637957Y208558D01*
X638042Y208533D01*
X638127Y208505D01*
X638210Y208472D01*
X638292Y208436D01*
X638372Y208397D01*
X638450Y208354D01*
X638526Y208308D01*
X638601Y208258D01*
X638673Y208205D01*
X638742Y208149D01*
X638809Y208090D01*
X638874Y208029D01*
X638935Y207964D01*
X638994Y207897D01*
X639050Y207828D01*
X639103Y207756D01*
X639153Y207681D01*
X639199Y207605D01*
X639242Y207527D01*
X639281Y207447D01*
X639317Y207365D01*
X639350Y207282D01*
X639378Y207197D01*
X639403Y207112D01*
X639425Y207025D01*
X639442Y206937D01*
X639455Y206849D01*
X639465Y206760D01*
X639471Y206671D01*
X639473Y206582D01*
X639473Y204536D01*
X639473Y206991D02*
X642747Y208628D01*
X642747Y212122D02*
X635381Y212122D01*
X639473Y214578D01*
X635381Y217033D01*
X642747Y217033D01*
D13*
X708660Y25400D02*
X708660Y0D01*
X708660Y25400D02*
X764540Y25400D01*
X764540Y0D01*
X647700Y0D02*
X647700Y25400D01*
X647700Y406400D01*
X647700Y431800D01*
X825500Y431800D02*
X825500Y406400D01*
X825500Y25400D01*
X825500Y0D01*
X825500Y406400D02*
X800100Y406400D01*
X673100Y406400D02*
X647700Y406400D01*
X673100Y406400D02*
X673100Y25400D01*
X647700Y25400D01*
D12*
X637667Y108392D02*
X637667Y110847D01*
X637665Y110925D01*
X637660Y111003D01*
X637650Y111080D01*
X637637Y111157D01*
X637621Y111233D01*
X637601Y111308D01*
X637577Y111382D01*
X637550Y111455D01*
X637519Y111527D01*
X637485Y111597D01*
X637448Y111666D01*
X637407Y111732D01*
X637363Y111797D01*
X637317Y111859D01*
X637267Y111919D01*
X637215Y111977D01*
X637160Y112032D01*
X637102Y112084D01*
X637042Y112134D01*
X636980Y112180D01*
X636915Y112224D01*
X636849Y112265D01*
X636780Y112302D01*
X636710Y112336D01*
X636638Y112367D01*
X636565Y112394D01*
X636491Y112418D01*
X636416Y112438D01*
X636340Y112454D01*
X636263Y112467D01*
X636186Y112477D01*
X636108Y112482D01*
X636030Y112484D01*
X635212Y112484D01*
X635132Y112482D01*
X635052Y112476D01*
X634972Y112466D01*
X634893Y112453D01*
X634814Y112435D01*
X634737Y112414D01*
X634661Y112388D01*
X634586Y112359D01*
X634512Y112327D01*
X634440Y112291D01*
X634370Y112251D01*
X634303Y112208D01*
X634237Y112162D01*
X634174Y112112D01*
X634113Y112060D01*
X634054Y112005D01*
X633999Y111946D01*
X633947Y111886D01*
X633897Y111822D01*
X633851Y111756D01*
X633808Y111689D01*
X633768Y111619D01*
X633732Y111547D01*
X633700Y111473D01*
X633671Y111399D01*
X633645Y111322D01*
X633624Y111245D01*
X633606Y111166D01*
X633593Y111087D01*
X633583Y111007D01*
X633577Y110927D01*
X633575Y110847D01*
X633575Y108392D01*
X630301Y108392D01*
X630301Y112484D01*
X630301Y115298D02*
X637667Y117753D01*
X630301Y120208D01*
X879743Y311277D02*
X883017Y311277D01*
X879743Y311277D02*
X879743Y318643D01*
X883017Y318643D01*
X882198Y315369D02*
X879743Y315369D01*
X878840Y373789D02*
X876794Y373789D01*
X878840Y373789D02*
X878929Y373787D01*
X879018Y373781D01*
X879107Y373771D01*
X879195Y373758D01*
X879283Y373741D01*
X879370Y373719D01*
X879455Y373694D01*
X879540Y373666D01*
X879623Y373633D01*
X879705Y373597D01*
X879785Y373558D01*
X879863Y373515D01*
X879939Y373469D01*
X880014Y373419D01*
X880086Y373366D01*
X880155Y373310D01*
X880222Y373251D01*
X880287Y373190D01*
X880348Y373125D01*
X880407Y373058D01*
X880463Y372989D01*
X880516Y372917D01*
X880566Y372842D01*
X880612Y372766D01*
X880655Y372688D01*
X880694Y372608D01*
X880730Y372526D01*
X880763Y372443D01*
X880791Y372358D01*
X880816Y372273D01*
X880838Y372186D01*
X880855Y372098D01*
X880868Y372010D01*
X880878Y371921D01*
X880884Y371832D01*
X880886Y371743D01*
X880884Y371654D01*
X880878Y371565D01*
X880868Y371476D01*
X880855Y371388D01*
X880838Y371300D01*
X880816Y371213D01*
X880791Y371128D01*
X880763Y371043D01*
X880730Y370960D01*
X880694Y370878D01*
X880655Y370798D01*
X880612Y370720D01*
X880566Y370644D01*
X880516Y370569D01*
X880463Y370497D01*
X880407Y370428D01*
X880348Y370361D01*
X880287Y370296D01*
X880222Y370235D01*
X880155Y370176D01*
X880086Y370120D01*
X880014Y370067D01*
X879939Y370017D01*
X879863Y369971D01*
X879785Y369928D01*
X879705Y369889D01*
X879623Y369853D01*
X879540Y369820D01*
X879455Y369792D01*
X879370Y369767D01*
X879283Y369745D01*
X879195Y369728D01*
X879107Y369715D01*
X879018Y369705D01*
X878929Y369699D01*
X878840Y369697D01*
X876794Y369697D01*
X876794Y377063D01*
X878840Y377063D01*
X878919Y377061D01*
X878998Y377055D01*
X879077Y377046D01*
X879155Y377033D01*
X879232Y377015D01*
X879308Y376995D01*
X879383Y376970D01*
X879457Y376942D01*
X879530Y376911D01*
X879601Y376875D01*
X879670Y376837D01*
X879737Y376795D01*
X879802Y376750D01*
X879865Y376702D01*
X879926Y376651D01*
X879983Y376597D01*
X880039Y376541D01*
X880091Y376482D01*
X880141Y376420D01*
X880187Y376356D01*
X880231Y376290D01*
X880271Y376222D01*
X880307Y376152D01*
X880341Y376080D01*
X880371Y376006D01*
X880397Y375932D01*
X880420Y375856D01*
X880438Y375779D01*
X880454Y375702D01*
X880465Y375623D01*
X880473Y375545D01*
X880477Y375466D01*
X880477Y375386D01*
X880473Y375307D01*
X880465Y375229D01*
X880454Y375150D01*
X880438Y375073D01*
X880420Y374996D01*
X880397Y374920D01*
X880371Y374846D01*
X880341Y374772D01*
X880307Y374700D01*
X880271Y374630D01*
X880231Y374562D01*
X880187Y374496D01*
X880141Y374432D01*
X880091Y374370D01*
X880039Y374311D01*
X879983Y374255D01*
X879926Y374201D01*
X879865Y374150D01*
X879802Y374102D01*
X879737Y374057D01*
X879670Y374015D01*
X879601Y373977D01*
X879530Y373941D01*
X879457Y373910D01*
X879383Y373882D01*
X879308Y373857D01*
X879232Y373837D01*
X879155Y373819D01*
X879077Y373806D01*
X878998Y373797D01*
X878919Y373791D01*
X878840Y373789D01*
X837297Y369697D02*
X835660Y369697D01*
X835582Y369699D01*
X835504Y369704D01*
X835427Y369714D01*
X835350Y369727D01*
X835274Y369743D01*
X835199Y369763D01*
X835125Y369787D01*
X835052Y369814D01*
X834980Y369845D01*
X834910Y369879D01*
X834842Y369916D01*
X834775Y369957D01*
X834710Y370001D01*
X834648Y370047D01*
X834588Y370097D01*
X834530Y370149D01*
X834475Y370204D01*
X834423Y370262D01*
X834373Y370322D01*
X834327Y370384D01*
X834283Y370449D01*
X834242Y370516D01*
X834205Y370584D01*
X834171Y370654D01*
X834140Y370726D01*
X834113Y370799D01*
X834089Y370873D01*
X834069Y370948D01*
X834053Y371024D01*
X834040Y371101D01*
X834030Y371178D01*
X834025Y371256D01*
X834023Y371334D01*
X834023Y375426D01*
X834025Y375506D01*
X834031Y375586D01*
X834041Y375666D01*
X834054Y375745D01*
X834072Y375824D01*
X834093Y375901D01*
X834119Y375977D01*
X834148Y376052D01*
X834180Y376126D01*
X834216Y376198D01*
X834256Y376268D01*
X834299Y376335D01*
X834345Y376401D01*
X834395Y376464D01*
X834447Y376525D01*
X834502Y376584D01*
X834561Y376639D01*
X834621Y376691D01*
X834685Y376741D01*
X834751Y376787D01*
X834818Y376830D01*
X834888Y376870D01*
X834960Y376906D01*
X835034Y376938D01*
X835108Y376967D01*
X835185Y376993D01*
X835262Y377014D01*
X835341Y377032D01*
X835420Y377045D01*
X835500Y377055D01*
X835580Y377061D01*
X835660Y377063D01*
X837297Y377063D01*
D10*
X872405Y114272D02*
X880195Y114272D01*
X876300Y118166D02*
X876300Y110377D01*
D13*
X800100Y25400D02*
X800100Y406400D01*
X800100Y25400D02*
X825500Y25400D01*
X601980Y297180D02*
X601980Y337820D01*
X601980Y297180D02*
X627380Y297180D01*
X627380Y337820D01*
X601980Y337820D01*
X614680Y323850D02*
X614680Y317500D01*
X621030Y307340D02*
X608330Y307340D01*
X614680Y317500D01*
X614680Y302260D01*
X621030Y307340D02*
X614680Y317500D01*
X621030Y317500D01*
X614680Y317500D02*
X608330Y317500D01*
D14*
X614680Y331470D03*
D15*
X614680Y287655D03*
X614680Y347345D03*
D12*
X633123Y304794D02*
X633123Y302339D01*
X633121Y302261D01*
X633116Y302183D01*
X633106Y302106D01*
X633093Y302029D01*
X633077Y301953D01*
X633057Y301878D01*
X633033Y301804D01*
X633006Y301731D01*
X632975Y301659D01*
X632941Y301589D01*
X632904Y301521D01*
X632863Y301454D01*
X632819Y301389D01*
X632773Y301327D01*
X632723Y301267D01*
X632671Y301209D01*
X632616Y301154D01*
X632558Y301102D01*
X632498Y301052D01*
X632436Y301006D01*
X632371Y300962D01*
X632305Y300921D01*
X632236Y300884D01*
X632166Y300850D01*
X632094Y300819D01*
X632021Y300792D01*
X631947Y300768D01*
X631872Y300748D01*
X631796Y300732D01*
X631719Y300719D01*
X631642Y300709D01*
X631564Y300704D01*
X631486Y300702D01*
X631077Y300702D01*
X630988Y300704D01*
X630899Y300710D01*
X630810Y300720D01*
X630722Y300733D01*
X630634Y300750D01*
X630547Y300772D01*
X630462Y300797D01*
X630377Y300825D01*
X630294Y300858D01*
X630212Y300894D01*
X630132Y300933D01*
X630054Y300976D01*
X629978Y301022D01*
X629903Y301072D01*
X629831Y301125D01*
X629762Y301181D01*
X629695Y301240D01*
X629630Y301301D01*
X629569Y301366D01*
X629510Y301433D01*
X629454Y301502D01*
X629401Y301574D01*
X629351Y301649D01*
X629305Y301725D01*
X629262Y301803D01*
X629223Y301883D01*
X629187Y301965D01*
X629154Y302048D01*
X629126Y302133D01*
X629101Y302218D01*
X629079Y302305D01*
X629062Y302393D01*
X629049Y302481D01*
X629039Y302570D01*
X629033Y302659D01*
X629031Y302748D01*
X629033Y302837D01*
X629039Y302926D01*
X629049Y303015D01*
X629062Y303103D01*
X629079Y303191D01*
X629101Y303278D01*
X629126Y303363D01*
X629154Y303448D01*
X629187Y303531D01*
X629223Y303613D01*
X629262Y303693D01*
X629305Y303771D01*
X629351Y303847D01*
X629401Y303922D01*
X629454Y303994D01*
X629510Y304063D01*
X629569Y304130D01*
X629630Y304195D01*
X629695Y304256D01*
X629762Y304315D01*
X629831Y304371D01*
X629903Y304424D01*
X629978Y304474D01*
X630054Y304520D01*
X630132Y304563D01*
X630212Y304602D01*
X630294Y304638D01*
X630377Y304671D01*
X630462Y304699D01*
X630547Y304724D01*
X630634Y304746D01*
X630722Y304763D01*
X630810Y304776D01*
X630899Y304786D01*
X630988Y304792D01*
X631077Y304794D01*
X633123Y304794D01*
X633235Y304792D01*
X633346Y304786D01*
X633458Y304777D01*
X633569Y304764D01*
X633679Y304746D01*
X633789Y304726D01*
X633898Y304701D01*
X634006Y304673D01*
X634113Y304641D01*
X634219Y304605D01*
X634324Y304566D01*
X634427Y304523D01*
X634529Y304477D01*
X634629Y304427D01*
X634728Y304374D01*
X634824Y304317D01*
X634919Y304258D01*
X635011Y304195D01*
X635101Y304129D01*
X635189Y304060D01*
X635275Y303988D01*
X635358Y303913D01*
X635438Y303835D01*
X635516Y303755D01*
X635591Y303672D01*
X635663Y303586D01*
X635732Y303498D01*
X635798Y303408D01*
X635861Y303316D01*
X635920Y303221D01*
X635977Y303125D01*
X636030Y303026D01*
X636080Y302926D01*
X636126Y302824D01*
X636169Y302721D01*
X636208Y302616D01*
X636244Y302510D01*
X636276Y302403D01*
X636304Y302295D01*
X636329Y302186D01*
X636349Y302076D01*
X636367Y301966D01*
X636380Y301855D01*
X636389Y301743D01*
X636395Y301632D01*
X636397Y301520D01*
X636397Y310063D02*
X629031Y307608D01*
X629031Y312518D02*
X636397Y310063D01*
X636397Y314979D02*
X635988Y314979D01*
X635988Y315388D01*
X636397Y315388D01*
X636397Y314979D01*
X636397Y320304D02*
X629031Y317849D01*
X629031Y322759D02*
X636397Y320304D01*
X636397Y326156D02*
X629031Y326156D01*
X636397Y325338D02*
X636397Y326975D01*
X629031Y326975D02*
X629031Y325338D01*
X629031Y330206D02*
X636397Y330206D01*
X636397Y334298D02*
X629031Y330206D01*
X629031Y334298D02*
X636397Y334298D01*
D13*
X783590Y247650D02*
X783690Y247648D01*
X783789Y247642D01*
X783889Y247632D01*
X783987Y247619D01*
X784086Y247601D01*
X784183Y247580D01*
X784279Y247555D01*
X784375Y247526D01*
X784469Y247493D01*
X784562Y247457D01*
X784653Y247417D01*
X784743Y247373D01*
X784831Y247326D01*
X784917Y247276D01*
X785001Y247222D01*
X785083Y247165D01*
X785162Y247105D01*
X785240Y247041D01*
X785314Y246975D01*
X785386Y246906D01*
X785455Y246834D01*
X785521Y246760D01*
X785585Y246682D01*
X785645Y246603D01*
X785702Y246521D01*
X785756Y246437D01*
X785806Y246351D01*
X785853Y246263D01*
X785897Y246173D01*
X785937Y246082D01*
X785973Y245989D01*
X786006Y245895D01*
X786035Y245799D01*
X786060Y245703D01*
X786081Y245606D01*
X786099Y245507D01*
X786112Y245409D01*
X786122Y245309D01*
X786128Y245210D01*
X786130Y245110D01*
X765810Y247650D02*
X765710Y247648D01*
X765611Y247642D01*
X765511Y247632D01*
X765413Y247619D01*
X765314Y247601D01*
X765217Y247580D01*
X765121Y247555D01*
X765025Y247526D01*
X764931Y247493D01*
X764838Y247457D01*
X764747Y247417D01*
X764657Y247373D01*
X764569Y247326D01*
X764483Y247276D01*
X764399Y247222D01*
X764317Y247165D01*
X764238Y247105D01*
X764160Y247041D01*
X764086Y246975D01*
X764014Y246906D01*
X763945Y246834D01*
X763879Y246760D01*
X763815Y246682D01*
X763755Y246603D01*
X763698Y246521D01*
X763644Y246437D01*
X763594Y246351D01*
X763547Y246263D01*
X763503Y246173D01*
X763463Y246082D01*
X763427Y245989D01*
X763394Y245895D01*
X763365Y245799D01*
X763340Y245703D01*
X763319Y245606D01*
X763301Y245507D01*
X763288Y245409D01*
X763278Y245309D01*
X763272Y245210D01*
X763270Y245110D01*
X763270Y186690D02*
X763272Y186590D01*
X763278Y186491D01*
X763288Y186391D01*
X763301Y186293D01*
X763319Y186194D01*
X763340Y186097D01*
X763365Y186001D01*
X763394Y185905D01*
X763427Y185811D01*
X763463Y185718D01*
X763503Y185627D01*
X763547Y185537D01*
X763594Y185449D01*
X763644Y185363D01*
X763698Y185279D01*
X763755Y185197D01*
X763815Y185118D01*
X763879Y185040D01*
X763945Y184966D01*
X764014Y184894D01*
X764086Y184825D01*
X764160Y184759D01*
X764238Y184695D01*
X764317Y184635D01*
X764399Y184578D01*
X764483Y184524D01*
X764569Y184474D01*
X764657Y184427D01*
X764747Y184383D01*
X764838Y184343D01*
X764931Y184307D01*
X765025Y184274D01*
X765121Y184245D01*
X765217Y184220D01*
X765314Y184199D01*
X765413Y184181D01*
X765511Y184168D01*
X765611Y184158D01*
X765710Y184152D01*
X765810Y184150D01*
X783590Y184150D02*
X783690Y184152D01*
X783789Y184158D01*
X783889Y184168D01*
X783987Y184181D01*
X784086Y184199D01*
X784183Y184220D01*
X784279Y184245D01*
X784375Y184274D01*
X784469Y184307D01*
X784562Y184343D01*
X784653Y184383D01*
X784743Y184427D01*
X784831Y184474D01*
X784917Y184524D01*
X785001Y184578D01*
X785083Y184635D01*
X785162Y184695D01*
X785240Y184759D01*
X785314Y184825D01*
X785386Y184894D01*
X785455Y184966D01*
X785521Y185040D01*
X785585Y185118D01*
X785645Y185197D01*
X785702Y185279D01*
X785756Y185363D01*
X785806Y185449D01*
X785853Y185537D01*
X785897Y185627D01*
X785937Y185718D01*
X785973Y185811D01*
X786006Y185905D01*
X786035Y186001D01*
X786060Y186097D01*
X786081Y186194D01*
X786099Y186293D01*
X786112Y186391D01*
X786122Y186491D01*
X786128Y186590D01*
X786130Y186690D01*
X783590Y247650D02*
X765810Y247650D01*
X786130Y245110D02*
X786130Y241300D01*
X784860Y240030D01*
X763270Y241300D02*
X763270Y245110D01*
X763270Y241300D02*
X764540Y240030D01*
X784860Y191770D02*
X786130Y190500D01*
X784860Y191770D02*
X784860Y240030D01*
X764540Y191770D02*
X763270Y190500D01*
X764540Y191770D02*
X764540Y240030D01*
X786130Y190500D02*
X786130Y186690D01*
X763270Y186690D02*
X763270Y190500D01*
X765810Y184150D02*
X783590Y184150D01*
D16*
X774700Y179832D03*
X774700Y251968D03*
D12*
X778383Y191191D02*
X771017Y191191D01*
X771017Y193237D01*
X771019Y193326D01*
X771025Y193415D01*
X771035Y193504D01*
X771048Y193592D01*
X771065Y193680D01*
X771087Y193767D01*
X771112Y193852D01*
X771140Y193937D01*
X771173Y194020D01*
X771209Y194102D01*
X771248Y194182D01*
X771291Y194260D01*
X771337Y194336D01*
X771387Y194411D01*
X771440Y194483D01*
X771496Y194552D01*
X771555Y194619D01*
X771616Y194684D01*
X771681Y194745D01*
X771748Y194804D01*
X771817Y194860D01*
X771889Y194913D01*
X771964Y194963D01*
X772040Y195009D01*
X772118Y195052D01*
X772198Y195091D01*
X772280Y195127D01*
X772363Y195160D01*
X772448Y195188D01*
X772533Y195213D01*
X772620Y195235D01*
X772708Y195252D01*
X772796Y195265D01*
X772885Y195275D01*
X772974Y195281D01*
X773063Y195283D01*
X773063Y195284D02*
X776337Y195284D01*
X776337Y195283D02*
X776426Y195281D01*
X776515Y195275D01*
X776604Y195265D01*
X776692Y195252D01*
X776780Y195235D01*
X776867Y195213D01*
X776952Y195188D01*
X777037Y195160D01*
X777120Y195127D01*
X777202Y195091D01*
X777282Y195052D01*
X777360Y195009D01*
X777436Y194963D01*
X777511Y194913D01*
X777583Y194860D01*
X777652Y194804D01*
X777719Y194745D01*
X777784Y194684D01*
X777845Y194619D01*
X777904Y194552D01*
X777960Y194483D01*
X778013Y194411D01*
X778063Y194336D01*
X778109Y194260D01*
X778152Y194182D01*
X778191Y194102D01*
X778227Y194020D01*
X778260Y193937D01*
X778288Y193852D01*
X778313Y193767D01*
X778335Y193680D01*
X778352Y193592D01*
X778365Y193504D01*
X778375Y193415D01*
X778381Y193326D01*
X778383Y193237D01*
X778383Y191191D01*
X778383Y198341D02*
X771017Y200796D01*
X778383Y203252D01*
X776542Y202638D02*
X776542Y198955D01*
X778383Y207624D02*
X771017Y207624D01*
X771017Y205578D02*
X771017Y209670D01*
X771017Y214451D02*
X778383Y211996D01*
X778383Y216907D02*
X771017Y214451D01*
X776542Y216293D02*
X776542Y212610D01*
X772654Y219720D02*
X771017Y221767D01*
X778383Y221767D01*
X778383Y223813D02*
X778383Y219720D01*
X774700Y227065D02*
X774531Y227067D01*
X774363Y227073D01*
X774195Y227083D01*
X774027Y227097D01*
X773859Y227116D01*
X773692Y227138D01*
X773526Y227164D01*
X773360Y227194D01*
X773195Y227229D01*
X773031Y227267D01*
X772867Y227309D01*
X772705Y227355D01*
X772544Y227405D01*
X772384Y227459D01*
X772226Y227516D01*
X772069Y227578D01*
X771914Y227643D01*
X771760Y227712D01*
X771608Y227784D01*
X771457Y227860D01*
X771309Y227940D01*
X771162Y228023D01*
X771018Y228110D01*
X770875Y228201D01*
X770735Y228294D01*
X770597Y228391D01*
X770462Y228492D01*
X770329Y228595D01*
X770199Y228702D01*
X774700Y227065D02*
X774869Y227067D01*
X775037Y227073D01*
X775205Y227083D01*
X775373Y227097D01*
X775541Y227116D01*
X775708Y227138D01*
X775874Y227164D01*
X776040Y227194D01*
X776205Y227229D01*
X776369Y227267D01*
X776533Y227309D01*
X776695Y227355D01*
X776856Y227405D01*
X777016Y227459D01*
X777174Y227516D01*
X777331Y227578D01*
X777486Y227643D01*
X777640Y227712D01*
X777792Y227784D01*
X777943Y227860D01*
X778091Y227940D01*
X778238Y228023D01*
X778382Y228110D01*
X778525Y228201D01*
X778665Y228294D01*
X778803Y228391D01*
X778938Y228492D01*
X779071Y228595D01*
X779201Y228702D01*
X778383Y231964D02*
X771017Y231964D01*
X771017Y234010D01*
X771019Y234099D01*
X771025Y234188D01*
X771035Y234277D01*
X771048Y234365D01*
X771065Y234453D01*
X771087Y234540D01*
X771112Y234625D01*
X771140Y234710D01*
X771173Y234793D01*
X771209Y234875D01*
X771248Y234955D01*
X771291Y235033D01*
X771337Y235109D01*
X771387Y235184D01*
X771440Y235256D01*
X771496Y235325D01*
X771555Y235392D01*
X771616Y235457D01*
X771681Y235518D01*
X771748Y235577D01*
X771817Y235633D01*
X771889Y235686D01*
X771964Y235736D01*
X772040Y235782D01*
X772118Y235825D01*
X772198Y235864D01*
X772280Y235900D01*
X772363Y235933D01*
X772448Y235961D01*
X772533Y235986D01*
X772620Y236008D01*
X772708Y236025D01*
X772796Y236038D01*
X772885Y236048D01*
X772974Y236054D01*
X773063Y236056D01*
X773152Y236054D01*
X773241Y236048D01*
X773330Y236038D01*
X773418Y236025D01*
X773506Y236008D01*
X773593Y235986D01*
X773678Y235961D01*
X773763Y235933D01*
X773846Y235900D01*
X773928Y235864D01*
X774008Y235825D01*
X774086Y235782D01*
X774162Y235736D01*
X774237Y235686D01*
X774309Y235633D01*
X774378Y235577D01*
X774445Y235518D01*
X774510Y235457D01*
X774571Y235392D01*
X774630Y235325D01*
X774686Y235256D01*
X774739Y235184D01*
X774789Y235109D01*
X774835Y235033D01*
X774878Y234955D01*
X774917Y234875D01*
X774953Y234793D01*
X774986Y234710D01*
X775014Y234625D01*
X775039Y234540D01*
X775061Y234453D01*
X775078Y234365D01*
X775091Y234277D01*
X775101Y234188D01*
X775107Y234099D01*
X775109Y234010D01*
X775109Y231964D01*
X775109Y234419D02*
X778383Y236056D01*
X779201Y238972D02*
X779071Y239079D01*
X778938Y239182D01*
X778803Y239283D01*
X778665Y239380D01*
X778525Y239473D01*
X778382Y239564D01*
X778238Y239651D01*
X778091Y239734D01*
X777943Y239814D01*
X777792Y239890D01*
X777640Y239962D01*
X777486Y240031D01*
X777331Y240096D01*
X777174Y240158D01*
X777016Y240215D01*
X776856Y240269D01*
X776695Y240319D01*
X776533Y240365D01*
X776369Y240407D01*
X776205Y240445D01*
X776040Y240480D01*
X775874Y240510D01*
X775708Y240536D01*
X775541Y240558D01*
X775373Y240577D01*
X775205Y240591D01*
X775037Y240601D01*
X774869Y240607D01*
X774700Y240609D01*
X774531Y240607D01*
X774363Y240601D01*
X774195Y240591D01*
X774027Y240577D01*
X773859Y240558D01*
X773692Y240536D01*
X773526Y240510D01*
X773360Y240480D01*
X773195Y240445D01*
X773031Y240407D01*
X772867Y240365D01*
X772705Y240319D01*
X772544Y240269D01*
X772384Y240215D01*
X772226Y240158D01*
X772069Y240096D01*
X771914Y240031D01*
X771760Y239962D01*
X771608Y239890D01*
X771457Y239814D01*
X771309Y239734D01*
X771162Y239651D01*
X771018Y239564D01*
X770875Y239473D01*
X770735Y239380D01*
X770597Y239283D01*
X770462Y239182D01*
X770329Y239079D01*
X770199Y238972D01*
D13*
X748030Y245110D02*
X748028Y245210D01*
X748022Y245309D01*
X748012Y245409D01*
X747999Y245507D01*
X747981Y245606D01*
X747960Y245703D01*
X747935Y245799D01*
X747906Y245895D01*
X747873Y245989D01*
X747837Y246082D01*
X747797Y246173D01*
X747753Y246263D01*
X747706Y246351D01*
X747656Y246437D01*
X747602Y246521D01*
X747545Y246603D01*
X747485Y246682D01*
X747421Y246760D01*
X747355Y246834D01*
X747286Y246906D01*
X747214Y246975D01*
X747140Y247041D01*
X747062Y247105D01*
X746983Y247165D01*
X746901Y247222D01*
X746817Y247276D01*
X746731Y247326D01*
X746643Y247373D01*
X746553Y247417D01*
X746462Y247457D01*
X746369Y247493D01*
X746275Y247526D01*
X746179Y247555D01*
X746083Y247580D01*
X745986Y247601D01*
X745887Y247619D01*
X745789Y247632D01*
X745689Y247642D01*
X745590Y247648D01*
X745490Y247650D01*
X727710Y247650D02*
X727610Y247648D01*
X727511Y247642D01*
X727411Y247632D01*
X727313Y247619D01*
X727214Y247601D01*
X727117Y247580D01*
X727021Y247555D01*
X726925Y247526D01*
X726831Y247493D01*
X726738Y247457D01*
X726647Y247417D01*
X726557Y247373D01*
X726469Y247326D01*
X726383Y247276D01*
X726299Y247222D01*
X726217Y247165D01*
X726138Y247105D01*
X726060Y247041D01*
X725986Y246975D01*
X725914Y246906D01*
X725845Y246834D01*
X725779Y246760D01*
X725715Y246682D01*
X725655Y246603D01*
X725598Y246521D01*
X725544Y246437D01*
X725494Y246351D01*
X725447Y246263D01*
X725403Y246173D01*
X725363Y246082D01*
X725327Y245989D01*
X725294Y245895D01*
X725265Y245799D01*
X725240Y245703D01*
X725219Y245606D01*
X725201Y245507D01*
X725188Y245409D01*
X725178Y245309D01*
X725172Y245210D01*
X725170Y245110D01*
X725170Y186690D02*
X725172Y186590D01*
X725178Y186491D01*
X725188Y186391D01*
X725201Y186293D01*
X725219Y186194D01*
X725240Y186097D01*
X725265Y186001D01*
X725294Y185905D01*
X725327Y185811D01*
X725363Y185718D01*
X725403Y185627D01*
X725447Y185537D01*
X725494Y185449D01*
X725544Y185363D01*
X725598Y185279D01*
X725655Y185197D01*
X725715Y185118D01*
X725779Y185040D01*
X725845Y184966D01*
X725914Y184894D01*
X725986Y184825D01*
X726060Y184759D01*
X726138Y184695D01*
X726217Y184635D01*
X726299Y184578D01*
X726383Y184524D01*
X726469Y184474D01*
X726557Y184427D01*
X726647Y184383D01*
X726738Y184343D01*
X726831Y184307D01*
X726925Y184274D01*
X727021Y184245D01*
X727117Y184220D01*
X727214Y184199D01*
X727313Y184181D01*
X727411Y184168D01*
X727511Y184158D01*
X727610Y184152D01*
X727710Y184150D01*
X745490Y184150D02*
X745590Y184152D01*
X745689Y184158D01*
X745789Y184168D01*
X745887Y184181D01*
X745986Y184199D01*
X746083Y184220D01*
X746179Y184245D01*
X746275Y184274D01*
X746369Y184307D01*
X746462Y184343D01*
X746553Y184383D01*
X746643Y184427D01*
X746731Y184474D01*
X746817Y184524D01*
X746901Y184578D01*
X746983Y184635D01*
X747062Y184695D01*
X747140Y184759D01*
X747214Y184825D01*
X747286Y184894D01*
X747355Y184966D01*
X747421Y185040D01*
X747485Y185118D01*
X747545Y185197D01*
X747602Y185279D01*
X747656Y185363D01*
X747706Y185449D01*
X747753Y185537D01*
X747797Y185627D01*
X747837Y185718D01*
X747873Y185811D01*
X747906Y185905D01*
X747935Y186001D01*
X747960Y186097D01*
X747981Y186194D01*
X747999Y186293D01*
X748012Y186391D01*
X748022Y186491D01*
X748028Y186590D01*
X748030Y186690D01*
X745490Y247650D02*
X727710Y247650D01*
X748030Y245110D02*
X748030Y241300D01*
X746760Y240030D01*
X725170Y241300D02*
X725170Y245110D01*
X725170Y241300D02*
X726440Y240030D01*
X746760Y191770D02*
X748030Y190500D01*
X746760Y191770D02*
X746760Y240030D01*
X726440Y191770D02*
X725170Y190500D01*
X726440Y191770D02*
X726440Y240030D01*
X748030Y190500D02*
X748030Y186690D01*
X725170Y186690D02*
X725170Y190500D01*
X727710Y184150D02*
X745490Y184150D01*
D16*
X736600Y179832D03*
X736600Y251968D03*
D12*
X740283Y191191D02*
X732917Y191191D01*
X732917Y193237D01*
X732919Y193326D01*
X732925Y193415D01*
X732935Y193504D01*
X732948Y193592D01*
X732965Y193680D01*
X732987Y193767D01*
X733012Y193852D01*
X733040Y193937D01*
X733073Y194020D01*
X733109Y194102D01*
X733148Y194182D01*
X733191Y194260D01*
X733237Y194336D01*
X733287Y194411D01*
X733340Y194483D01*
X733396Y194552D01*
X733455Y194619D01*
X733516Y194684D01*
X733581Y194745D01*
X733648Y194804D01*
X733717Y194860D01*
X733789Y194913D01*
X733864Y194963D01*
X733940Y195009D01*
X734018Y195052D01*
X734098Y195091D01*
X734180Y195127D01*
X734263Y195160D01*
X734348Y195188D01*
X734433Y195213D01*
X734520Y195235D01*
X734608Y195252D01*
X734696Y195265D01*
X734785Y195275D01*
X734874Y195281D01*
X734963Y195283D01*
X734963Y195284D02*
X738237Y195284D01*
X738237Y195283D02*
X738326Y195281D01*
X738415Y195275D01*
X738504Y195265D01*
X738592Y195252D01*
X738680Y195235D01*
X738767Y195213D01*
X738852Y195188D01*
X738937Y195160D01*
X739020Y195127D01*
X739102Y195091D01*
X739182Y195052D01*
X739260Y195009D01*
X739336Y194963D01*
X739411Y194913D01*
X739483Y194860D01*
X739552Y194804D01*
X739619Y194745D01*
X739684Y194684D01*
X739745Y194619D01*
X739804Y194552D01*
X739860Y194483D01*
X739913Y194411D01*
X739963Y194336D01*
X740009Y194260D01*
X740052Y194182D01*
X740091Y194102D01*
X740127Y194020D01*
X740160Y193937D01*
X740188Y193852D01*
X740213Y193767D01*
X740235Y193680D01*
X740252Y193592D01*
X740265Y193504D01*
X740275Y193415D01*
X740281Y193326D01*
X740283Y193237D01*
X740283Y191191D01*
X740283Y198341D02*
X732917Y200796D01*
X740283Y203252D01*
X738442Y202638D02*
X738442Y198955D01*
X740283Y207624D02*
X732917Y207624D01*
X732917Y205578D02*
X732917Y209670D01*
X732917Y214451D02*
X740283Y211996D01*
X740283Y216907D02*
X732917Y214451D01*
X738442Y216293D02*
X738442Y212610D01*
X732917Y221971D02*
X732919Y222056D01*
X732925Y222141D01*
X732935Y222225D01*
X732948Y222309D01*
X732966Y222393D01*
X732987Y222475D01*
X733012Y222556D01*
X733041Y222636D01*
X733074Y222715D01*
X733110Y222792D01*
X733150Y222867D01*
X733193Y222941D01*
X733239Y223012D01*
X733289Y223081D01*
X733342Y223148D01*
X733398Y223212D01*
X733457Y223273D01*
X733518Y223332D01*
X733582Y223388D01*
X733649Y223441D01*
X733718Y223491D01*
X733789Y223537D01*
X733863Y223580D01*
X733938Y223620D01*
X734015Y223656D01*
X734094Y223689D01*
X734174Y223718D01*
X734255Y223743D01*
X734337Y223764D01*
X734421Y223782D01*
X734505Y223795D01*
X734589Y223805D01*
X734674Y223811D01*
X734759Y223813D01*
X732917Y221971D02*
X732919Y221875D01*
X732925Y221779D01*
X732935Y221684D01*
X732948Y221589D01*
X732966Y221494D01*
X732987Y221401D01*
X733012Y221308D01*
X733041Y221217D01*
X733073Y221126D01*
X733109Y221037D01*
X733149Y220950D01*
X733192Y220864D01*
X733238Y220780D01*
X733288Y220698D01*
X733342Y220618D01*
X733398Y220541D01*
X733458Y220466D01*
X733520Y220393D01*
X733586Y220323D01*
X733654Y220255D01*
X733725Y220190D01*
X733798Y220129D01*
X733874Y220070D01*
X733953Y220014D01*
X734033Y219962D01*
X734116Y219913D01*
X734200Y219867D01*
X734286Y219825D01*
X734374Y219787D01*
X734463Y219752D01*
X734554Y219720D01*
X736191Y223199D02*
X736132Y223259D01*
X736070Y223316D01*
X736006Y223371D01*
X735939Y223422D01*
X735870Y223471D01*
X735800Y223517D01*
X735727Y223560D01*
X735653Y223600D01*
X735577Y223636D01*
X735499Y223669D01*
X735420Y223699D01*
X735340Y223726D01*
X735259Y223749D01*
X735177Y223768D01*
X735095Y223784D01*
X735011Y223797D01*
X734927Y223806D01*
X734843Y223811D01*
X734759Y223813D01*
X736191Y223199D02*
X740283Y219720D01*
X740283Y223813D01*
X736600Y227065D02*
X736431Y227067D01*
X736263Y227073D01*
X736095Y227083D01*
X735927Y227097D01*
X735759Y227116D01*
X735592Y227138D01*
X735426Y227164D01*
X735260Y227194D01*
X735095Y227229D01*
X734931Y227267D01*
X734767Y227309D01*
X734605Y227355D01*
X734444Y227405D01*
X734284Y227459D01*
X734126Y227516D01*
X733969Y227578D01*
X733814Y227643D01*
X733660Y227712D01*
X733508Y227784D01*
X733357Y227860D01*
X733209Y227940D01*
X733062Y228023D01*
X732918Y228110D01*
X732775Y228201D01*
X732635Y228294D01*
X732497Y228391D01*
X732362Y228492D01*
X732229Y228595D01*
X732099Y228702D01*
X736600Y227065D02*
X736769Y227067D01*
X736937Y227073D01*
X737105Y227083D01*
X737273Y227097D01*
X737441Y227116D01*
X737608Y227138D01*
X737774Y227164D01*
X737940Y227194D01*
X738105Y227229D01*
X738269Y227267D01*
X738433Y227309D01*
X738595Y227355D01*
X738756Y227405D01*
X738916Y227459D01*
X739074Y227516D01*
X739231Y227578D01*
X739386Y227643D01*
X739540Y227712D01*
X739692Y227784D01*
X739843Y227860D01*
X739991Y227940D01*
X740138Y228023D01*
X740282Y228110D01*
X740425Y228201D01*
X740565Y228294D01*
X740703Y228391D01*
X740838Y228492D01*
X740971Y228595D01*
X741101Y228702D01*
X740283Y231964D02*
X732917Y231964D01*
X732917Y234010D01*
X732919Y234099D01*
X732925Y234188D01*
X732935Y234277D01*
X732948Y234365D01*
X732965Y234453D01*
X732987Y234540D01*
X733012Y234625D01*
X733040Y234710D01*
X733073Y234793D01*
X733109Y234875D01*
X733148Y234955D01*
X733191Y235033D01*
X733237Y235109D01*
X733287Y235184D01*
X733340Y235256D01*
X733396Y235325D01*
X733455Y235392D01*
X733516Y235457D01*
X733581Y235518D01*
X733648Y235577D01*
X733717Y235633D01*
X733789Y235686D01*
X733864Y235736D01*
X733940Y235782D01*
X734018Y235825D01*
X734098Y235864D01*
X734180Y235900D01*
X734263Y235933D01*
X734348Y235961D01*
X734433Y235986D01*
X734520Y236008D01*
X734608Y236025D01*
X734696Y236038D01*
X734785Y236048D01*
X734874Y236054D01*
X734963Y236056D01*
X735052Y236054D01*
X735141Y236048D01*
X735230Y236038D01*
X735318Y236025D01*
X735406Y236008D01*
X735493Y235986D01*
X735578Y235961D01*
X735663Y235933D01*
X735746Y235900D01*
X735828Y235864D01*
X735908Y235825D01*
X735986Y235782D01*
X736062Y235736D01*
X736137Y235686D01*
X736209Y235633D01*
X736278Y235577D01*
X736345Y235518D01*
X736410Y235457D01*
X736471Y235392D01*
X736530Y235325D01*
X736586Y235256D01*
X736639Y235184D01*
X736689Y235109D01*
X736735Y235033D01*
X736778Y234955D01*
X736817Y234875D01*
X736853Y234793D01*
X736886Y234710D01*
X736914Y234625D01*
X736939Y234540D01*
X736961Y234453D01*
X736978Y234365D01*
X736991Y234277D01*
X737001Y234188D01*
X737007Y234099D01*
X737009Y234010D01*
X737009Y231964D01*
X737009Y234419D02*
X740283Y236056D01*
X741101Y238972D02*
X740971Y239079D01*
X740838Y239182D01*
X740703Y239283D01*
X740565Y239380D01*
X740425Y239473D01*
X740282Y239564D01*
X740138Y239651D01*
X739991Y239734D01*
X739843Y239814D01*
X739692Y239890D01*
X739540Y239962D01*
X739386Y240031D01*
X739231Y240096D01*
X739074Y240158D01*
X738916Y240215D01*
X738756Y240269D01*
X738595Y240319D01*
X738433Y240365D01*
X738269Y240407D01*
X738105Y240445D01*
X737940Y240480D01*
X737774Y240510D01*
X737608Y240536D01*
X737441Y240558D01*
X737273Y240577D01*
X737105Y240591D01*
X736937Y240601D01*
X736769Y240607D01*
X736600Y240609D01*
X736431Y240607D01*
X736263Y240601D01*
X736095Y240591D01*
X735927Y240577D01*
X735759Y240558D01*
X735592Y240536D01*
X735426Y240510D01*
X735260Y240480D01*
X735095Y240445D01*
X734931Y240407D01*
X734767Y240365D01*
X734605Y240319D01*
X734444Y240269D01*
X734284Y240215D01*
X734126Y240158D01*
X733969Y240096D01*
X733814Y240031D01*
X733660Y239962D01*
X733508Y239890D01*
X733357Y239814D01*
X733209Y239734D01*
X733062Y239651D01*
X732918Y239564D01*
X732775Y239473D01*
X732635Y239380D01*
X732497Y239283D01*
X732362Y239182D01*
X732229Y239079D01*
X732099Y238972D01*
D17*
X647700Y0D02*
X825500Y0D01*
X825500Y431800D01*
X647700Y431800D01*
X647700Y0D01*
D13*
X843280Y266700D02*
X843285Y267072D01*
X843298Y267443D01*
X843321Y267814D01*
X843352Y268184D01*
X843393Y268553D01*
X843443Y268921D01*
X843501Y269288D01*
X843569Y269653D01*
X843645Y270017D01*
X843730Y270378D01*
X843825Y270737D01*
X843927Y271094D01*
X844039Y271449D01*
X844159Y271800D01*
X844287Y272149D01*
X844424Y272494D01*
X844570Y272836D01*
X844723Y273174D01*
X844885Y273508D01*
X845055Y273838D01*
X845233Y274164D01*
X845419Y274486D01*
X845613Y274803D01*
X845814Y275115D01*
X846023Y275422D01*
X846239Y275724D01*
X846463Y276021D01*
X846693Y276312D01*
X846931Y276597D01*
X847176Y276877D01*
X847427Y277150D01*
X847685Y277417D01*
X847949Y277678D01*
X848220Y277933D01*
X848497Y278180D01*
X848780Y278421D01*
X849068Y278655D01*
X849362Y278882D01*
X849662Y279101D01*
X843280Y266700D02*
X843285Y266328D01*
X843298Y265957D01*
X843321Y265585D01*
X843353Y265215D01*
X843393Y264845D01*
X843443Y264477D01*
X843502Y264109D01*
X843569Y263744D01*
X843646Y263380D01*
X843732Y263018D01*
X843826Y262658D01*
X843929Y262301D01*
X844040Y261946D01*
X844161Y261594D01*
X844290Y261245D01*
X844427Y260900D01*
X844573Y260558D01*
X844727Y260219D01*
X844889Y259884D01*
X845059Y259554D01*
X845238Y259228D01*
X845424Y258906D01*
X845618Y258588D01*
X845820Y258276D01*
X846029Y257969D01*
X846246Y257667D01*
X846470Y257370D01*
X846701Y257078D01*
X846939Y256793D01*
X847185Y256513D01*
X847437Y256240D01*
X847695Y255972D01*
X847960Y255712D01*
X848231Y255457D01*
X848509Y255209D01*
X848792Y254969D01*
X849081Y254735D01*
X849376Y254508D01*
X873760Y266700D02*
X873756Y267065D01*
X873743Y267430D01*
X873721Y267794D01*
X873690Y268157D01*
X873651Y268520D01*
X873603Y268882D01*
X873546Y269242D01*
X873481Y269601D01*
X873408Y269959D01*
X873325Y270314D01*
X873235Y270667D01*
X873135Y271019D01*
X873028Y271367D01*
X872912Y271713D01*
X872788Y272056D01*
X872655Y272396D01*
X872515Y272733D01*
X872367Y273066D01*
X872210Y273396D01*
X872046Y273722D01*
X871874Y274044D01*
X871694Y274361D01*
X871507Y274674D01*
X871313Y274983D01*
X871111Y275287D01*
X870901Y275586D01*
X870685Y275880D01*
X870462Y276168D01*
X870232Y276451D01*
X869995Y276729D01*
X869752Y277001D01*
X869502Y277267D01*
X869246Y277527D01*
X868983Y277780D01*
X868715Y278028D01*
X868441Y278268D01*
X868161Y278503D01*
X867876Y278730D01*
X873760Y266700D02*
X873756Y266335D01*
X873743Y265970D01*
X873721Y265606D01*
X873690Y265243D01*
X873651Y264880D01*
X873603Y264518D01*
X873546Y264158D01*
X873481Y263799D01*
X873408Y263441D01*
X873325Y263086D01*
X873235Y262733D01*
X873135Y262381D01*
X873028Y262033D01*
X872912Y261687D01*
X872788Y261344D01*
X872655Y261004D01*
X872515Y260667D01*
X872367Y260334D01*
X872210Y260004D01*
X872046Y259678D01*
X871874Y259356D01*
X871694Y259039D01*
X871507Y258726D01*
X871313Y258417D01*
X871111Y258113D01*
X870901Y257814D01*
X870685Y257520D01*
X870462Y257232D01*
X870232Y256949D01*
X869995Y256671D01*
X869752Y256399D01*
X869502Y256133D01*
X869246Y255873D01*
X868983Y255620D01*
X868715Y255372D01*
X868441Y255132D01*
X868161Y254897D01*
X867876Y254670D01*
D18*
X838200Y266700D02*
X838206Y267194D01*
X838224Y267688D01*
X838254Y268182D01*
X838296Y268675D01*
X838350Y269166D01*
X838416Y269656D01*
X838494Y270144D01*
X838584Y270631D01*
X838685Y271115D01*
X838799Y271596D01*
X838924Y272074D01*
X839060Y272550D01*
X839208Y273021D01*
X839368Y273489D01*
X839539Y273953D01*
X839721Y274413D01*
X839914Y274868D01*
X840118Y275319D01*
X840333Y275764D01*
X840559Y276204D01*
X840796Y276638D01*
X841043Y277066D01*
X841300Y277488D01*
X841568Y277904D01*
X841846Y278313D01*
X842133Y278715D01*
X842430Y279111D01*
X842737Y279498D01*
X843053Y279879D01*
X843378Y280251D01*
X843713Y280616D01*
X844056Y280972D01*
X844407Y281319D01*
X844767Y281659D01*
X845135Y281989D01*
X845511Y282310D01*
X838200Y266700D02*
X838206Y266212D01*
X838223Y265725D01*
X838253Y265238D01*
X838294Y264751D01*
X838346Y264266D01*
X838411Y263782D01*
X838487Y263300D01*
X838574Y262820D01*
X838673Y262342D01*
X838783Y261867D01*
X838905Y261394D01*
X839038Y260925D01*
X839183Y260458D01*
X839338Y259996D01*
X839505Y259537D01*
X839682Y259082D01*
X839871Y258632D01*
X840070Y258187D01*
X840280Y257746D01*
X840500Y257310D01*
X840731Y256880D01*
X840972Y256456D01*
X841223Y256038D01*
X841484Y255625D01*
X841755Y255219D01*
X842035Y254820D01*
X842325Y254427D01*
X842625Y254042D01*
X842934Y253664D01*
X843251Y253293D01*
X843578Y252931D01*
X843913Y252576D01*
X844256Y252229D01*
X844608Y251891D01*
X844967Y251561D01*
X845335Y251240D01*
X845710Y250927D01*
X846093Y250624D01*
X846482Y250330D01*
X846879Y250046D01*
X847282Y249771D01*
X847692Y249506D01*
X848108Y249251D01*
X848530Y249006D01*
X848958Y248771D01*
X878840Y266700D02*
X878834Y267190D01*
X878816Y267680D01*
X878787Y268169D01*
X878745Y268658D01*
X878692Y269145D01*
X878628Y269631D01*
X878551Y270115D01*
X878463Y270597D01*
X878363Y271077D01*
X878252Y271555D01*
X878129Y272029D01*
X877994Y272501D01*
X877849Y272969D01*
X877692Y273433D01*
X877524Y273894D01*
X877345Y274350D01*
X877155Y274802D01*
X876954Y275249D01*
X876742Y275691D01*
X876520Y276128D01*
X876288Y276560D01*
X876045Y276986D01*
X875791Y277405D01*
X875528Y277819D01*
X875255Y278226D01*
X874972Y278626D01*
X874679Y279020D01*
X874378Y279406D01*
X874066Y279785D01*
X873746Y280156D01*
X873417Y280519D01*
X873080Y280875D01*
X872733Y281222D01*
X872379Y281560D01*
X872016Y281890D01*
X871646Y282212D01*
X878840Y266700D02*
X878834Y266203D01*
X878816Y265706D01*
X878785Y265210D01*
X878743Y264715D01*
X878688Y264221D01*
X878622Y263728D01*
X878543Y263238D01*
X878452Y262749D01*
X878350Y262263D01*
X878235Y261779D01*
X878109Y261299D01*
X877971Y260821D01*
X877822Y260347D01*
X877661Y259877D01*
X877488Y259411D01*
X877304Y258949D01*
X877109Y258492D01*
X876903Y258040D01*
X876686Y257593D01*
X876457Y257152D01*
X876219Y256716D01*
X875969Y256286D01*
X875709Y255863D01*
X875439Y255445D01*
X875159Y255035D01*
X874869Y254632D01*
X874569Y254235D01*
X874259Y253847D01*
X873940Y253466D01*
X873612Y253093D01*
X873275Y252728D01*
X872929Y252371D01*
X872574Y252023D01*
X872211Y251684D01*
X871840Y251353D01*
X871460Y251032D01*
X871073Y250720D01*
X870679Y250418D01*
X870277Y250126D01*
X869868Y249843D01*
X869453Y249571D01*
X869030Y249308D01*
X868602Y249057D01*
D12*
X849981Y263271D02*
X849981Y270637D01*
X852027Y270637D01*
X852116Y270635D01*
X852205Y270629D01*
X852294Y270619D01*
X852382Y270606D01*
X852470Y270589D01*
X852557Y270567D01*
X852642Y270542D01*
X852727Y270514D01*
X852810Y270481D01*
X852892Y270445D01*
X852972Y270406D01*
X853050Y270363D01*
X853126Y270317D01*
X853201Y270267D01*
X853273Y270214D01*
X853342Y270158D01*
X853409Y270099D01*
X853474Y270038D01*
X853535Y269973D01*
X853594Y269906D01*
X853650Y269837D01*
X853703Y269765D01*
X853753Y269690D01*
X853799Y269614D01*
X853842Y269536D01*
X853881Y269456D01*
X853917Y269374D01*
X853950Y269291D01*
X853978Y269206D01*
X854003Y269121D01*
X854025Y269034D01*
X854042Y268946D01*
X854055Y268858D01*
X854065Y268769D01*
X854071Y268680D01*
X854073Y268591D01*
X854071Y268502D01*
X854065Y268413D01*
X854055Y268324D01*
X854042Y268236D01*
X854025Y268148D01*
X854003Y268061D01*
X853978Y267976D01*
X853950Y267891D01*
X853917Y267808D01*
X853881Y267726D01*
X853842Y267646D01*
X853799Y267568D01*
X853753Y267492D01*
X853703Y267417D01*
X853650Y267345D01*
X853594Y267276D01*
X853535Y267209D01*
X853474Y267144D01*
X853409Y267083D01*
X853342Y267024D01*
X853273Y266968D01*
X853201Y266915D01*
X853126Y266865D01*
X853050Y266819D01*
X852972Y266776D01*
X852892Y266737D01*
X852810Y266701D01*
X852727Y266668D01*
X852642Y266640D01*
X852557Y266615D01*
X852470Y266593D01*
X852382Y266576D01*
X852294Y266563D01*
X852205Y266553D01*
X852116Y266547D01*
X852027Y266545D01*
X849981Y266545D01*
X852436Y266545D02*
X854073Y263271D01*
X857274Y266954D02*
X857276Y267123D01*
X857282Y267291D01*
X857292Y267459D01*
X857306Y267627D01*
X857325Y267795D01*
X857347Y267962D01*
X857373Y268128D01*
X857403Y268294D01*
X857438Y268459D01*
X857476Y268623D01*
X857518Y268787D01*
X857564Y268949D01*
X857614Y269110D01*
X857668Y269270D01*
X857725Y269428D01*
X857787Y269585D01*
X857852Y269740D01*
X857921Y269894D01*
X857993Y270046D01*
X858069Y270197D01*
X858149Y270345D01*
X858232Y270492D01*
X858319Y270636D01*
X858410Y270779D01*
X858503Y270919D01*
X858600Y271057D01*
X858701Y271192D01*
X858804Y271325D01*
X858911Y271455D01*
X857274Y266954D02*
X857276Y266785D01*
X857282Y266617D01*
X857292Y266449D01*
X857306Y266281D01*
X857325Y266113D01*
X857347Y265946D01*
X857373Y265780D01*
X857403Y265614D01*
X857438Y265449D01*
X857476Y265285D01*
X857518Y265121D01*
X857564Y264959D01*
X857614Y264798D01*
X857668Y264638D01*
X857725Y264480D01*
X857787Y264323D01*
X857852Y264168D01*
X857921Y264014D01*
X857993Y263862D01*
X858069Y263711D01*
X858149Y263563D01*
X858232Y263416D01*
X858319Y263272D01*
X858410Y263129D01*
X858503Y262989D01*
X858600Y262851D01*
X858701Y262716D01*
X858804Y262583D01*
X858911Y262453D01*
X862138Y263271D02*
X862138Y270637D01*
X862138Y263271D02*
X865411Y263271D01*
X867962Y262453D02*
X868069Y262583D01*
X868172Y262716D01*
X868273Y262851D01*
X868370Y262989D01*
X868463Y263129D01*
X868554Y263272D01*
X868641Y263416D01*
X868724Y263563D01*
X868804Y263711D01*
X868880Y263862D01*
X868952Y264014D01*
X869021Y264168D01*
X869086Y264323D01*
X869148Y264480D01*
X869205Y264638D01*
X869259Y264798D01*
X869309Y264959D01*
X869355Y265121D01*
X869397Y265285D01*
X869435Y265449D01*
X869470Y265614D01*
X869500Y265780D01*
X869526Y265946D01*
X869548Y266113D01*
X869567Y266281D01*
X869581Y266449D01*
X869591Y266617D01*
X869597Y266785D01*
X869599Y266954D01*
X869597Y267123D01*
X869591Y267291D01*
X869581Y267459D01*
X869567Y267627D01*
X869548Y267795D01*
X869526Y267962D01*
X869500Y268128D01*
X869470Y268294D01*
X869435Y268459D01*
X869397Y268623D01*
X869355Y268787D01*
X869309Y268949D01*
X869259Y269110D01*
X869205Y269270D01*
X869148Y269428D01*
X869086Y269585D01*
X869021Y269740D01*
X868952Y269894D01*
X868880Y270046D01*
X868804Y270197D01*
X868724Y270345D01*
X868641Y270492D01*
X868554Y270636D01*
X868463Y270779D01*
X868370Y270919D01*
X868273Y271057D01*
X868172Y271192D01*
X868069Y271325D01*
X867962Y271455D01*
D13*
X765810Y311150D02*
X765710Y311152D01*
X765611Y311158D01*
X765511Y311168D01*
X765413Y311181D01*
X765314Y311199D01*
X765217Y311220D01*
X765121Y311245D01*
X765025Y311274D01*
X764931Y311307D01*
X764838Y311343D01*
X764747Y311383D01*
X764657Y311427D01*
X764569Y311474D01*
X764483Y311524D01*
X764399Y311578D01*
X764317Y311635D01*
X764238Y311695D01*
X764160Y311759D01*
X764086Y311825D01*
X764014Y311894D01*
X763945Y311966D01*
X763879Y312040D01*
X763815Y312118D01*
X763755Y312197D01*
X763698Y312279D01*
X763644Y312363D01*
X763594Y312449D01*
X763547Y312537D01*
X763503Y312627D01*
X763463Y312718D01*
X763427Y312811D01*
X763394Y312905D01*
X763365Y313001D01*
X763340Y313097D01*
X763319Y313194D01*
X763301Y313293D01*
X763288Y313391D01*
X763278Y313491D01*
X763272Y313590D01*
X763270Y313690D01*
X783590Y311150D02*
X783690Y311152D01*
X783789Y311158D01*
X783889Y311168D01*
X783987Y311181D01*
X784086Y311199D01*
X784183Y311220D01*
X784279Y311245D01*
X784375Y311274D01*
X784469Y311307D01*
X784562Y311343D01*
X784653Y311383D01*
X784743Y311427D01*
X784831Y311474D01*
X784917Y311524D01*
X785001Y311578D01*
X785083Y311635D01*
X785162Y311695D01*
X785240Y311759D01*
X785314Y311825D01*
X785386Y311894D01*
X785455Y311966D01*
X785521Y312040D01*
X785585Y312118D01*
X785645Y312197D01*
X785702Y312279D01*
X785756Y312363D01*
X785806Y312449D01*
X785853Y312537D01*
X785897Y312627D01*
X785937Y312718D01*
X785973Y312811D01*
X786006Y312905D01*
X786035Y313001D01*
X786060Y313097D01*
X786081Y313194D01*
X786099Y313293D01*
X786112Y313391D01*
X786122Y313491D01*
X786128Y313590D01*
X786130Y313690D01*
X786130Y372110D02*
X786128Y372210D01*
X786122Y372309D01*
X786112Y372409D01*
X786099Y372507D01*
X786081Y372606D01*
X786060Y372703D01*
X786035Y372799D01*
X786006Y372895D01*
X785973Y372989D01*
X785937Y373082D01*
X785897Y373173D01*
X785853Y373263D01*
X785806Y373351D01*
X785756Y373437D01*
X785702Y373521D01*
X785645Y373603D01*
X785585Y373682D01*
X785521Y373760D01*
X785455Y373834D01*
X785386Y373906D01*
X785314Y373975D01*
X785240Y374041D01*
X785162Y374105D01*
X785083Y374165D01*
X785001Y374222D01*
X784917Y374276D01*
X784831Y374326D01*
X784743Y374373D01*
X784653Y374417D01*
X784562Y374457D01*
X784469Y374493D01*
X784375Y374526D01*
X784279Y374555D01*
X784183Y374580D01*
X784086Y374601D01*
X783987Y374619D01*
X783889Y374632D01*
X783789Y374642D01*
X783690Y374648D01*
X783590Y374650D01*
X765810Y374650D02*
X765710Y374648D01*
X765611Y374642D01*
X765511Y374632D01*
X765413Y374619D01*
X765314Y374601D01*
X765217Y374580D01*
X765121Y374555D01*
X765025Y374526D01*
X764931Y374493D01*
X764838Y374457D01*
X764747Y374417D01*
X764657Y374373D01*
X764569Y374326D01*
X764483Y374276D01*
X764399Y374222D01*
X764317Y374165D01*
X764238Y374105D01*
X764160Y374041D01*
X764086Y373975D01*
X764014Y373906D01*
X763945Y373834D01*
X763879Y373760D01*
X763815Y373682D01*
X763755Y373603D01*
X763698Y373521D01*
X763644Y373437D01*
X763594Y373351D01*
X763547Y373263D01*
X763503Y373173D01*
X763463Y373082D01*
X763427Y372989D01*
X763394Y372895D01*
X763365Y372799D01*
X763340Y372703D01*
X763319Y372606D01*
X763301Y372507D01*
X763288Y372409D01*
X763278Y372309D01*
X763272Y372210D01*
X763270Y372110D01*
X765810Y311150D02*
X783590Y311150D01*
X763270Y313690D02*
X763270Y317500D01*
X764540Y318770D01*
X786130Y317500D02*
X786130Y313690D01*
X786130Y317500D02*
X784860Y318770D01*
X764540Y367030D02*
X763270Y368300D01*
X764540Y367030D02*
X764540Y318770D01*
X784860Y367030D02*
X786130Y368300D01*
X784860Y367030D02*
X784860Y318770D01*
X763270Y368300D02*
X763270Y372110D01*
X786130Y372110D02*
X786130Y368300D01*
X783590Y374650D02*
X765810Y374650D01*
D16*
X774700Y378968D03*
X774700Y306832D03*
D12*
X778383Y332482D02*
X771017Y332482D01*
X771017Y334528D01*
X771019Y334617D01*
X771025Y334706D01*
X771035Y334795D01*
X771048Y334883D01*
X771065Y334971D01*
X771087Y335058D01*
X771112Y335143D01*
X771140Y335228D01*
X771173Y335311D01*
X771209Y335393D01*
X771248Y335473D01*
X771291Y335551D01*
X771337Y335627D01*
X771387Y335702D01*
X771440Y335774D01*
X771496Y335843D01*
X771555Y335910D01*
X771616Y335975D01*
X771681Y336036D01*
X771748Y336095D01*
X771817Y336151D01*
X771889Y336204D01*
X771964Y336254D01*
X772040Y336300D01*
X772118Y336343D01*
X772198Y336382D01*
X772280Y336418D01*
X772363Y336451D01*
X772448Y336479D01*
X772533Y336504D01*
X772620Y336526D01*
X772708Y336543D01*
X772796Y336556D01*
X772885Y336566D01*
X772974Y336572D01*
X773063Y336574D01*
X773152Y336572D01*
X773241Y336566D01*
X773330Y336556D01*
X773418Y336543D01*
X773506Y336526D01*
X773593Y336504D01*
X773678Y336479D01*
X773763Y336451D01*
X773846Y336418D01*
X773928Y336382D01*
X774008Y336343D01*
X774086Y336300D01*
X774162Y336254D01*
X774237Y336204D01*
X774309Y336151D01*
X774378Y336095D01*
X774445Y336036D01*
X774510Y335975D01*
X774571Y335910D01*
X774630Y335843D01*
X774686Y335774D01*
X774739Y335702D01*
X774789Y335627D01*
X774835Y335551D01*
X774878Y335473D01*
X774917Y335393D01*
X774953Y335311D01*
X774986Y335228D01*
X775014Y335143D01*
X775039Y335058D01*
X775061Y334971D01*
X775078Y334883D01*
X775091Y334795D01*
X775101Y334706D01*
X775107Y334617D01*
X775109Y334528D01*
X775109Y332482D01*
X775109Y334937D02*
X778383Y336574D01*
X774700Y339774D02*
X774531Y339776D01*
X774363Y339782D01*
X774195Y339792D01*
X774027Y339806D01*
X773859Y339825D01*
X773692Y339847D01*
X773526Y339873D01*
X773360Y339903D01*
X773195Y339938D01*
X773031Y339976D01*
X772867Y340018D01*
X772705Y340064D01*
X772544Y340114D01*
X772384Y340168D01*
X772226Y340225D01*
X772069Y340287D01*
X771914Y340352D01*
X771760Y340421D01*
X771608Y340493D01*
X771457Y340569D01*
X771309Y340649D01*
X771162Y340732D01*
X771018Y340819D01*
X770875Y340910D01*
X770735Y341003D01*
X770597Y341100D01*
X770462Y341201D01*
X770329Y341304D01*
X770199Y341411D01*
X774700Y339774D02*
X774869Y339776D01*
X775037Y339782D01*
X775205Y339792D01*
X775373Y339806D01*
X775541Y339825D01*
X775708Y339847D01*
X775874Y339873D01*
X776040Y339903D01*
X776205Y339938D01*
X776369Y339976D01*
X776533Y340018D01*
X776695Y340064D01*
X776856Y340114D01*
X777016Y340168D01*
X777174Y340225D01*
X777331Y340287D01*
X777486Y340352D01*
X777640Y340421D01*
X777792Y340493D01*
X777943Y340569D01*
X778091Y340649D01*
X778238Y340732D01*
X778382Y340819D01*
X778525Y340910D01*
X778665Y341003D01*
X778803Y341100D01*
X778938Y341201D01*
X779071Y341304D01*
X779201Y341411D01*
X778383Y344673D02*
X771017Y344673D01*
X771017Y346720D01*
X771019Y346809D01*
X771025Y346898D01*
X771035Y346987D01*
X771048Y347075D01*
X771065Y347163D01*
X771087Y347250D01*
X771112Y347335D01*
X771140Y347420D01*
X771173Y347503D01*
X771209Y347585D01*
X771248Y347665D01*
X771291Y347743D01*
X771337Y347819D01*
X771387Y347894D01*
X771440Y347966D01*
X771496Y348035D01*
X771555Y348102D01*
X771616Y348167D01*
X771681Y348228D01*
X771748Y348287D01*
X771817Y348343D01*
X771889Y348396D01*
X771964Y348446D01*
X772040Y348492D01*
X772118Y348535D01*
X772198Y348574D01*
X772280Y348610D01*
X772363Y348643D01*
X772448Y348671D01*
X772533Y348696D01*
X772620Y348718D01*
X772708Y348735D01*
X772796Y348748D01*
X772885Y348758D01*
X772974Y348764D01*
X773063Y348766D01*
X773152Y348764D01*
X773241Y348758D01*
X773330Y348748D01*
X773418Y348735D01*
X773506Y348718D01*
X773593Y348696D01*
X773678Y348671D01*
X773763Y348643D01*
X773846Y348610D01*
X773928Y348574D01*
X774008Y348535D01*
X774086Y348492D01*
X774162Y348446D01*
X774237Y348396D01*
X774309Y348343D01*
X774378Y348287D01*
X774445Y348228D01*
X774510Y348167D01*
X774571Y348102D01*
X774630Y348035D01*
X774686Y347966D01*
X774739Y347894D01*
X774789Y347819D01*
X774835Y347743D01*
X774878Y347665D01*
X774917Y347585D01*
X774953Y347503D01*
X774986Y347420D01*
X775014Y347335D01*
X775039Y347250D01*
X775061Y347163D01*
X775078Y347075D01*
X775091Y346987D01*
X775101Y346898D01*
X775107Y346809D01*
X775109Y346720D01*
X775109Y344673D01*
X775109Y347129D02*
X778383Y348766D01*
X779201Y351682D02*
X779071Y351789D01*
X778938Y351892D01*
X778803Y351993D01*
X778665Y352090D01*
X778525Y352183D01*
X778382Y352274D01*
X778238Y352361D01*
X778091Y352444D01*
X777943Y352524D01*
X777792Y352600D01*
X777640Y352672D01*
X777486Y352741D01*
X777331Y352806D01*
X777174Y352868D01*
X777016Y352925D01*
X776856Y352979D01*
X776695Y353029D01*
X776533Y353075D01*
X776369Y353117D01*
X776205Y353155D01*
X776040Y353190D01*
X775874Y353220D01*
X775708Y353246D01*
X775541Y353268D01*
X775373Y353287D01*
X775205Y353301D01*
X775037Y353311D01*
X774869Y353317D01*
X774700Y353319D01*
X774531Y353317D01*
X774363Y353311D01*
X774195Y353301D01*
X774027Y353287D01*
X773859Y353268D01*
X773692Y353246D01*
X773526Y353220D01*
X773360Y353190D01*
X773195Y353155D01*
X773031Y353117D01*
X772867Y353075D01*
X772705Y353029D01*
X772544Y352979D01*
X772384Y352925D01*
X772226Y352868D01*
X772069Y352806D01*
X771914Y352741D01*
X771760Y352672D01*
X771608Y352600D01*
X771457Y352524D01*
X771309Y352444D01*
X771162Y352361D01*
X771018Y352274D01*
X770875Y352183D01*
X770735Y352090D01*
X770597Y351993D01*
X770462Y351892D01*
X770329Y351789D01*
X770199Y351682D01*
D13*
X849662Y177501D02*
X849362Y177282D01*
X849068Y177055D01*
X848780Y176821D01*
X848497Y176580D01*
X848220Y176333D01*
X847949Y176078D01*
X847685Y175817D01*
X847427Y175550D01*
X847176Y175277D01*
X846931Y174997D01*
X846693Y174712D01*
X846463Y174421D01*
X846239Y174124D01*
X846023Y173822D01*
X845814Y173515D01*
X845613Y173203D01*
X845419Y172886D01*
X845233Y172564D01*
X845055Y172238D01*
X844885Y171908D01*
X844723Y171574D01*
X844570Y171236D01*
X844424Y170894D01*
X844287Y170549D01*
X844159Y170200D01*
X844039Y169849D01*
X843927Y169494D01*
X843825Y169137D01*
X843730Y168778D01*
X843645Y168417D01*
X843569Y168053D01*
X843501Y167688D01*
X843443Y167321D01*
X843393Y166953D01*
X843352Y166584D01*
X843321Y166214D01*
X843298Y165843D01*
X843285Y165472D01*
X843280Y165100D01*
X843285Y164728D01*
X843298Y164357D01*
X843321Y163985D01*
X843353Y163615D01*
X843393Y163245D01*
X843443Y162877D01*
X843502Y162509D01*
X843569Y162144D01*
X843646Y161780D01*
X843732Y161418D01*
X843826Y161058D01*
X843929Y160701D01*
X844040Y160346D01*
X844161Y159994D01*
X844290Y159645D01*
X844427Y159300D01*
X844573Y158958D01*
X844727Y158619D01*
X844889Y158284D01*
X845059Y157954D01*
X845238Y157628D01*
X845424Y157306D01*
X845618Y156988D01*
X845820Y156676D01*
X846029Y156369D01*
X846246Y156067D01*
X846470Y155770D01*
X846701Y155478D01*
X846939Y155193D01*
X847185Y154913D01*
X847437Y154640D01*
X847695Y154372D01*
X847960Y154112D01*
X848231Y153857D01*
X848509Y153609D01*
X848792Y153369D01*
X849081Y153135D01*
X849376Y152908D01*
X873760Y165100D02*
X873756Y165465D01*
X873743Y165830D01*
X873721Y166194D01*
X873690Y166557D01*
X873651Y166920D01*
X873603Y167282D01*
X873546Y167642D01*
X873481Y168001D01*
X873408Y168359D01*
X873325Y168714D01*
X873235Y169067D01*
X873135Y169419D01*
X873028Y169767D01*
X872912Y170113D01*
X872788Y170456D01*
X872655Y170796D01*
X872515Y171133D01*
X872367Y171466D01*
X872210Y171796D01*
X872046Y172122D01*
X871874Y172444D01*
X871694Y172761D01*
X871507Y173074D01*
X871313Y173383D01*
X871111Y173687D01*
X870901Y173986D01*
X870685Y174280D01*
X870462Y174568D01*
X870232Y174851D01*
X869995Y175129D01*
X869752Y175401D01*
X869502Y175667D01*
X869246Y175927D01*
X868983Y176180D01*
X868715Y176428D01*
X868441Y176668D01*
X868161Y176903D01*
X867876Y177130D01*
X873760Y165100D02*
X873756Y164735D01*
X873743Y164370D01*
X873721Y164006D01*
X873690Y163643D01*
X873651Y163280D01*
X873603Y162918D01*
X873546Y162558D01*
X873481Y162199D01*
X873408Y161841D01*
X873325Y161486D01*
X873235Y161133D01*
X873135Y160781D01*
X873028Y160433D01*
X872912Y160087D01*
X872788Y159744D01*
X872655Y159404D01*
X872515Y159067D01*
X872367Y158734D01*
X872210Y158404D01*
X872046Y158078D01*
X871874Y157756D01*
X871694Y157439D01*
X871507Y157126D01*
X871313Y156817D01*
X871111Y156513D01*
X870901Y156214D01*
X870685Y155920D01*
X870462Y155632D01*
X870232Y155349D01*
X869995Y155071D01*
X869752Y154799D01*
X869502Y154533D01*
X869246Y154273D01*
X868983Y154020D01*
X868715Y153772D01*
X868441Y153532D01*
X868161Y153297D01*
X867876Y153070D01*
D18*
X838200Y165100D02*
X838206Y165594D01*
X838224Y166088D01*
X838254Y166582D01*
X838296Y167075D01*
X838350Y167566D01*
X838416Y168056D01*
X838494Y168544D01*
X838584Y169031D01*
X838685Y169515D01*
X838799Y169996D01*
X838924Y170474D01*
X839060Y170950D01*
X839208Y171421D01*
X839368Y171889D01*
X839539Y172353D01*
X839721Y172813D01*
X839914Y173268D01*
X840118Y173719D01*
X840333Y174164D01*
X840559Y174604D01*
X840796Y175038D01*
X841043Y175466D01*
X841300Y175888D01*
X841568Y176304D01*
X841846Y176713D01*
X842133Y177115D01*
X842430Y177511D01*
X842737Y177898D01*
X843053Y178279D01*
X843378Y178651D01*
X843713Y179016D01*
X844056Y179372D01*
X844407Y179719D01*
X844767Y180059D01*
X845135Y180389D01*
X845511Y180710D01*
X838200Y165100D02*
X838206Y164612D01*
X838223Y164125D01*
X838253Y163638D01*
X838294Y163151D01*
X838346Y162666D01*
X838411Y162182D01*
X838487Y161700D01*
X838574Y161220D01*
X838673Y160742D01*
X838783Y160267D01*
X838905Y159794D01*
X839038Y159325D01*
X839183Y158858D01*
X839338Y158396D01*
X839505Y157937D01*
X839682Y157482D01*
X839871Y157032D01*
X840070Y156587D01*
X840280Y156146D01*
X840500Y155710D01*
X840731Y155280D01*
X840972Y154856D01*
X841223Y154438D01*
X841484Y154025D01*
X841755Y153619D01*
X842035Y153220D01*
X842325Y152827D01*
X842625Y152442D01*
X842934Y152064D01*
X843251Y151693D01*
X843578Y151331D01*
X843913Y150976D01*
X844256Y150629D01*
X844608Y150291D01*
X844967Y149961D01*
X845335Y149640D01*
X845710Y149327D01*
X846093Y149024D01*
X846482Y148730D01*
X846879Y148446D01*
X847282Y148171D01*
X847692Y147906D01*
X848108Y147651D01*
X848530Y147406D01*
X848958Y147171D01*
X878840Y165100D02*
X878834Y165590D01*
X878816Y166080D01*
X878787Y166569D01*
X878745Y167058D01*
X878692Y167545D01*
X878628Y168031D01*
X878551Y168515D01*
X878463Y168997D01*
X878363Y169477D01*
X878252Y169955D01*
X878129Y170429D01*
X877994Y170901D01*
X877849Y171369D01*
X877692Y171833D01*
X877524Y172294D01*
X877345Y172750D01*
X877155Y173202D01*
X876954Y173649D01*
X876742Y174091D01*
X876520Y174528D01*
X876288Y174960D01*
X876045Y175386D01*
X875791Y175805D01*
X875528Y176219D01*
X875255Y176626D01*
X874972Y177026D01*
X874679Y177420D01*
X874378Y177806D01*
X874066Y178185D01*
X873746Y178556D01*
X873417Y178919D01*
X873080Y179275D01*
X872733Y179622D01*
X872379Y179960D01*
X872016Y180290D01*
X871646Y180612D01*
X878840Y165100D02*
X878834Y164603D01*
X878816Y164106D01*
X878785Y163610D01*
X878743Y163115D01*
X878688Y162621D01*
X878622Y162128D01*
X878543Y161638D01*
X878452Y161149D01*
X878350Y160663D01*
X878235Y160179D01*
X878109Y159699D01*
X877971Y159221D01*
X877822Y158747D01*
X877661Y158277D01*
X877488Y157811D01*
X877304Y157349D01*
X877109Y156892D01*
X876903Y156440D01*
X876686Y155993D01*
X876457Y155552D01*
X876219Y155116D01*
X875969Y154686D01*
X875709Y154263D01*
X875439Y153845D01*
X875159Y153435D01*
X874869Y153032D01*
X874569Y152635D01*
X874259Y152247D01*
X873940Y151866D01*
X873612Y151493D01*
X873275Y151128D01*
X872929Y150771D01*
X872574Y150423D01*
X872211Y150084D01*
X871840Y149753D01*
X871460Y149432D01*
X871073Y149120D01*
X870679Y148818D01*
X870277Y148526D01*
X869868Y148243D01*
X869453Y147971D01*
X869030Y147708D01*
X868602Y147457D01*
D12*
X850491Y161671D02*
X848854Y169037D01*
X852128Y166582D02*
X850491Y161671D01*
X853765Y161671D02*
X852128Y166582D01*
X855402Y169037D02*
X853765Y161671D01*
X858401Y165354D02*
X858403Y165523D01*
X858409Y165691D01*
X858419Y165859D01*
X858433Y166027D01*
X858452Y166195D01*
X858474Y166362D01*
X858500Y166528D01*
X858530Y166694D01*
X858565Y166859D01*
X858603Y167023D01*
X858645Y167187D01*
X858691Y167349D01*
X858741Y167510D01*
X858795Y167670D01*
X858852Y167828D01*
X858914Y167985D01*
X858979Y168140D01*
X859048Y168294D01*
X859120Y168446D01*
X859196Y168597D01*
X859276Y168745D01*
X859359Y168892D01*
X859446Y169036D01*
X859537Y169179D01*
X859630Y169319D01*
X859727Y169457D01*
X859828Y169592D01*
X859931Y169725D01*
X860038Y169855D01*
X858401Y165354D02*
X858403Y165185D01*
X858409Y165017D01*
X858419Y164849D01*
X858433Y164681D01*
X858452Y164513D01*
X858474Y164346D01*
X858500Y164180D01*
X858530Y164014D01*
X858565Y163849D01*
X858603Y163685D01*
X858645Y163521D01*
X858691Y163359D01*
X858741Y163198D01*
X858795Y163038D01*
X858852Y162880D01*
X858914Y162723D01*
X858979Y162568D01*
X859048Y162414D01*
X859120Y162262D01*
X859196Y162111D01*
X859276Y161963D01*
X859359Y161816D01*
X859446Y161672D01*
X859537Y161529D01*
X859630Y161389D01*
X859727Y161251D01*
X859828Y161116D01*
X859931Y160983D01*
X860038Y160853D01*
X863265Y161671D02*
X863265Y169037D01*
X863265Y161671D02*
X866538Y161671D01*
X869089Y160853D02*
X869196Y160983D01*
X869299Y161116D01*
X869400Y161251D01*
X869497Y161389D01*
X869590Y161529D01*
X869681Y161672D01*
X869768Y161816D01*
X869851Y161963D01*
X869931Y162111D01*
X870007Y162262D01*
X870079Y162414D01*
X870148Y162568D01*
X870213Y162723D01*
X870275Y162880D01*
X870332Y163038D01*
X870386Y163198D01*
X870436Y163359D01*
X870482Y163521D01*
X870524Y163685D01*
X870562Y163849D01*
X870597Y164014D01*
X870627Y164180D01*
X870653Y164346D01*
X870675Y164513D01*
X870694Y164681D01*
X870708Y164849D01*
X870718Y165017D01*
X870724Y165185D01*
X870726Y165354D01*
X870724Y165523D01*
X870718Y165691D01*
X870708Y165859D01*
X870694Y166027D01*
X870675Y166195D01*
X870653Y166362D01*
X870627Y166528D01*
X870597Y166694D01*
X870562Y166859D01*
X870524Y167023D01*
X870482Y167187D01*
X870436Y167349D01*
X870386Y167510D01*
X870332Y167670D01*
X870275Y167828D01*
X870213Y167985D01*
X870148Y168140D01*
X870079Y168294D01*
X870007Y168446D01*
X869931Y168597D01*
X869851Y168745D01*
X869768Y168892D01*
X869681Y169036D01*
X869590Y169179D01*
X869497Y169319D01*
X869400Y169457D01*
X869299Y169592D01*
X869196Y169725D01*
X869089Y169855D01*
D13*
X727710Y311150D02*
X727610Y311152D01*
X727511Y311158D01*
X727411Y311168D01*
X727313Y311181D01*
X727214Y311199D01*
X727117Y311220D01*
X727021Y311245D01*
X726925Y311274D01*
X726831Y311307D01*
X726738Y311343D01*
X726647Y311383D01*
X726557Y311427D01*
X726469Y311474D01*
X726383Y311524D01*
X726299Y311578D01*
X726217Y311635D01*
X726138Y311695D01*
X726060Y311759D01*
X725986Y311825D01*
X725914Y311894D01*
X725845Y311966D01*
X725779Y312040D01*
X725715Y312118D01*
X725655Y312197D01*
X725598Y312279D01*
X725544Y312363D01*
X725494Y312449D01*
X725447Y312537D01*
X725403Y312627D01*
X725363Y312718D01*
X725327Y312811D01*
X725294Y312905D01*
X725265Y313001D01*
X725240Y313097D01*
X725219Y313194D01*
X725201Y313293D01*
X725188Y313391D01*
X725178Y313491D01*
X725172Y313590D01*
X725170Y313690D01*
X745490Y311150D02*
X745590Y311152D01*
X745689Y311158D01*
X745789Y311168D01*
X745887Y311181D01*
X745986Y311199D01*
X746083Y311220D01*
X746179Y311245D01*
X746275Y311274D01*
X746369Y311307D01*
X746462Y311343D01*
X746553Y311383D01*
X746643Y311427D01*
X746731Y311474D01*
X746817Y311524D01*
X746901Y311578D01*
X746983Y311635D01*
X747062Y311695D01*
X747140Y311759D01*
X747214Y311825D01*
X747286Y311894D01*
X747355Y311966D01*
X747421Y312040D01*
X747485Y312118D01*
X747545Y312197D01*
X747602Y312279D01*
X747656Y312363D01*
X747706Y312449D01*
X747753Y312537D01*
X747797Y312627D01*
X747837Y312718D01*
X747873Y312811D01*
X747906Y312905D01*
X747935Y313001D01*
X747960Y313097D01*
X747981Y313194D01*
X747999Y313293D01*
X748012Y313391D01*
X748022Y313491D01*
X748028Y313590D01*
X748030Y313690D01*
X748030Y372110D02*
X748028Y372210D01*
X748022Y372309D01*
X748012Y372409D01*
X747999Y372507D01*
X747981Y372606D01*
X747960Y372703D01*
X747935Y372799D01*
X747906Y372895D01*
X747873Y372989D01*
X747837Y373082D01*
X747797Y373173D01*
X747753Y373263D01*
X747706Y373351D01*
X747656Y373437D01*
X747602Y373521D01*
X747545Y373603D01*
X747485Y373682D01*
X747421Y373760D01*
X747355Y373834D01*
X747286Y373906D01*
X747214Y373975D01*
X747140Y374041D01*
X747062Y374105D01*
X746983Y374165D01*
X746901Y374222D01*
X746817Y374276D01*
X746731Y374326D01*
X746643Y374373D01*
X746553Y374417D01*
X746462Y374457D01*
X746369Y374493D01*
X746275Y374526D01*
X746179Y374555D01*
X746083Y374580D01*
X745986Y374601D01*
X745887Y374619D01*
X745789Y374632D01*
X745689Y374642D01*
X745590Y374648D01*
X745490Y374650D01*
X727710Y374650D02*
X727610Y374648D01*
X727511Y374642D01*
X727411Y374632D01*
X727313Y374619D01*
X727214Y374601D01*
X727117Y374580D01*
X727021Y374555D01*
X726925Y374526D01*
X726831Y374493D01*
X726738Y374457D01*
X726647Y374417D01*
X726557Y374373D01*
X726469Y374326D01*
X726383Y374276D01*
X726299Y374222D01*
X726217Y374165D01*
X726138Y374105D01*
X726060Y374041D01*
X725986Y373975D01*
X725914Y373906D01*
X725845Y373834D01*
X725779Y373760D01*
X725715Y373682D01*
X725655Y373603D01*
X725598Y373521D01*
X725544Y373437D01*
X725494Y373351D01*
X725447Y373263D01*
X725403Y373173D01*
X725363Y373082D01*
X725327Y372989D01*
X725294Y372895D01*
X725265Y372799D01*
X725240Y372703D01*
X725219Y372606D01*
X725201Y372507D01*
X725188Y372409D01*
X725178Y372309D01*
X725172Y372210D01*
X725170Y372110D01*
X727710Y311150D02*
X745490Y311150D01*
X725170Y313690D02*
X725170Y317500D01*
X726440Y318770D01*
X748030Y317500D02*
X748030Y313690D01*
X748030Y317500D02*
X746760Y318770D01*
X726440Y367030D02*
X725170Y368300D01*
X726440Y367030D02*
X726440Y318770D01*
X746760Y367030D02*
X748030Y368300D01*
X746760Y367030D02*
X746760Y318770D01*
X725170Y368300D02*
X725170Y372110D01*
X748030Y372110D02*
X748030Y368300D01*
X745490Y374650D02*
X727710Y374650D01*
D16*
X736600Y378968D03*
X736600Y306832D03*
D12*
X732917Y328814D02*
X740283Y330451D01*
X735372Y332088D01*
X740283Y333725D01*
X732917Y335362D01*
X732099Y339999D02*
X732229Y339892D01*
X732362Y339789D01*
X732497Y339688D01*
X732635Y339591D01*
X732775Y339498D01*
X732918Y339407D01*
X733062Y339320D01*
X733209Y339237D01*
X733357Y339157D01*
X733508Y339081D01*
X733660Y339009D01*
X733814Y338940D01*
X733969Y338875D01*
X734126Y338813D01*
X734284Y338756D01*
X734444Y338702D01*
X734605Y338652D01*
X734767Y338606D01*
X734931Y338564D01*
X735095Y338526D01*
X735260Y338491D01*
X735426Y338461D01*
X735592Y338435D01*
X735759Y338413D01*
X735927Y338394D01*
X736095Y338380D01*
X736263Y338370D01*
X736431Y338364D01*
X736600Y338362D01*
X736769Y338364D01*
X736937Y338370D01*
X737105Y338380D01*
X737273Y338394D01*
X737441Y338413D01*
X737608Y338435D01*
X737774Y338461D01*
X737940Y338491D01*
X738105Y338526D01*
X738269Y338564D01*
X738433Y338606D01*
X738595Y338652D01*
X738756Y338702D01*
X738916Y338756D01*
X739074Y338813D01*
X739231Y338875D01*
X739386Y338940D01*
X739540Y339009D01*
X739692Y339081D01*
X739843Y339157D01*
X739991Y339237D01*
X740138Y339320D01*
X740282Y339407D01*
X740425Y339498D01*
X740565Y339591D01*
X740703Y339688D01*
X740838Y339789D01*
X740971Y339892D01*
X741101Y339999D01*
X740283Y343261D02*
X732917Y343261D01*
X732917Y345307D01*
X732919Y345396D01*
X732925Y345485D01*
X732935Y345574D01*
X732948Y345662D01*
X732965Y345750D01*
X732987Y345837D01*
X733012Y345922D01*
X733040Y346007D01*
X733073Y346090D01*
X733109Y346172D01*
X733148Y346252D01*
X733191Y346330D01*
X733237Y346406D01*
X733287Y346481D01*
X733340Y346553D01*
X733396Y346622D01*
X733455Y346689D01*
X733516Y346754D01*
X733581Y346815D01*
X733648Y346874D01*
X733717Y346930D01*
X733789Y346983D01*
X733864Y347033D01*
X733940Y347079D01*
X734018Y347122D01*
X734098Y347161D01*
X734180Y347197D01*
X734263Y347230D01*
X734348Y347258D01*
X734433Y347283D01*
X734520Y347305D01*
X734608Y347322D01*
X734696Y347335D01*
X734785Y347345D01*
X734874Y347351D01*
X734963Y347353D01*
X735052Y347351D01*
X735141Y347345D01*
X735230Y347335D01*
X735318Y347322D01*
X735406Y347305D01*
X735493Y347283D01*
X735578Y347258D01*
X735663Y347230D01*
X735746Y347197D01*
X735828Y347161D01*
X735908Y347122D01*
X735986Y347079D01*
X736062Y347033D01*
X736137Y346983D01*
X736209Y346930D01*
X736278Y346874D01*
X736345Y346815D01*
X736410Y346754D01*
X736471Y346689D01*
X736530Y346622D01*
X736586Y346553D01*
X736639Y346481D01*
X736689Y346406D01*
X736735Y346330D01*
X736778Y346252D01*
X736817Y346172D01*
X736853Y346090D01*
X736886Y346007D01*
X736914Y345922D01*
X736939Y345837D01*
X736961Y345750D01*
X736978Y345662D01*
X736991Y345574D01*
X737001Y345485D01*
X737007Y345396D01*
X737009Y345307D01*
X737009Y343261D01*
X737009Y345716D02*
X740283Y347353D01*
X741101Y350269D02*
X740971Y350376D01*
X740838Y350479D01*
X740703Y350580D01*
X740565Y350677D01*
X740425Y350770D01*
X740282Y350861D01*
X740138Y350948D01*
X739991Y351031D01*
X739843Y351111D01*
X739692Y351187D01*
X739540Y351259D01*
X739386Y351328D01*
X739231Y351393D01*
X739074Y351455D01*
X738916Y351512D01*
X738756Y351566D01*
X738595Y351616D01*
X738433Y351662D01*
X738269Y351704D01*
X738105Y351742D01*
X737940Y351777D01*
X737774Y351807D01*
X737608Y351833D01*
X737441Y351855D01*
X737273Y351874D01*
X737105Y351888D01*
X736937Y351898D01*
X736769Y351904D01*
X736600Y351906D01*
X736431Y351904D01*
X736263Y351898D01*
X736095Y351888D01*
X735927Y351874D01*
X735759Y351855D01*
X735592Y351833D01*
X735426Y351807D01*
X735260Y351777D01*
X735095Y351742D01*
X734931Y351704D01*
X734767Y351662D01*
X734605Y351616D01*
X734444Y351566D01*
X734284Y351512D01*
X734126Y351455D01*
X733969Y351393D01*
X733814Y351328D01*
X733660Y351259D01*
X733508Y351187D01*
X733357Y351111D01*
X733209Y351031D01*
X733062Y350948D01*
X732918Y350861D01*
X732775Y350770D01*
X732635Y350677D01*
X732497Y350580D01*
X732362Y350479D01*
X732229Y350376D01*
X732099Y350269D01*
D13*
X707390Y247650D02*
X707490Y247648D01*
X707589Y247642D01*
X707689Y247632D01*
X707787Y247619D01*
X707886Y247601D01*
X707983Y247580D01*
X708079Y247555D01*
X708175Y247526D01*
X708269Y247493D01*
X708362Y247457D01*
X708453Y247417D01*
X708543Y247373D01*
X708631Y247326D01*
X708717Y247276D01*
X708801Y247222D01*
X708883Y247165D01*
X708962Y247105D01*
X709040Y247041D01*
X709114Y246975D01*
X709186Y246906D01*
X709255Y246834D01*
X709321Y246760D01*
X709385Y246682D01*
X709445Y246603D01*
X709502Y246521D01*
X709556Y246437D01*
X709606Y246351D01*
X709653Y246263D01*
X709697Y246173D01*
X709737Y246082D01*
X709773Y245989D01*
X709806Y245895D01*
X709835Y245799D01*
X709860Y245703D01*
X709881Y245606D01*
X709899Y245507D01*
X709912Y245409D01*
X709922Y245309D01*
X709928Y245210D01*
X709930Y245110D01*
X689610Y247650D02*
X689510Y247648D01*
X689411Y247642D01*
X689311Y247632D01*
X689213Y247619D01*
X689114Y247601D01*
X689017Y247580D01*
X688921Y247555D01*
X688825Y247526D01*
X688731Y247493D01*
X688638Y247457D01*
X688547Y247417D01*
X688457Y247373D01*
X688369Y247326D01*
X688283Y247276D01*
X688199Y247222D01*
X688117Y247165D01*
X688038Y247105D01*
X687960Y247041D01*
X687886Y246975D01*
X687814Y246906D01*
X687745Y246834D01*
X687679Y246760D01*
X687615Y246682D01*
X687555Y246603D01*
X687498Y246521D01*
X687444Y246437D01*
X687394Y246351D01*
X687347Y246263D01*
X687303Y246173D01*
X687263Y246082D01*
X687227Y245989D01*
X687194Y245895D01*
X687165Y245799D01*
X687140Y245703D01*
X687119Y245606D01*
X687101Y245507D01*
X687088Y245409D01*
X687078Y245309D01*
X687072Y245210D01*
X687070Y245110D01*
X687070Y186690D02*
X687072Y186590D01*
X687078Y186491D01*
X687088Y186391D01*
X687101Y186293D01*
X687119Y186194D01*
X687140Y186097D01*
X687165Y186001D01*
X687194Y185905D01*
X687227Y185811D01*
X687263Y185718D01*
X687303Y185627D01*
X687347Y185537D01*
X687394Y185449D01*
X687444Y185363D01*
X687498Y185279D01*
X687555Y185197D01*
X687615Y185118D01*
X687679Y185040D01*
X687745Y184966D01*
X687814Y184894D01*
X687886Y184825D01*
X687960Y184759D01*
X688038Y184695D01*
X688117Y184635D01*
X688199Y184578D01*
X688283Y184524D01*
X688369Y184474D01*
X688457Y184427D01*
X688547Y184383D01*
X688638Y184343D01*
X688731Y184307D01*
X688825Y184274D01*
X688921Y184245D01*
X689017Y184220D01*
X689114Y184199D01*
X689213Y184181D01*
X689311Y184168D01*
X689411Y184158D01*
X689510Y184152D01*
X689610Y184150D01*
X707390Y184150D02*
X707490Y184152D01*
X707589Y184158D01*
X707689Y184168D01*
X707787Y184181D01*
X707886Y184199D01*
X707983Y184220D01*
X708079Y184245D01*
X708175Y184274D01*
X708269Y184307D01*
X708362Y184343D01*
X708453Y184383D01*
X708543Y184427D01*
X708631Y184474D01*
X708717Y184524D01*
X708801Y184578D01*
X708883Y184635D01*
X708962Y184695D01*
X709040Y184759D01*
X709114Y184825D01*
X709186Y184894D01*
X709255Y184966D01*
X709321Y185040D01*
X709385Y185118D01*
X709445Y185197D01*
X709502Y185279D01*
X709556Y185363D01*
X709606Y185449D01*
X709653Y185537D01*
X709697Y185627D01*
X709737Y185718D01*
X709773Y185811D01*
X709806Y185905D01*
X709835Y186001D01*
X709860Y186097D01*
X709881Y186194D01*
X709899Y186293D01*
X709912Y186391D01*
X709922Y186491D01*
X709928Y186590D01*
X709930Y186690D01*
X707390Y247650D02*
X689610Y247650D01*
X709930Y245110D02*
X709930Y241300D01*
X708660Y240030D01*
X687070Y241300D02*
X687070Y245110D01*
X687070Y241300D02*
X688340Y240030D01*
X708660Y191770D02*
X709930Y190500D01*
X708660Y191770D02*
X708660Y240030D01*
X688340Y191770D02*
X687070Y190500D01*
X688340Y191770D02*
X688340Y240030D01*
X709930Y190500D02*
X709930Y186690D01*
X687070Y186690D02*
X687070Y190500D01*
X689610Y184150D02*
X707390Y184150D01*
D16*
X698500Y179832D03*
X698500Y251968D03*
D12*
X702183Y193312D02*
X694817Y191675D01*
X697272Y194949D02*
X702183Y193312D01*
X702183Y196585D02*
X697272Y194949D01*
X694817Y198222D02*
X702183Y196585D01*
X702183Y201488D02*
X694817Y201488D01*
X694817Y203534D01*
X694819Y203623D01*
X694825Y203712D01*
X694835Y203801D01*
X694848Y203889D01*
X694865Y203977D01*
X694887Y204064D01*
X694912Y204149D01*
X694940Y204234D01*
X694973Y204317D01*
X695009Y204399D01*
X695048Y204479D01*
X695091Y204557D01*
X695137Y204633D01*
X695187Y204708D01*
X695240Y204780D01*
X695296Y204849D01*
X695355Y204916D01*
X695416Y204981D01*
X695481Y205042D01*
X695548Y205101D01*
X695617Y205157D01*
X695689Y205210D01*
X695764Y205260D01*
X695840Y205306D01*
X695918Y205349D01*
X695998Y205388D01*
X696080Y205424D01*
X696163Y205457D01*
X696248Y205485D01*
X696333Y205510D01*
X696420Y205532D01*
X696508Y205549D01*
X696596Y205562D01*
X696685Y205572D01*
X696774Y205578D01*
X696863Y205580D01*
X696952Y205578D01*
X697041Y205572D01*
X697130Y205562D01*
X697218Y205549D01*
X697306Y205532D01*
X697393Y205510D01*
X697478Y205485D01*
X697563Y205457D01*
X697646Y205424D01*
X697728Y205388D01*
X697808Y205349D01*
X697886Y205306D01*
X697962Y205260D01*
X698037Y205210D01*
X698109Y205157D01*
X698178Y205101D01*
X698245Y205042D01*
X698310Y204981D01*
X698371Y204916D01*
X698430Y204849D01*
X698486Y204780D01*
X698539Y204708D01*
X698589Y204633D01*
X698635Y204557D01*
X698678Y204479D01*
X698717Y204399D01*
X698753Y204317D01*
X698786Y204234D01*
X698814Y204149D01*
X698839Y204064D01*
X698861Y203977D01*
X698878Y203889D01*
X698891Y203801D01*
X698901Y203712D01*
X698907Y203623D01*
X698909Y203534D01*
X698909Y201488D01*
X698909Y203943D02*
X702183Y205580D01*
X702183Y208399D02*
X701774Y208399D01*
X701774Y208808D01*
X702183Y208808D01*
X702183Y208399D01*
X702183Y212040D02*
X694817Y212040D01*
X694817Y214086D01*
X694819Y214175D01*
X694825Y214264D01*
X694835Y214353D01*
X694848Y214441D01*
X694865Y214529D01*
X694887Y214616D01*
X694912Y214701D01*
X694940Y214786D01*
X694973Y214869D01*
X695009Y214951D01*
X695048Y215031D01*
X695091Y215109D01*
X695137Y215185D01*
X695187Y215260D01*
X695240Y215332D01*
X695296Y215401D01*
X695355Y215468D01*
X695416Y215533D01*
X695481Y215594D01*
X695548Y215653D01*
X695617Y215709D01*
X695689Y215762D01*
X695764Y215812D01*
X695840Y215858D01*
X695918Y215901D01*
X695998Y215940D01*
X696080Y215976D01*
X696163Y216009D01*
X696248Y216037D01*
X696333Y216062D01*
X696420Y216084D01*
X696508Y216101D01*
X696596Y216114D01*
X696685Y216124D01*
X696774Y216130D01*
X696863Y216132D01*
X696952Y216130D01*
X697041Y216124D01*
X697130Y216114D01*
X697218Y216101D01*
X697306Y216084D01*
X697393Y216062D01*
X697478Y216037D01*
X697563Y216009D01*
X697646Y215976D01*
X697728Y215940D01*
X697808Y215901D01*
X697886Y215858D01*
X697962Y215812D01*
X698037Y215762D01*
X698109Y215709D01*
X698178Y215653D01*
X698245Y215594D01*
X698310Y215533D01*
X698371Y215468D01*
X698430Y215401D01*
X698486Y215332D01*
X698539Y215260D01*
X698589Y215185D01*
X698635Y215109D01*
X698678Y215031D01*
X698717Y214951D01*
X698753Y214869D01*
X698786Y214786D01*
X698814Y214701D01*
X698839Y214616D01*
X698861Y214529D01*
X698878Y214441D01*
X698891Y214353D01*
X698901Y214264D01*
X698907Y214175D01*
X698909Y214086D01*
X698909Y212040D01*
X702183Y219288D02*
X694817Y219288D01*
X694817Y221334D01*
X694819Y221423D01*
X694825Y221512D01*
X694835Y221601D01*
X694848Y221689D01*
X694865Y221777D01*
X694887Y221864D01*
X694912Y221949D01*
X694940Y222034D01*
X694973Y222117D01*
X695009Y222199D01*
X695048Y222279D01*
X695091Y222357D01*
X695137Y222433D01*
X695187Y222508D01*
X695240Y222580D01*
X695296Y222649D01*
X695355Y222716D01*
X695416Y222781D01*
X695481Y222842D01*
X695548Y222901D01*
X695617Y222957D01*
X695689Y223010D01*
X695764Y223060D01*
X695840Y223106D01*
X695918Y223149D01*
X695998Y223188D01*
X696080Y223224D01*
X696163Y223257D01*
X696248Y223285D01*
X696333Y223310D01*
X696420Y223332D01*
X696508Y223349D01*
X696596Y223362D01*
X696685Y223372D01*
X696774Y223378D01*
X696863Y223380D01*
X696952Y223378D01*
X697041Y223372D01*
X697130Y223362D01*
X697218Y223349D01*
X697306Y223332D01*
X697393Y223310D01*
X697478Y223285D01*
X697563Y223257D01*
X697646Y223224D01*
X697728Y223188D01*
X697808Y223149D01*
X697886Y223106D01*
X697962Y223060D01*
X698037Y223010D01*
X698109Y222957D01*
X698178Y222901D01*
X698245Y222842D01*
X698310Y222781D01*
X698371Y222716D01*
X698430Y222649D01*
X698486Y222580D01*
X698539Y222508D01*
X698589Y222433D01*
X698635Y222357D01*
X698678Y222279D01*
X698717Y222199D01*
X698753Y222117D01*
X698786Y222034D01*
X698814Y221949D01*
X698839Y221864D01*
X698861Y221777D01*
X698878Y221689D01*
X698891Y221601D01*
X698901Y221512D01*
X698907Y221423D01*
X698909Y221334D01*
X698909Y219288D01*
X698909Y221744D02*
X702183Y223380D01*
X698500Y226581D02*
X698331Y226583D01*
X698163Y226589D01*
X697995Y226599D01*
X697827Y226613D01*
X697659Y226632D01*
X697492Y226654D01*
X697326Y226680D01*
X697160Y226710D01*
X696995Y226745D01*
X696831Y226783D01*
X696667Y226825D01*
X696505Y226871D01*
X696344Y226921D01*
X696184Y226975D01*
X696026Y227032D01*
X695869Y227094D01*
X695714Y227159D01*
X695560Y227228D01*
X695408Y227300D01*
X695257Y227376D01*
X695109Y227456D01*
X694962Y227539D01*
X694818Y227626D01*
X694675Y227717D01*
X694535Y227810D01*
X694397Y227907D01*
X694262Y228008D01*
X694129Y228111D01*
X693999Y228218D01*
X698500Y226581D02*
X698669Y226583D01*
X698837Y226589D01*
X699005Y226599D01*
X699173Y226613D01*
X699341Y226632D01*
X699508Y226654D01*
X699674Y226680D01*
X699840Y226710D01*
X700005Y226745D01*
X700169Y226783D01*
X700333Y226825D01*
X700495Y226871D01*
X700656Y226921D01*
X700816Y226975D01*
X700974Y227032D01*
X701131Y227094D01*
X701286Y227159D01*
X701440Y227228D01*
X701592Y227300D01*
X701743Y227376D01*
X701891Y227456D01*
X702038Y227539D01*
X702182Y227626D01*
X702325Y227717D01*
X702465Y227810D01*
X702603Y227907D01*
X702738Y228008D01*
X702871Y228111D01*
X703001Y228218D01*
X702183Y231480D02*
X694817Y231480D01*
X694817Y233526D01*
X694819Y233615D01*
X694825Y233704D01*
X694835Y233793D01*
X694848Y233881D01*
X694865Y233969D01*
X694887Y234056D01*
X694912Y234141D01*
X694940Y234226D01*
X694973Y234309D01*
X695009Y234391D01*
X695048Y234471D01*
X695091Y234549D01*
X695137Y234625D01*
X695187Y234700D01*
X695240Y234772D01*
X695296Y234841D01*
X695355Y234908D01*
X695416Y234973D01*
X695481Y235034D01*
X695548Y235093D01*
X695617Y235149D01*
X695689Y235202D01*
X695764Y235252D01*
X695840Y235298D01*
X695918Y235341D01*
X695998Y235380D01*
X696080Y235416D01*
X696163Y235449D01*
X696248Y235477D01*
X696333Y235502D01*
X696420Y235524D01*
X696508Y235541D01*
X696596Y235554D01*
X696685Y235564D01*
X696774Y235570D01*
X696863Y235572D01*
X696952Y235570D01*
X697041Y235564D01*
X697130Y235554D01*
X697218Y235541D01*
X697306Y235524D01*
X697393Y235502D01*
X697478Y235477D01*
X697563Y235449D01*
X697646Y235416D01*
X697728Y235380D01*
X697808Y235341D01*
X697886Y235298D01*
X697962Y235252D01*
X698037Y235202D01*
X698109Y235149D01*
X698178Y235093D01*
X698245Y235034D01*
X698310Y234973D01*
X698371Y234908D01*
X698430Y234841D01*
X698486Y234772D01*
X698539Y234700D01*
X698589Y234625D01*
X698635Y234549D01*
X698678Y234471D01*
X698717Y234391D01*
X698753Y234309D01*
X698786Y234226D01*
X698814Y234141D01*
X698839Y234056D01*
X698861Y233969D01*
X698878Y233881D01*
X698891Y233793D01*
X698901Y233704D01*
X698907Y233615D01*
X698909Y233526D01*
X698909Y231480D01*
X698909Y233936D02*
X702183Y235572D01*
X703001Y238488D02*
X702871Y238595D01*
X702738Y238698D01*
X702603Y238799D01*
X702465Y238896D01*
X702325Y238989D01*
X702182Y239080D01*
X702038Y239167D01*
X701891Y239250D01*
X701743Y239330D01*
X701592Y239406D01*
X701440Y239478D01*
X701286Y239547D01*
X701131Y239612D01*
X700974Y239674D01*
X700816Y239731D01*
X700656Y239785D01*
X700495Y239835D01*
X700333Y239881D01*
X700169Y239923D01*
X700005Y239961D01*
X699840Y239996D01*
X699674Y240026D01*
X699508Y240052D01*
X699341Y240074D01*
X699173Y240093D01*
X699005Y240107D01*
X698837Y240117D01*
X698669Y240123D01*
X698500Y240125D01*
X698331Y240123D01*
X698163Y240117D01*
X697995Y240107D01*
X697827Y240093D01*
X697659Y240074D01*
X697492Y240052D01*
X697326Y240026D01*
X697160Y239996D01*
X696995Y239961D01*
X696831Y239923D01*
X696667Y239881D01*
X696505Y239835D01*
X696344Y239785D01*
X696184Y239731D01*
X696026Y239674D01*
X695869Y239612D01*
X695714Y239547D01*
X695560Y239478D01*
X695408Y239406D01*
X695257Y239330D01*
X695109Y239250D01*
X694962Y239167D01*
X694818Y239080D01*
X694675Y238989D01*
X694535Y238896D01*
X694397Y238799D01*
X694262Y238698D01*
X694129Y238595D01*
X693999Y238488D01*
D19*
X608330Y203200D02*
X601980Y209550D01*
X601980Y222250D01*
X608330Y228600D01*
X621030Y228600D02*
X627380Y222250D01*
X627380Y209550D01*
X621030Y203200D01*
X601980Y171450D02*
X601980Y158750D01*
X601980Y171450D02*
X608330Y177800D01*
X621030Y177800D02*
X627380Y171450D01*
X608330Y177800D02*
X601980Y184150D01*
X601980Y196850D01*
X608330Y203200D01*
X621030Y203200D02*
X627380Y196850D01*
X627380Y184150D01*
X621030Y177800D01*
X621030Y152400D02*
X608330Y152400D01*
X601980Y158750D01*
X621030Y152400D02*
X627380Y158750D01*
X627380Y171450D01*
X621030Y228600D02*
X608330Y228600D01*
X601980Y95250D02*
X601980Y82550D01*
X601980Y95250D02*
X608330Y101600D01*
X621030Y101600D02*
X627380Y95250D01*
X608330Y101600D02*
X601980Y107950D01*
X601980Y120650D01*
X608330Y127000D01*
X621030Y127000D02*
X627380Y120650D01*
X627380Y107950D01*
X621030Y101600D01*
X621030Y76200D02*
X608330Y76200D01*
X601980Y82550D01*
X621030Y76200D02*
X627380Y82550D01*
X627380Y95250D01*
X621030Y127000D02*
X608330Y127000D01*
D20*
X858520Y91948D02*
X864870Y91948D01*
X858520Y91948D02*
X852170Y91948D01*
D13*
X858520Y91948D02*
X858520Y104140D01*
D20*
X858520Y85598D02*
X864870Y85598D01*
X858520Y85598D02*
X852170Y85598D01*
D13*
X858520Y85598D02*
X858520Y73660D01*
X868680Y125730D02*
X848360Y125730D01*
X845820Y123190D02*
X845820Y54610D01*
X848360Y52070D02*
X868680Y52070D01*
X871220Y54610D02*
X871220Y123190D01*
X871220Y54610D02*
X871218Y54510D01*
X871212Y54411D01*
X871202Y54311D01*
X871189Y54213D01*
X871171Y54114D01*
X871150Y54017D01*
X871125Y53921D01*
X871096Y53825D01*
X871063Y53731D01*
X871027Y53638D01*
X870987Y53547D01*
X870943Y53457D01*
X870896Y53369D01*
X870846Y53283D01*
X870792Y53199D01*
X870735Y53117D01*
X870675Y53038D01*
X870611Y52960D01*
X870545Y52886D01*
X870476Y52814D01*
X870404Y52745D01*
X870330Y52679D01*
X870252Y52615D01*
X870173Y52555D01*
X870091Y52498D01*
X870007Y52444D01*
X869921Y52394D01*
X869833Y52347D01*
X869743Y52303D01*
X869652Y52263D01*
X869559Y52227D01*
X869465Y52194D01*
X869369Y52165D01*
X869273Y52140D01*
X869176Y52119D01*
X869077Y52101D01*
X868979Y52088D01*
X868879Y52078D01*
X868780Y52072D01*
X868680Y52070D01*
X848360Y52070D02*
X848260Y52072D01*
X848161Y52078D01*
X848061Y52088D01*
X847963Y52101D01*
X847864Y52119D01*
X847767Y52140D01*
X847671Y52165D01*
X847575Y52194D01*
X847481Y52227D01*
X847388Y52263D01*
X847297Y52303D01*
X847207Y52347D01*
X847119Y52394D01*
X847033Y52444D01*
X846949Y52498D01*
X846867Y52555D01*
X846788Y52615D01*
X846710Y52679D01*
X846636Y52745D01*
X846564Y52814D01*
X846495Y52886D01*
X846429Y52960D01*
X846365Y53038D01*
X846305Y53117D01*
X846248Y53199D01*
X846194Y53283D01*
X846144Y53369D01*
X846097Y53457D01*
X846053Y53547D01*
X846013Y53638D01*
X845977Y53731D01*
X845944Y53825D01*
X845915Y53921D01*
X845890Y54017D01*
X845869Y54114D01*
X845851Y54213D01*
X845838Y54311D01*
X845828Y54411D01*
X845822Y54510D01*
X845820Y54610D01*
X845820Y123190D02*
X845822Y123290D01*
X845828Y123389D01*
X845838Y123489D01*
X845851Y123587D01*
X845869Y123686D01*
X845890Y123783D01*
X845915Y123879D01*
X845944Y123975D01*
X845977Y124069D01*
X846013Y124162D01*
X846053Y124253D01*
X846097Y124343D01*
X846144Y124431D01*
X846194Y124517D01*
X846248Y124601D01*
X846305Y124683D01*
X846365Y124762D01*
X846429Y124840D01*
X846495Y124914D01*
X846564Y124986D01*
X846636Y125055D01*
X846710Y125121D01*
X846788Y125185D01*
X846867Y125245D01*
X846949Y125302D01*
X847033Y125356D01*
X847119Y125406D01*
X847207Y125453D01*
X847297Y125497D01*
X847388Y125537D01*
X847481Y125573D01*
X847575Y125606D01*
X847671Y125635D01*
X847767Y125660D01*
X847864Y125681D01*
X847963Y125699D01*
X848061Y125712D01*
X848161Y125722D01*
X848260Y125728D01*
X848360Y125730D01*
X868680Y125730D02*
X868780Y125728D01*
X868879Y125722D01*
X868979Y125712D01*
X869077Y125699D01*
X869176Y125681D01*
X869273Y125660D01*
X869369Y125635D01*
X869465Y125606D01*
X869559Y125573D01*
X869652Y125537D01*
X869743Y125497D01*
X869833Y125453D01*
X869921Y125406D01*
X870007Y125356D01*
X870091Y125302D01*
X870173Y125245D01*
X870252Y125185D01*
X870330Y125121D01*
X870404Y125055D01*
X870476Y124986D01*
X870545Y124914D01*
X870611Y124840D01*
X870675Y124762D01*
X870735Y124683D01*
X870792Y124601D01*
X870846Y124517D01*
X870896Y124431D01*
X870943Y124343D01*
X870987Y124253D01*
X871027Y124162D01*
X871063Y124069D01*
X871096Y123975D01*
X871125Y123879D01*
X871150Y123783D01*
X871171Y123686D01*
X871189Y123587D01*
X871202Y123489D01*
X871212Y123389D01*
X871218Y123290D01*
X871220Y123190D01*
D12*
X874141Y78617D02*
X881507Y78617D01*
X878233Y81072D02*
X874141Y78617D01*
X878233Y81072D02*
X874141Y83528D01*
X881507Y83528D01*
X877824Y87102D02*
X877655Y87104D01*
X877487Y87110D01*
X877319Y87120D01*
X877151Y87134D01*
X876983Y87153D01*
X876816Y87175D01*
X876650Y87201D01*
X876484Y87231D01*
X876319Y87266D01*
X876155Y87304D01*
X875991Y87346D01*
X875829Y87392D01*
X875668Y87442D01*
X875508Y87496D01*
X875350Y87553D01*
X875193Y87615D01*
X875038Y87680D01*
X874884Y87749D01*
X874732Y87821D01*
X874581Y87897D01*
X874433Y87977D01*
X874286Y88060D01*
X874142Y88147D01*
X873999Y88238D01*
X873859Y88331D01*
X873721Y88428D01*
X873586Y88529D01*
X873453Y88632D01*
X873323Y88739D01*
X877824Y87102D02*
X877993Y87104D01*
X878161Y87110D01*
X878329Y87120D01*
X878497Y87134D01*
X878665Y87153D01*
X878832Y87175D01*
X878998Y87201D01*
X879164Y87231D01*
X879329Y87266D01*
X879493Y87304D01*
X879657Y87346D01*
X879819Y87392D01*
X879980Y87442D01*
X880140Y87496D01*
X880298Y87553D01*
X880455Y87615D01*
X880610Y87680D01*
X880764Y87749D01*
X880916Y87821D01*
X881067Y87897D01*
X881215Y87977D01*
X881362Y88060D01*
X881506Y88147D01*
X881649Y88238D01*
X881789Y88331D01*
X881927Y88428D01*
X882062Y88529D01*
X882195Y88632D01*
X882325Y88739D01*
X881507Y93320D02*
X881507Y94957D01*
X881507Y93320D02*
X881505Y93242D01*
X881500Y93164D01*
X881490Y93087D01*
X881477Y93010D01*
X881461Y92934D01*
X881441Y92859D01*
X881417Y92785D01*
X881390Y92712D01*
X881359Y92640D01*
X881325Y92570D01*
X881288Y92502D01*
X881247Y92435D01*
X881203Y92370D01*
X881157Y92308D01*
X881107Y92248D01*
X881055Y92190D01*
X881000Y92135D01*
X880942Y92083D01*
X880882Y92033D01*
X880820Y91987D01*
X880755Y91943D01*
X880689Y91902D01*
X880620Y91865D01*
X880550Y91831D01*
X880478Y91800D01*
X880405Y91773D01*
X880331Y91749D01*
X880256Y91729D01*
X880180Y91713D01*
X880103Y91700D01*
X880026Y91690D01*
X879948Y91685D01*
X879870Y91683D01*
X875778Y91683D01*
X875698Y91685D01*
X875618Y91691D01*
X875538Y91701D01*
X875459Y91714D01*
X875380Y91732D01*
X875303Y91753D01*
X875227Y91779D01*
X875152Y91808D01*
X875078Y91840D01*
X875006Y91876D01*
X874936Y91916D01*
X874869Y91959D01*
X874803Y92005D01*
X874740Y92055D01*
X874679Y92107D01*
X874620Y92162D01*
X874565Y92221D01*
X874513Y92281D01*
X874463Y92345D01*
X874417Y92410D01*
X874374Y92478D01*
X874334Y92548D01*
X874298Y92620D01*
X874266Y92694D01*
X874237Y92768D01*
X874212Y92845D01*
X874190Y92922D01*
X874172Y93001D01*
X874159Y93080D01*
X874149Y93159D01*
X874143Y93240D01*
X874141Y93320D01*
X874141Y94957D01*
X877824Y99183D02*
X877993Y99181D01*
X878161Y99175D01*
X878329Y99165D01*
X878497Y99151D01*
X878665Y99132D01*
X878832Y99110D01*
X878998Y99084D01*
X879164Y99054D01*
X879329Y99019D01*
X879493Y98981D01*
X879657Y98939D01*
X879819Y98893D01*
X879980Y98843D01*
X880140Y98789D01*
X880298Y98732D01*
X880455Y98670D01*
X880610Y98605D01*
X880764Y98536D01*
X880916Y98464D01*
X881067Y98388D01*
X881215Y98308D01*
X881362Y98225D01*
X881506Y98138D01*
X881649Y98047D01*
X881789Y97954D01*
X881927Y97857D01*
X882062Y97756D01*
X882195Y97653D01*
X882325Y97546D01*
X877824Y99183D02*
X877655Y99181D01*
X877487Y99175D01*
X877319Y99165D01*
X877151Y99151D01*
X876983Y99132D01*
X876816Y99110D01*
X876650Y99084D01*
X876484Y99054D01*
X876319Y99019D01*
X876155Y98981D01*
X875991Y98939D01*
X875829Y98893D01*
X875668Y98843D01*
X875508Y98789D01*
X875350Y98732D01*
X875193Y98670D01*
X875038Y98605D01*
X874884Y98536D01*
X874732Y98464D01*
X874581Y98388D01*
X874433Y98308D01*
X874286Y98225D01*
X874142Y98138D01*
X873999Y98047D01*
X873859Y97954D01*
X873721Y97857D01*
X873586Y97756D01*
X873453Y97653D01*
X873323Y97546D01*
D13*
X723900Y109220D02*
X723900Y68580D01*
X749300Y68580D01*
X749300Y109220D01*
X723900Y109220D01*
X736600Y95250D02*
X736600Y88900D01*
X742950Y78740D02*
X730250Y78740D01*
X736600Y88900D01*
X736600Y73660D01*
X742950Y78740D02*
X736600Y88900D01*
X742950Y88900D01*
X736600Y88900D02*
X730250Y88900D01*
D14*
X736600Y102870D03*
D15*
X736600Y59055D03*
X736600Y118745D03*
D12*
X751967Y77764D02*
X759333Y77764D01*
X756059Y80219D02*
X751967Y77764D01*
X756059Y80219D02*
X751967Y82674D01*
X759333Y82674D01*
X755650Y86248D02*
X755481Y86250D01*
X755313Y86256D01*
X755145Y86266D01*
X754977Y86280D01*
X754809Y86299D01*
X754642Y86321D01*
X754476Y86347D01*
X754310Y86377D01*
X754145Y86412D01*
X753981Y86450D01*
X753817Y86492D01*
X753655Y86538D01*
X753494Y86588D01*
X753334Y86642D01*
X753176Y86699D01*
X753019Y86761D01*
X752864Y86826D01*
X752710Y86895D01*
X752558Y86967D01*
X752407Y87043D01*
X752259Y87123D01*
X752112Y87206D01*
X751968Y87293D01*
X751825Y87384D01*
X751685Y87477D01*
X751547Y87574D01*
X751412Y87675D01*
X751279Y87778D01*
X751149Y87885D01*
X755650Y86248D02*
X755819Y86250D01*
X755987Y86256D01*
X756155Y86266D01*
X756323Y86280D01*
X756491Y86299D01*
X756658Y86321D01*
X756824Y86347D01*
X756990Y86377D01*
X757155Y86412D01*
X757319Y86450D01*
X757483Y86492D01*
X757645Y86538D01*
X757806Y86588D01*
X757966Y86642D01*
X758124Y86699D01*
X758281Y86761D01*
X758436Y86826D01*
X758590Y86895D01*
X758742Y86967D01*
X758893Y87043D01*
X759041Y87123D01*
X759188Y87206D01*
X759332Y87293D01*
X759475Y87384D01*
X759615Y87477D01*
X759753Y87574D01*
X759888Y87675D01*
X760021Y87778D01*
X760151Y87885D01*
X759333Y91096D02*
X751967Y91096D01*
X751967Y93142D01*
X751969Y93231D01*
X751975Y93320D01*
X751985Y93409D01*
X751998Y93497D01*
X752015Y93585D01*
X752037Y93672D01*
X752062Y93757D01*
X752090Y93842D01*
X752123Y93925D01*
X752159Y94007D01*
X752198Y94087D01*
X752241Y94165D01*
X752287Y94241D01*
X752337Y94316D01*
X752390Y94388D01*
X752446Y94457D01*
X752505Y94524D01*
X752566Y94589D01*
X752631Y94650D01*
X752698Y94709D01*
X752767Y94765D01*
X752839Y94818D01*
X752914Y94868D01*
X752990Y94914D01*
X753068Y94957D01*
X753148Y94996D01*
X753230Y95032D01*
X753313Y95065D01*
X753398Y95093D01*
X753483Y95118D01*
X753570Y95140D01*
X753658Y95157D01*
X753746Y95170D01*
X753835Y95180D01*
X753924Y95186D01*
X754013Y95188D01*
X754013Y95189D02*
X757287Y95189D01*
X757287Y95188D02*
X757376Y95186D01*
X757465Y95180D01*
X757554Y95170D01*
X757642Y95157D01*
X757730Y95140D01*
X757817Y95118D01*
X757902Y95093D01*
X757987Y95065D01*
X758070Y95032D01*
X758152Y94996D01*
X758232Y94957D01*
X758310Y94914D01*
X758386Y94868D01*
X758461Y94818D01*
X758533Y94765D01*
X758602Y94709D01*
X758669Y94650D01*
X758734Y94589D01*
X758795Y94524D01*
X758854Y94457D01*
X758910Y94388D01*
X758963Y94316D01*
X759013Y94241D01*
X759059Y94165D01*
X759102Y94087D01*
X759141Y94007D01*
X759177Y93925D01*
X759210Y93842D01*
X759238Y93757D01*
X759263Y93672D01*
X759285Y93585D01*
X759302Y93497D01*
X759315Y93409D01*
X759325Y93320D01*
X759331Y93231D01*
X759333Y93142D01*
X759333Y91096D01*
X760151Y98399D02*
X760021Y98506D01*
X759888Y98609D01*
X759753Y98710D01*
X759615Y98807D01*
X759475Y98900D01*
X759332Y98991D01*
X759188Y99078D01*
X759041Y99161D01*
X758893Y99241D01*
X758742Y99317D01*
X758590Y99389D01*
X758436Y99458D01*
X758281Y99523D01*
X758124Y99585D01*
X757966Y99642D01*
X757806Y99696D01*
X757645Y99746D01*
X757483Y99792D01*
X757319Y99834D01*
X757155Y99872D01*
X756990Y99907D01*
X756824Y99937D01*
X756658Y99963D01*
X756491Y99985D01*
X756323Y100004D01*
X756155Y100018D01*
X755987Y100028D01*
X755819Y100034D01*
X755650Y100036D01*
X755481Y100034D01*
X755313Y100028D01*
X755145Y100018D01*
X754977Y100004D01*
X754809Y99985D01*
X754642Y99963D01*
X754476Y99937D01*
X754310Y99907D01*
X754145Y99872D01*
X753981Y99834D01*
X753817Y99792D01*
X753655Y99746D01*
X753494Y99696D01*
X753334Y99642D01*
X753176Y99585D01*
X753019Y99523D01*
X752864Y99458D01*
X752710Y99389D01*
X752558Y99317D01*
X752407Y99241D01*
X752259Y99161D01*
X752112Y99078D01*
X751968Y98991D01*
X751825Y98900D01*
X751685Y98807D01*
X751547Y98710D01*
X751412Y98609D01*
X751279Y98506D01*
X751149Y98399D01*
D21*
X853440Y303530D02*
X863600Y303530D01*
D22*
X867809Y320630D02*
X867264Y320410D01*
X866714Y320204D01*
X866160Y320011D01*
X865600Y319832D01*
X865037Y319667D01*
X864469Y319515D01*
X863898Y319377D01*
X863324Y319253D01*
X862747Y319143D01*
X862168Y319047D01*
X861586Y318966D01*
X861002Y318898D01*
X860418Y318845D01*
X859831Y318806D01*
X859245Y318781D01*
X858657Y318770D01*
X858070Y318774D01*
X857483Y318792D01*
X856896Y318825D01*
X856311Y318871D01*
X855727Y318932D01*
X855144Y319007D01*
X854564Y319097D01*
X853985Y319200D01*
X853410Y319317D01*
X852837Y319449D01*
X852268Y319594D01*
X851703Y319753D01*
X851142Y319926D01*
X850585Y320112D01*
X850032Y320312D01*
X849485Y320525D01*
X848943Y320752D01*
X848407Y320991D01*
X847877Y321244D01*
X847353Y321510D01*
X846835Y321788D01*
X846325Y322078D01*
X845822Y322381D01*
X845326Y322696D01*
X844838Y323024D01*
X844358Y323362D01*
X843887Y323713D01*
X843424Y324075D01*
X842971Y324448D01*
X842526Y324832D01*
X842091Y325226D01*
X841666Y325631D01*
X841250Y326047D01*
X840845Y326472D01*
X840451Y326907D01*
X840067Y327352D01*
X839694Y327805D01*
X839332Y328268D01*
X838981Y328739D01*
X838643Y329219D01*
X838315Y329707D01*
X838000Y330203D01*
X837697Y330706D01*
X837407Y331216D01*
X837129Y331734D01*
X836863Y332258D01*
X836610Y332788D01*
X836371Y333324D01*
X836144Y333866D01*
X835931Y334413D01*
X835731Y334966D01*
X835545Y335523D01*
X835372Y336084D01*
X835213Y336649D01*
X835068Y337218D01*
X834936Y337791D01*
X834819Y338366D01*
X834716Y338945D01*
X834626Y339525D01*
X834551Y340108D01*
X834490Y340692D01*
X834444Y341277D01*
X834411Y341864D01*
X834393Y342451D01*
X834389Y343038D01*
X834400Y343626D01*
X834425Y344212D01*
X834464Y344799D01*
X834517Y345383D01*
X834585Y345967D01*
X834666Y346549D01*
X834762Y347128D01*
X834872Y347705D01*
X834996Y348279D01*
X835134Y348850D01*
X835286Y349418D01*
X835451Y349981D01*
X835630Y350541D01*
X835823Y351095D01*
X836029Y351645D01*
X836249Y352190D01*
D21*
X863600Y314135D02*
X863600Y303530D01*
D22*
X880790Y333611D02*
X881006Y334147D01*
X881210Y334688D01*
X881400Y335234D01*
X881577Y335784D01*
X881741Y336338D01*
X881891Y336896D01*
X882028Y337457D01*
X882152Y338022D01*
X882262Y338589D01*
X882358Y339159D01*
X882441Y339731D01*
X882510Y340304D01*
X882565Y340880D01*
X882607Y341456D01*
X882634Y342033D01*
X882648Y342611D01*
X882648Y343189D01*
X882634Y343767D01*
X882607Y344344D01*
X882565Y344920D01*
X882510Y345496D01*
X882441Y346069D01*
X882358Y346641D01*
X882262Y347211D01*
X882152Y347778D01*
X882028Y348343D01*
X881891Y348904D01*
X881741Y349462D01*
X881577Y350016D01*
X881400Y350566D01*
X881210Y351112D01*
X881006Y351653D01*
X880790Y352189D01*
D21*
X853440Y314135D02*
X853440Y303530D01*
D22*
X849231Y365170D02*
X849767Y365386D01*
X850308Y365590D01*
X850854Y365780D01*
X851404Y365957D01*
X851958Y366121D01*
X852516Y366271D01*
X853077Y366408D01*
X853642Y366532D01*
X854209Y366642D01*
X854779Y366738D01*
X855351Y366821D01*
X855924Y366890D01*
X856500Y366945D01*
X857076Y366987D01*
X857653Y367014D01*
X858231Y367028D01*
X858809Y367028D01*
X859387Y367014D01*
X859964Y366987D01*
X860540Y366945D01*
X861116Y366890D01*
X861689Y366821D01*
X862261Y366738D01*
X862831Y366642D01*
X863398Y366532D01*
X863963Y366408D01*
X864524Y366271D01*
X865082Y366121D01*
X865636Y365957D01*
X866186Y365780D01*
X866732Y365590D01*
X867273Y365386D01*
X867809Y365170D01*
D21*
X829310Y342900D02*
X829319Y343617D01*
X829345Y344333D01*
X829389Y345049D01*
X829451Y345763D01*
X829530Y346476D01*
X829626Y347186D01*
X829740Y347894D01*
X829871Y348599D01*
X830020Y349300D01*
X830185Y349997D01*
X830368Y350691D01*
X830568Y351379D01*
X830784Y352063D01*
X831017Y352741D01*
X831267Y353413D01*
X831533Y354078D01*
X831816Y354737D01*
X832114Y355389D01*
X832429Y356033D01*
X832759Y356669D01*
X833105Y357298D01*
X833466Y357917D01*
X833842Y358527D01*
X834233Y359128D01*
X834638Y359719D01*
X835058Y360300D01*
X835492Y360871D01*
X835940Y361431D01*
X836402Y361979D01*
X836877Y362516D01*
X837365Y363041D01*
X837865Y363555D01*
X838379Y364055D01*
X838904Y364543D01*
X839441Y365018D01*
X839989Y365480D01*
X840549Y365928D01*
X841120Y366362D01*
X841701Y366782D01*
X842292Y367187D01*
X842893Y367578D01*
X843503Y367954D01*
X844122Y368315D01*
X844751Y368661D01*
X845387Y368991D01*
X846031Y369306D01*
X846683Y369604D01*
X847342Y369887D01*
X848007Y370153D01*
X848679Y370403D01*
X849357Y370636D01*
X850041Y370852D01*
X850729Y371052D01*
X851423Y371235D01*
X852120Y371400D01*
X852821Y371549D01*
X853526Y371680D01*
X854234Y371794D01*
X854944Y371890D01*
X855657Y371969D01*
X856371Y372031D01*
X857087Y372075D01*
X857803Y372101D01*
X858520Y372110D01*
X859237Y372101D01*
X859953Y372075D01*
X860669Y372031D01*
X861383Y371969D01*
X862096Y371890D01*
X862806Y371794D01*
X863514Y371680D01*
X864219Y371549D01*
X864920Y371400D01*
X865617Y371235D01*
X866311Y371052D01*
X866999Y370852D01*
X867683Y370636D01*
X868361Y370403D01*
X869033Y370153D01*
X869698Y369887D01*
X870357Y369604D01*
X871009Y369306D01*
X871653Y368991D01*
X872289Y368661D01*
X872918Y368315D01*
X873537Y367954D01*
X874147Y367578D01*
X874748Y367187D01*
X875339Y366782D01*
X875920Y366362D01*
X876491Y365928D01*
X877051Y365480D01*
X877599Y365018D01*
X878136Y364543D01*
X878661Y364055D01*
X879175Y363555D01*
X879675Y363041D01*
X880163Y362516D01*
X880638Y361979D01*
X881100Y361431D01*
X881548Y360871D01*
X881982Y360300D01*
X882402Y359719D01*
X882807Y359128D01*
X883198Y358527D01*
X883574Y357917D01*
X883935Y357298D01*
X884281Y356669D01*
X884611Y356033D01*
X884926Y355389D01*
X885224Y354737D01*
X885507Y354078D01*
X885773Y353413D01*
X886023Y352741D01*
X886256Y352063D01*
X886472Y351379D01*
X886672Y350691D01*
X886855Y349997D01*
X887020Y349300D01*
X887169Y348599D01*
X887300Y347894D01*
X887414Y347186D01*
X887510Y346476D01*
X887589Y345763D01*
X887651Y345049D01*
X887695Y344333D01*
X887721Y343617D01*
X887730Y342900D01*
X887721Y342183D01*
X887695Y341467D01*
X887651Y340751D01*
X887589Y340037D01*
X887510Y339324D01*
X887414Y338614D01*
X887300Y337906D01*
X887169Y337201D01*
X887020Y336500D01*
X886855Y335803D01*
X886672Y335109D01*
X886472Y334421D01*
X886256Y333737D01*
X886023Y333059D01*
X885773Y332387D01*
X885507Y331722D01*
X885224Y331063D01*
X884926Y330411D01*
X884611Y329767D01*
X884281Y329131D01*
X883935Y328502D01*
X883574Y327883D01*
X883198Y327273D01*
X882807Y326672D01*
X882402Y326081D01*
X881982Y325500D01*
X881548Y324929D01*
X881100Y324369D01*
X880638Y323821D01*
X880163Y323284D01*
X879675Y322759D01*
X879175Y322245D01*
X878661Y321745D01*
X878136Y321257D01*
X877599Y320782D01*
X877051Y320320D01*
X876491Y319872D01*
X875920Y319438D01*
X875339Y319018D01*
X874748Y318613D01*
X874147Y318222D01*
X873537Y317846D01*
X872918Y317485D01*
X872289Y317139D01*
X871653Y316809D01*
X871009Y316494D01*
X870357Y316196D01*
X869698Y315913D01*
X869033Y315647D01*
X868361Y315397D01*
X867683Y315164D01*
X866999Y314948D01*
X866311Y314748D01*
X865617Y314565D01*
X864920Y314400D01*
X864219Y314251D01*
X863514Y314120D01*
X862806Y314006D01*
X862096Y313910D01*
X861383Y313831D01*
X860669Y313769D01*
X859953Y313725D01*
X859237Y313699D01*
X858520Y313690D01*
X857803Y313699D01*
X857087Y313725D01*
X856371Y313769D01*
X855657Y313831D01*
X854944Y313910D01*
X854234Y314006D01*
X853526Y314120D01*
X852821Y314251D01*
X852120Y314400D01*
X851423Y314565D01*
X850729Y314748D01*
X850041Y314948D01*
X849357Y315164D01*
X848679Y315397D01*
X848007Y315647D01*
X847342Y315913D01*
X846683Y316196D01*
X846031Y316494D01*
X845387Y316809D01*
X844751Y317139D01*
X844122Y317485D01*
X843503Y317846D01*
X842893Y318222D01*
X842292Y318613D01*
X841701Y319018D01*
X841120Y319438D01*
X840549Y319872D01*
X839989Y320320D01*
X839441Y320782D01*
X838904Y321257D01*
X838379Y321745D01*
X837865Y322245D01*
X837365Y322759D01*
X836877Y323284D01*
X836402Y323821D01*
X835940Y324369D01*
X835492Y324929D01*
X835058Y325500D01*
X834638Y326081D01*
X834233Y326672D01*
X833842Y327273D01*
X833466Y327883D01*
X833105Y328502D01*
X832759Y329131D01*
X832429Y329767D01*
X832114Y330411D01*
X831816Y331063D01*
X831533Y331722D01*
X831267Y332387D01*
X831017Y333059D01*
X830784Y333737D01*
X830568Y334421D01*
X830368Y335109D01*
X830185Y335803D01*
X830020Y336500D01*
X829871Y337201D01*
X829740Y337906D01*
X829626Y338614D01*
X829530Y339324D01*
X829451Y340037D01*
X829389Y340751D01*
X829345Y341467D01*
X829319Y342183D01*
X829310Y342900D01*
D12*
X848115Y339217D02*
X848115Y346583D01*
X850570Y342491D01*
X853026Y346583D01*
X853026Y339217D01*
X856600Y342900D02*
X856602Y343069D01*
X856608Y343237D01*
X856618Y343405D01*
X856632Y343573D01*
X856651Y343741D01*
X856673Y343908D01*
X856699Y344074D01*
X856729Y344240D01*
X856764Y344405D01*
X856802Y344569D01*
X856844Y344733D01*
X856890Y344895D01*
X856940Y345056D01*
X856994Y345216D01*
X857051Y345374D01*
X857113Y345531D01*
X857178Y345686D01*
X857247Y345840D01*
X857319Y345992D01*
X857395Y346143D01*
X857475Y346291D01*
X857558Y346438D01*
X857645Y346582D01*
X857736Y346725D01*
X857829Y346865D01*
X857926Y347003D01*
X858027Y347138D01*
X858130Y347271D01*
X858237Y347401D01*
X856600Y342900D02*
X856602Y342731D01*
X856608Y342563D01*
X856618Y342395D01*
X856632Y342227D01*
X856651Y342059D01*
X856673Y341892D01*
X856699Y341726D01*
X856729Y341560D01*
X856764Y341395D01*
X856802Y341231D01*
X856844Y341067D01*
X856890Y340905D01*
X856940Y340744D01*
X856994Y340584D01*
X857051Y340426D01*
X857113Y340269D01*
X857178Y340114D01*
X857247Y339960D01*
X857319Y339808D01*
X857395Y339657D01*
X857475Y339509D01*
X857558Y339362D01*
X857645Y339218D01*
X857736Y339075D01*
X857829Y338935D01*
X857926Y338797D01*
X858027Y338662D01*
X858130Y338529D01*
X858237Y338399D01*
X862762Y339217D02*
X862762Y346583D01*
X860716Y346583D02*
X864809Y346583D01*
X868925Y342900D02*
X868923Y342731D01*
X868917Y342563D01*
X868907Y342395D01*
X868893Y342227D01*
X868874Y342059D01*
X868852Y341892D01*
X868826Y341726D01*
X868796Y341560D01*
X868761Y341395D01*
X868723Y341231D01*
X868681Y341067D01*
X868635Y340905D01*
X868585Y340744D01*
X868531Y340584D01*
X868474Y340426D01*
X868412Y340269D01*
X868347Y340114D01*
X868278Y339960D01*
X868206Y339808D01*
X868130Y339657D01*
X868050Y339509D01*
X867967Y339362D01*
X867880Y339218D01*
X867789Y339075D01*
X867696Y338935D01*
X867599Y338797D01*
X867498Y338662D01*
X867395Y338529D01*
X867288Y338399D01*
X868925Y342900D02*
X868923Y343069D01*
X868917Y343237D01*
X868907Y343405D01*
X868893Y343573D01*
X868874Y343741D01*
X868852Y343908D01*
X868826Y344074D01*
X868796Y344240D01*
X868761Y344405D01*
X868723Y344569D01*
X868681Y344733D01*
X868635Y344895D01*
X868585Y345056D01*
X868531Y345216D01*
X868474Y345374D01*
X868412Y345531D01*
X868347Y345686D01*
X868278Y345840D01*
X868206Y345992D01*
X868130Y346143D01*
X868050Y346291D01*
X867967Y346438D01*
X867880Y346582D01*
X867789Y346725D01*
X867696Y346865D01*
X867599Y347003D01*
X867498Y347138D01*
X867395Y347271D01*
X867288Y347401D01*
D13*
X689610Y311150D02*
X689510Y311152D01*
X689411Y311158D01*
X689311Y311168D01*
X689213Y311181D01*
X689114Y311199D01*
X689017Y311220D01*
X688921Y311245D01*
X688825Y311274D01*
X688731Y311307D01*
X688638Y311343D01*
X688547Y311383D01*
X688457Y311427D01*
X688369Y311474D01*
X688283Y311524D01*
X688199Y311578D01*
X688117Y311635D01*
X688038Y311695D01*
X687960Y311759D01*
X687886Y311825D01*
X687814Y311894D01*
X687745Y311966D01*
X687679Y312040D01*
X687615Y312118D01*
X687555Y312197D01*
X687498Y312279D01*
X687444Y312363D01*
X687394Y312449D01*
X687347Y312537D01*
X687303Y312627D01*
X687263Y312718D01*
X687227Y312811D01*
X687194Y312905D01*
X687165Y313001D01*
X687140Y313097D01*
X687119Y313194D01*
X687101Y313293D01*
X687088Y313391D01*
X687078Y313491D01*
X687072Y313590D01*
X687070Y313690D01*
X707390Y311150D02*
X707490Y311152D01*
X707589Y311158D01*
X707689Y311168D01*
X707787Y311181D01*
X707886Y311199D01*
X707983Y311220D01*
X708079Y311245D01*
X708175Y311274D01*
X708269Y311307D01*
X708362Y311343D01*
X708453Y311383D01*
X708543Y311427D01*
X708631Y311474D01*
X708717Y311524D01*
X708801Y311578D01*
X708883Y311635D01*
X708962Y311695D01*
X709040Y311759D01*
X709114Y311825D01*
X709186Y311894D01*
X709255Y311966D01*
X709321Y312040D01*
X709385Y312118D01*
X709445Y312197D01*
X709502Y312279D01*
X709556Y312363D01*
X709606Y312449D01*
X709653Y312537D01*
X709697Y312627D01*
X709737Y312718D01*
X709773Y312811D01*
X709806Y312905D01*
X709835Y313001D01*
X709860Y313097D01*
X709881Y313194D01*
X709899Y313293D01*
X709912Y313391D01*
X709922Y313491D01*
X709928Y313590D01*
X709930Y313690D01*
X709930Y372110D02*
X709928Y372210D01*
X709922Y372309D01*
X709912Y372409D01*
X709899Y372507D01*
X709881Y372606D01*
X709860Y372703D01*
X709835Y372799D01*
X709806Y372895D01*
X709773Y372989D01*
X709737Y373082D01*
X709697Y373173D01*
X709653Y373263D01*
X709606Y373351D01*
X709556Y373437D01*
X709502Y373521D01*
X709445Y373603D01*
X709385Y373682D01*
X709321Y373760D01*
X709255Y373834D01*
X709186Y373906D01*
X709114Y373975D01*
X709040Y374041D01*
X708962Y374105D01*
X708883Y374165D01*
X708801Y374222D01*
X708717Y374276D01*
X708631Y374326D01*
X708543Y374373D01*
X708453Y374417D01*
X708362Y374457D01*
X708269Y374493D01*
X708175Y374526D01*
X708079Y374555D01*
X707983Y374580D01*
X707886Y374601D01*
X707787Y374619D01*
X707689Y374632D01*
X707589Y374642D01*
X707490Y374648D01*
X707390Y374650D01*
X689610Y374650D02*
X689510Y374648D01*
X689411Y374642D01*
X689311Y374632D01*
X689213Y374619D01*
X689114Y374601D01*
X689017Y374580D01*
X688921Y374555D01*
X688825Y374526D01*
X688731Y374493D01*
X688638Y374457D01*
X688547Y374417D01*
X688457Y374373D01*
X688369Y374326D01*
X688283Y374276D01*
X688199Y374222D01*
X688117Y374165D01*
X688038Y374105D01*
X687960Y374041D01*
X687886Y373975D01*
X687814Y373906D01*
X687745Y373834D01*
X687679Y373760D01*
X687615Y373682D01*
X687555Y373603D01*
X687498Y373521D01*
X687444Y373437D01*
X687394Y373351D01*
X687347Y373263D01*
X687303Y373173D01*
X687263Y373082D01*
X687227Y372989D01*
X687194Y372895D01*
X687165Y372799D01*
X687140Y372703D01*
X687119Y372606D01*
X687101Y372507D01*
X687088Y372409D01*
X687078Y372309D01*
X687072Y372210D01*
X687070Y372110D01*
X689610Y311150D02*
X707390Y311150D01*
X687070Y313690D02*
X687070Y317500D01*
X688340Y318770D01*
X709930Y317500D02*
X709930Y313690D01*
X709930Y317500D02*
X708660Y318770D01*
X688340Y367030D02*
X687070Y368300D01*
X688340Y367030D02*
X688340Y318770D01*
X708660Y367030D02*
X709930Y368300D01*
X708660Y367030D02*
X708660Y318770D01*
X687070Y368300D02*
X687070Y372110D01*
X709930Y372110D02*
X709930Y368300D01*
X707390Y374650D02*
X689610Y374650D01*
D16*
X698500Y378968D03*
X698500Y306832D03*
D12*
X702183Y331886D02*
X694817Y331886D01*
X698909Y334341D01*
X694817Y336796D01*
X702183Y336796D01*
X698500Y340370D02*
X698331Y340372D01*
X698163Y340378D01*
X697995Y340388D01*
X697827Y340402D01*
X697659Y340421D01*
X697492Y340443D01*
X697326Y340469D01*
X697160Y340499D01*
X696995Y340534D01*
X696831Y340572D01*
X696667Y340614D01*
X696505Y340660D01*
X696344Y340710D01*
X696184Y340764D01*
X696026Y340821D01*
X695869Y340883D01*
X695714Y340948D01*
X695560Y341017D01*
X695408Y341089D01*
X695257Y341165D01*
X695109Y341245D01*
X694962Y341328D01*
X694818Y341415D01*
X694675Y341506D01*
X694535Y341599D01*
X694397Y341696D01*
X694262Y341797D01*
X694129Y341900D01*
X693999Y342007D01*
X698500Y340370D02*
X698669Y340372D01*
X698837Y340378D01*
X699005Y340388D01*
X699173Y340402D01*
X699341Y340421D01*
X699508Y340443D01*
X699674Y340469D01*
X699840Y340499D01*
X700005Y340534D01*
X700169Y340572D01*
X700333Y340614D01*
X700495Y340660D01*
X700656Y340710D01*
X700816Y340764D01*
X700974Y340821D01*
X701131Y340883D01*
X701286Y340948D01*
X701440Y341017D01*
X701592Y341089D01*
X701743Y341165D01*
X701891Y341245D01*
X702038Y341328D01*
X702182Y341415D01*
X702325Y341506D01*
X702465Y341599D01*
X702603Y341696D01*
X702738Y341797D01*
X702871Y341900D01*
X703001Y342007D01*
X702183Y345269D02*
X694817Y345269D01*
X694817Y347316D01*
X694819Y347405D01*
X694825Y347494D01*
X694835Y347583D01*
X694848Y347671D01*
X694865Y347759D01*
X694887Y347846D01*
X694912Y347931D01*
X694940Y348016D01*
X694973Y348099D01*
X695009Y348181D01*
X695048Y348261D01*
X695091Y348339D01*
X695137Y348415D01*
X695187Y348490D01*
X695240Y348562D01*
X695296Y348631D01*
X695355Y348698D01*
X695416Y348763D01*
X695481Y348824D01*
X695548Y348883D01*
X695617Y348939D01*
X695689Y348992D01*
X695764Y349042D01*
X695840Y349088D01*
X695918Y349131D01*
X695998Y349170D01*
X696080Y349206D01*
X696163Y349239D01*
X696248Y349267D01*
X696333Y349292D01*
X696420Y349314D01*
X696508Y349331D01*
X696596Y349344D01*
X696685Y349354D01*
X696774Y349360D01*
X696863Y349362D01*
X696952Y349360D01*
X697041Y349354D01*
X697130Y349344D01*
X697218Y349331D01*
X697306Y349314D01*
X697393Y349292D01*
X697478Y349267D01*
X697563Y349239D01*
X697646Y349206D01*
X697728Y349170D01*
X697808Y349131D01*
X697886Y349088D01*
X697962Y349042D01*
X698037Y348992D01*
X698109Y348939D01*
X698178Y348883D01*
X698245Y348824D01*
X698310Y348763D01*
X698371Y348698D01*
X698430Y348631D01*
X698486Y348562D01*
X698539Y348490D01*
X698589Y348415D01*
X698635Y348339D01*
X698678Y348261D01*
X698717Y348181D01*
X698753Y348099D01*
X698786Y348016D01*
X698814Y347931D01*
X698839Y347846D01*
X698861Y347759D01*
X698878Y347671D01*
X698891Y347583D01*
X698901Y347494D01*
X698907Y347405D01*
X698909Y347316D01*
X698909Y345269D01*
X698909Y347725D02*
X702183Y349362D01*
X703001Y352278D02*
X702871Y352385D01*
X702738Y352488D01*
X702603Y352589D01*
X702465Y352686D01*
X702325Y352779D01*
X702182Y352870D01*
X702038Y352957D01*
X701891Y353040D01*
X701743Y353120D01*
X701592Y353196D01*
X701440Y353268D01*
X701286Y353337D01*
X701131Y353402D01*
X700974Y353464D01*
X700816Y353521D01*
X700656Y353575D01*
X700495Y353625D01*
X700333Y353671D01*
X700169Y353713D01*
X700005Y353751D01*
X699840Y353786D01*
X699674Y353816D01*
X699508Y353842D01*
X699341Y353864D01*
X699173Y353883D01*
X699005Y353897D01*
X698837Y353907D01*
X698669Y353913D01*
X698500Y353915D01*
X698331Y353913D01*
X698163Y353907D01*
X697995Y353897D01*
X697827Y353883D01*
X697659Y353864D01*
X697492Y353842D01*
X697326Y353816D01*
X697160Y353786D01*
X696995Y353751D01*
X696831Y353713D01*
X696667Y353671D01*
X696505Y353625D01*
X696344Y353575D01*
X696184Y353521D01*
X696026Y353464D01*
X695869Y353402D01*
X695714Y353337D01*
X695560Y353268D01*
X695408Y353196D01*
X695257Y353120D01*
X695109Y353040D01*
X694962Y352957D01*
X694818Y352870D01*
X694675Y352779D01*
X694535Y352686D01*
X694397Y352589D01*
X694262Y352488D01*
X694129Y352385D01*
X693999Y352278D01*
D13*
X707700Y122420D02*
X707700Y80780D01*
X707700Y122420D02*
X689300Y122420D01*
X689300Y80780D01*
X707700Y80780D01*
X698500Y95250D02*
X698500Y101600D01*
X692150Y111760D02*
X704850Y111760D01*
X698500Y101600D01*
X698500Y116840D01*
X692150Y111760D02*
X698500Y101600D01*
X692150Y101600D01*
X698500Y101600D02*
X704850Y101600D01*
D23*
X698650Y87630D03*
D24*
X698500Y125595D03*
X698500Y77605D03*
D12*
X709803Y77253D02*
X717169Y78890D01*
X712258Y80527D01*
X717169Y82164D01*
X709803Y83800D01*
X709803Y87066D02*
X717169Y87066D01*
X709803Y87066D02*
X709803Y89112D01*
X709805Y89201D01*
X709811Y89290D01*
X709821Y89379D01*
X709834Y89467D01*
X709851Y89555D01*
X709873Y89642D01*
X709898Y89727D01*
X709926Y89812D01*
X709959Y89895D01*
X709995Y89977D01*
X710034Y90057D01*
X710077Y90135D01*
X710123Y90211D01*
X710173Y90286D01*
X710226Y90358D01*
X710282Y90427D01*
X710341Y90494D01*
X710402Y90559D01*
X710467Y90620D01*
X710534Y90679D01*
X710603Y90735D01*
X710675Y90788D01*
X710750Y90838D01*
X710826Y90884D01*
X710904Y90927D01*
X710984Y90966D01*
X711066Y91002D01*
X711149Y91035D01*
X711234Y91063D01*
X711319Y91088D01*
X711406Y91110D01*
X711494Y91127D01*
X711582Y91140D01*
X711671Y91150D01*
X711760Y91156D01*
X711849Y91158D01*
X711938Y91156D01*
X712027Y91150D01*
X712116Y91140D01*
X712204Y91127D01*
X712292Y91110D01*
X712379Y91088D01*
X712464Y91063D01*
X712549Y91035D01*
X712632Y91002D01*
X712714Y90966D01*
X712794Y90927D01*
X712872Y90884D01*
X712948Y90838D01*
X713023Y90788D01*
X713095Y90735D01*
X713164Y90679D01*
X713231Y90620D01*
X713296Y90559D01*
X713357Y90494D01*
X713416Y90427D01*
X713472Y90358D01*
X713525Y90286D01*
X713575Y90211D01*
X713621Y90135D01*
X713664Y90057D01*
X713703Y89977D01*
X713739Y89895D01*
X713772Y89812D01*
X713800Y89727D01*
X713825Y89642D01*
X713847Y89555D01*
X713864Y89467D01*
X713877Y89379D01*
X713887Y89290D01*
X713893Y89201D01*
X713895Y89112D01*
X713895Y87066D01*
X713895Y89521D02*
X717169Y91158D01*
X717169Y93977D02*
X716760Y93977D01*
X716760Y94386D01*
X717169Y94386D01*
X717169Y93977D01*
X717169Y97618D02*
X709803Y97618D01*
X709803Y99664D01*
X709805Y99753D01*
X709811Y99842D01*
X709821Y99931D01*
X709834Y100019D01*
X709851Y100107D01*
X709873Y100194D01*
X709898Y100279D01*
X709926Y100364D01*
X709959Y100447D01*
X709995Y100529D01*
X710034Y100609D01*
X710077Y100687D01*
X710123Y100763D01*
X710173Y100838D01*
X710226Y100910D01*
X710282Y100979D01*
X710341Y101046D01*
X710402Y101111D01*
X710467Y101172D01*
X710534Y101231D01*
X710603Y101287D01*
X710675Y101340D01*
X710750Y101390D01*
X710826Y101436D01*
X710904Y101479D01*
X710984Y101518D01*
X711066Y101554D01*
X711149Y101587D01*
X711234Y101615D01*
X711319Y101640D01*
X711406Y101662D01*
X711494Y101679D01*
X711582Y101692D01*
X711671Y101702D01*
X711760Y101708D01*
X711849Y101710D01*
X711938Y101708D01*
X712027Y101702D01*
X712116Y101692D01*
X712204Y101679D01*
X712292Y101662D01*
X712379Y101640D01*
X712464Y101615D01*
X712549Y101587D01*
X712632Y101554D01*
X712714Y101518D01*
X712794Y101479D01*
X712872Y101436D01*
X712948Y101390D01*
X713023Y101340D01*
X713095Y101287D01*
X713164Y101231D01*
X713231Y101172D01*
X713296Y101111D01*
X713357Y101046D01*
X713416Y100979D01*
X713472Y100910D01*
X713525Y100838D01*
X713575Y100763D01*
X713621Y100687D01*
X713664Y100609D01*
X713703Y100529D01*
X713739Y100447D01*
X713772Y100364D01*
X713800Y100279D01*
X713825Y100194D01*
X713847Y100107D01*
X713864Y100019D01*
X713877Y99931D01*
X713887Y99842D01*
X713893Y99753D01*
X713895Y99664D01*
X713895Y97618D01*
X717169Y104866D02*
X709803Y104866D01*
X709803Y106912D01*
X709805Y107001D01*
X709811Y107090D01*
X709821Y107179D01*
X709834Y107267D01*
X709851Y107355D01*
X709873Y107442D01*
X709898Y107527D01*
X709926Y107612D01*
X709959Y107695D01*
X709995Y107777D01*
X710034Y107857D01*
X710077Y107935D01*
X710123Y108011D01*
X710173Y108086D01*
X710226Y108158D01*
X710282Y108227D01*
X710341Y108294D01*
X710402Y108359D01*
X710467Y108420D01*
X710534Y108479D01*
X710603Y108535D01*
X710675Y108588D01*
X710750Y108638D01*
X710826Y108684D01*
X710904Y108727D01*
X710984Y108766D01*
X711066Y108802D01*
X711149Y108835D01*
X711234Y108863D01*
X711319Y108888D01*
X711406Y108910D01*
X711494Y108927D01*
X711582Y108940D01*
X711671Y108950D01*
X711760Y108956D01*
X711849Y108958D01*
X711938Y108956D01*
X712027Y108950D01*
X712116Y108940D01*
X712204Y108927D01*
X712292Y108910D01*
X712379Y108888D01*
X712464Y108863D01*
X712549Y108835D01*
X712632Y108802D01*
X712714Y108766D01*
X712794Y108727D01*
X712872Y108684D01*
X712948Y108638D01*
X713023Y108588D01*
X713095Y108535D01*
X713164Y108479D01*
X713231Y108420D01*
X713296Y108359D01*
X713357Y108294D01*
X713416Y108227D01*
X713472Y108158D01*
X713525Y108086D01*
X713575Y108011D01*
X713621Y107935D01*
X713664Y107857D01*
X713703Y107777D01*
X713739Y107695D01*
X713772Y107612D01*
X713800Y107527D01*
X713825Y107442D01*
X713847Y107355D01*
X713864Y107267D01*
X713877Y107179D01*
X713887Y107090D01*
X713893Y107001D01*
X713895Y106912D01*
X713895Y104866D01*
X713895Y107322D02*
X717169Y108959D01*
X713486Y112159D02*
X713317Y112161D01*
X713149Y112167D01*
X712981Y112177D01*
X712813Y112191D01*
X712645Y112210D01*
X712478Y112232D01*
X712312Y112258D01*
X712146Y112288D01*
X711981Y112323D01*
X711817Y112361D01*
X711653Y112403D01*
X711491Y112449D01*
X711330Y112499D01*
X711170Y112553D01*
X711012Y112610D01*
X710855Y112672D01*
X710700Y112737D01*
X710546Y112806D01*
X710394Y112878D01*
X710243Y112954D01*
X710095Y113034D01*
X709948Y113117D01*
X709804Y113204D01*
X709661Y113295D01*
X709521Y113388D01*
X709383Y113485D01*
X709248Y113586D01*
X709115Y113689D01*
X708985Y113796D01*
X713486Y112159D02*
X713655Y112161D01*
X713823Y112167D01*
X713991Y112177D01*
X714159Y112191D01*
X714327Y112210D01*
X714494Y112232D01*
X714660Y112258D01*
X714826Y112288D01*
X714991Y112323D01*
X715155Y112361D01*
X715319Y112403D01*
X715481Y112449D01*
X715642Y112499D01*
X715802Y112553D01*
X715960Y112610D01*
X716117Y112672D01*
X716272Y112737D01*
X716426Y112806D01*
X716578Y112878D01*
X716729Y112954D01*
X716877Y113034D01*
X717024Y113117D01*
X717168Y113204D01*
X717311Y113295D01*
X717451Y113388D01*
X717589Y113485D01*
X717724Y113586D01*
X717857Y113689D01*
X717987Y113796D01*
X717169Y117007D02*
X709803Y117007D01*
X709803Y119053D01*
X709805Y119142D01*
X709811Y119231D01*
X709821Y119320D01*
X709834Y119408D01*
X709851Y119496D01*
X709873Y119583D01*
X709898Y119668D01*
X709926Y119753D01*
X709959Y119836D01*
X709995Y119918D01*
X710034Y119998D01*
X710077Y120076D01*
X710123Y120152D01*
X710173Y120227D01*
X710226Y120299D01*
X710282Y120368D01*
X710341Y120435D01*
X710402Y120500D01*
X710467Y120561D01*
X710534Y120620D01*
X710603Y120676D01*
X710675Y120729D01*
X710750Y120779D01*
X710826Y120825D01*
X710904Y120868D01*
X710984Y120907D01*
X711066Y120943D01*
X711149Y120976D01*
X711234Y121004D01*
X711319Y121029D01*
X711406Y121051D01*
X711494Y121068D01*
X711582Y121081D01*
X711671Y121091D01*
X711760Y121097D01*
X711849Y121099D01*
X715123Y121099D01*
X715212Y121097D01*
X715301Y121091D01*
X715390Y121081D01*
X715478Y121068D01*
X715566Y121051D01*
X715653Y121029D01*
X715738Y121004D01*
X715823Y120976D01*
X715906Y120943D01*
X715988Y120907D01*
X716068Y120868D01*
X716146Y120825D01*
X716222Y120779D01*
X716297Y120729D01*
X716369Y120676D01*
X716438Y120620D01*
X716505Y120561D01*
X716570Y120500D01*
X716631Y120435D01*
X716690Y120368D01*
X716746Y120299D01*
X716799Y120227D01*
X716849Y120152D01*
X716895Y120076D01*
X716938Y119998D01*
X716977Y119918D01*
X717013Y119836D01*
X717046Y119753D01*
X717074Y119668D01*
X717099Y119583D01*
X717121Y119496D01*
X717138Y119408D01*
X717151Y119320D01*
X717161Y119231D01*
X717167Y119142D01*
X717169Y119053D01*
X717169Y117007D01*
X717987Y124310D02*
X717857Y124417D01*
X717724Y124520D01*
X717589Y124621D01*
X717451Y124718D01*
X717311Y124811D01*
X717168Y124902D01*
X717024Y124989D01*
X716877Y125072D01*
X716729Y125152D01*
X716578Y125228D01*
X716426Y125300D01*
X716272Y125369D01*
X716117Y125434D01*
X715960Y125496D01*
X715802Y125553D01*
X715642Y125607D01*
X715481Y125657D01*
X715319Y125703D01*
X715155Y125745D01*
X714991Y125783D01*
X714826Y125818D01*
X714660Y125848D01*
X714494Y125874D01*
X714327Y125896D01*
X714159Y125915D01*
X713991Y125929D01*
X713823Y125939D01*
X713655Y125945D01*
X713486Y125947D01*
X713317Y125945D01*
X713149Y125939D01*
X712981Y125929D01*
X712813Y125915D01*
X712645Y125896D01*
X712478Y125874D01*
X712312Y125848D01*
X712146Y125818D01*
X711981Y125783D01*
X711817Y125745D01*
X711653Y125703D01*
X711491Y125657D01*
X711330Y125607D01*
X711170Y125553D01*
X711012Y125496D01*
X710855Y125434D01*
X710700Y125369D01*
X710546Y125300D01*
X710394Y125228D01*
X710243Y125152D01*
X710095Y125072D01*
X709948Y124989D01*
X709804Y124902D01*
X709661Y124811D01*
X709521Y124718D01*
X709383Y124621D01*
X709248Y124520D01*
X709115Y124417D01*
X708985Y124310D01*
D13*
X783900Y122420D02*
X783900Y80780D01*
X783900Y122420D02*
X765500Y122420D01*
X765500Y80780D01*
X783900Y80780D01*
X774700Y95250D02*
X774700Y101600D01*
X768350Y111760D02*
X781050Y111760D01*
X774700Y101600D01*
X774700Y116840D01*
X768350Y111760D02*
X774700Y101600D01*
X768350Y101600D01*
X774700Y101600D02*
X781050Y101600D01*
D23*
X774850Y87630D03*
D24*
X774700Y125595D03*
X774700Y77605D03*
D12*
X793369Y77631D02*
X793369Y80904D01*
X793369Y77631D02*
X786003Y77631D01*
X786003Y80904D01*
X789277Y80086D02*
X789277Y77631D01*
X786003Y84006D02*
X793369Y84006D01*
X786003Y84006D02*
X786003Y86052D01*
X786005Y86141D01*
X786011Y86230D01*
X786021Y86319D01*
X786034Y86407D01*
X786051Y86495D01*
X786073Y86582D01*
X786098Y86667D01*
X786126Y86752D01*
X786159Y86835D01*
X786195Y86917D01*
X786234Y86997D01*
X786277Y87075D01*
X786323Y87151D01*
X786373Y87226D01*
X786426Y87298D01*
X786482Y87367D01*
X786541Y87434D01*
X786602Y87499D01*
X786667Y87560D01*
X786734Y87619D01*
X786803Y87675D01*
X786875Y87728D01*
X786950Y87778D01*
X787026Y87824D01*
X787104Y87867D01*
X787184Y87906D01*
X787266Y87942D01*
X787349Y87975D01*
X787434Y88003D01*
X787519Y88028D01*
X787606Y88050D01*
X787694Y88067D01*
X787782Y88080D01*
X787871Y88090D01*
X787960Y88096D01*
X788049Y88098D01*
X788138Y88096D01*
X788227Y88090D01*
X788316Y88080D01*
X788404Y88067D01*
X788492Y88050D01*
X788579Y88028D01*
X788664Y88003D01*
X788749Y87975D01*
X788832Y87942D01*
X788914Y87906D01*
X788994Y87867D01*
X789072Y87824D01*
X789148Y87778D01*
X789223Y87728D01*
X789295Y87675D01*
X789364Y87619D01*
X789431Y87560D01*
X789496Y87499D01*
X789557Y87434D01*
X789616Y87367D01*
X789672Y87298D01*
X789725Y87226D01*
X789775Y87151D01*
X789821Y87075D01*
X789864Y86997D01*
X789903Y86917D01*
X789939Y86835D01*
X789972Y86752D01*
X790000Y86667D01*
X790025Y86582D01*
X790047Y86495D01*
X790064Y86407D01*
X790077Y86319D01*
X790087Y86230D01*
X790093Y86141D01*
X790095Y86052D01*
X790095Y84006D01*
X790095Y86461D02*
X793369Y88098D01*
X793369Y90861D02*
X786003Y93316D01*
X793369Y95771D01*
X791528Y95158D02*
X791528Y91475D01*
X793369Y100797D02*
X793367Y100875D01*
X793362Y100953D01*
X793352Y101030D01*
X793339Y101107D01*
X793323Y101183D01*
X793303Y101258D01*
X793279Y101332D01*
X793252Y101405D01*
X793221Y101477D01*
X793187Y101547D01*
X793150Y101616D01*
X793109Y101682D01*
X793065Y101747D01*
X793019Y101809D01*
X792969Y101869D01*
X792917Y101927D01*
X792862Y101982D01*
X792804Y102034D01*
X792744Y102084D01*
X792682Y102130D01*
X792617Y102174D01*
X792551Y102215D01*
X792482Y102252D01*
X792412Y102286D01*
X792340Y102317D01*
X792267Y102344D01*
X792193Y102368D01*
X792118Y102388D01*
X792042Y102404D01*
X791965Y102417D01*
X791888Y102427D01*
X791810Y102432D01*
X791732Y102434D01*
X793369Y100797D02*
X793367Y100683D01*
X793362Y100570D01*
X793352Y100456D01*
X793339Y100343D01*
X793322Y100231D01*
X793302Y100119D01*
X793278Y100008D01*
X793250Y99897D01*
X793219Y99788D01*
X793184Y99680D01*
X793145Y99573D01*
X793103Y99467D01*
X793058Y99363D01*
X793009Y99260D01*
X792956Y99159D01*
X792901Y99060D01*
X792842Y98962D01*
X792780Y98867D01*
X792715Y98774D01*
X792647Y98682D01*
X792576Y98594D01*
X792502Y98507D01*
X792425Y98423D01*
X792346Y98342D01*
X787640Y98546D02*
X787562Y98548D01*
X787484Y98553D01*
X787407Y98563D01*
X787330Y98576D01*
X787254Y98592D01*
X787179Y98612D01*
X787105Y98636D01*
X787032Y98663D01*
X786960Y98694D01*
X786890Y98728D01*
X786822Y98765D01*
X786755Y98806D01*
X786690Y98850D01*
X786628Y98896D01*
X786568Y98946D01*
X786510Y98998D01*
X786455Y99053D01*
X786403Y99111D01*
X786353Y99171D01*
X786307Y99233D01*
X786263Y99298D01*
X786222Y99365D01*
X786185Y99433D01*
X786151Y99503D01*
X786120Y99575D01*
X786093Y99648D01*
X786069Y99722D01*
X786049Y99797D01*
X786033Y99873D01*
X786020Y99950D01*
X786010Y100027D01*
X786005Y100105D01*
X786003Y100183D01*
X786005Y100293D01*
X786011Y100402D01*
X786021Y100512D01*
X786034Y100620D01*
X786052Y100729D01*
X786073Y100836D01*
X786099Y100943D01*
X786128Y101049D01*
X786160Y101154D01*
X786197Y101257D01*
X786237Y101359D01*
X786281Y101460D01*
X786329Y101559D01*
X786379Y101656D01*
X786434Y101751D01*
X786492Y101844D01*
X786553Y101935D01*
X786617Y102024D01*
X789072Y99364D02*
X789030Y99298D01*
X788986Y99233D01*
X788938Y99171D01*
X788888Y99111D01*
X788835Y99053D01*
X788779Y98998D01*
X788721Y98945D01*
X788660Y98896D01*
X788597Y98849D01*
X788532Y98805D01*
X788465Y98765D01*
X788396Y98728D01*
X788325Y98694D01*
X788253Y98663D01*
X788179Y98636D01*
X788104Y98612D01*
X788029Y98592D01*
X787952Y98576D01*
X787875Y98563D01*
X787797Y98553D01*
X787718Y98548D01*
X787640Y98546D01*
X790299Y101615D02*
X790341Y101682D01*
X790385Y101747D01*
X790433Y101809D01*
X790483Y101869D01*
X790536Y101927D01*
X790592Y101982D01*
X790651Y102034D01*
X790711Y102084D01*
X790775Y102131D01*
X790840Y102174D01*
X790907Y102215D01*
X790976Y102252D01*
X791047Y102286D01*
X791119Y102317D01*
X791193Y102344D01*
X791267Y102368D01*
X791343Y102388D01*
X791420Y102404D01*
X791497Y102417D01*
X791575Y102427D01*
X791654Y102432D01*
X791732Y102434D01*
X790300Y101615D02*
X789072Y99364D01*
X793369Y105672D02*
X793369Y108946D01*
X793369Y105672D02*
X786003Y105672D01*
X786003Y108946D01*
X789277Y108128D02*
X789277Y105672D01*
X789686Y111781D02*
X789517Y111783D01*
X789349Y111789D01*
X789181Y111799D01*
X789013Y111813D01*
X788845Y111832D01*
X788678Y111854D01*
X788512Y111880D01*
X788346Y111910D01*
X788181Y111945D01*
X788017Y111983D01*
X787853Y112025D01*
X787691Y112071D01*
X787530Y112121D01*
X787370Y112175D01*
X787212Y112232D01*
X787055Y112294D01*
X786900Y112359D01*
X786746Y112428D01*
X786594Y112500D01*
X786443Y112576D01*
X786295Y112656D01*
X786148Y112739D01*
X786004Y112826D01*
X785861Y112917D01*
X785721Y113010D01*
X785583Y113107D01*
X785448Y113208D01*
X785315Y113311D01*
X785185Y113418D01*
X789686Y111781D02*
X789855Y111783D01*
X790023Y111789D01*
X790191Y111799D01*
X790359Y111813D01*
X790527Y111832D01*
X790694Y111854D01*
X790860Y111880D01*
X791026Y111910D01*
X791191Y111945D01*
X791355Y111983D01*
X791519Y112025D01*
X791681Y112071D01*
X791842Y112121D01*
X792002Y112175D01*
X792160Y112232D01*
X792317Y112294D01*
X792472Y112359D01*
X792626Y112428D01*
X792778Y112500D01*
X792929Y112576D01*
X793077Y112656D01*
X793224Y112739D01*
X793368Y112826D01*
X793511Y112917D01*
X793651Y113010D01*
X793789Y113107D01*
X793924Y113208D01*
X794057Y113311D01*
X794187Y113418D01*
X793369Y116629D02*
X786003Y116629D01*
X786003Y118675D01*
X786005Y118764D01*
X786011Y118853D01*
X786021Y118942D01*
X786034Y119030D01*
X786051Y119118D01*
X786073Y119205D01*
X786098Y119290D01*
X786126Y119375D01*
X786159Y119458D01*
X786195Y119540D01*
X786234Y119620D01*
X786277Y119698D01*
X786323Y119774D01*
X786373Y119849D01*
X786426Y119921D01*
X786482Y119990D01*
X786541Y120057D01*
X786602Y120122D01*
X786667Y120183D01*
X786734Y120242D01*
X786803Y120298D01*
X786875Y120351D01*
X786950Y120401D01*
X787026Y120447D01*
X787104Y120490D01*
X787184Y120529D01*
X787266Y120565D01*
X787349Y120598D01*
X787434Y120626D01*
X787519Y120651D01*
X787606Y120673D01*
X787694Y120690D01*
X787782Y120703D01*
X787871Y120713D01*
X787960Y120719D01*
X788049Y120721D01*
X791323Y120721D01*
X791412Y120719D01*
X791501Y120713D01*
X791590Y120703D01*
X791678Y120690D01*
X791766Y120673D01*
X791853Y120651D01*
X791938Y120626D01*
X792023Y120598D01*
X792106Y120565D01*
X792188Y120529D01*
X792268Y120490D01*
X792346Y120447D01*
X792422Y120401D01*
X792497Y120351D01*
X792569Y120298D01*
X792638Y120242D01*
X792705Y120183D01*
X792770Y120122D01*
X792831Y120057D01*
X792890Y119990D01*
X792946Y119921D01*
X792999Y119849D01*
X793049Y119774D01*
X793095Y119698D01*
X793138Y119620D01*
X793177Y119540D01*
X793213Y119458D01*
X793246Y119375D01*
X793274Y119290D01*
X793299Y119205D01*
X793321Y119118D01*
X793338Y119030D01*
X793351Y118942D01*
X793361Y118853D01*
X793367Y118764D01*
X793369Y118675D01*
X793369Y116629D01*
X794187Y123932D02*
X794057Y124039D01*
X793924Y124142D01*
X793789Y124243D01*
X793651Y124340D01*
X793511Y124433D01*
X793368Y124524D01*
X793224Y124611D01*
X793077Y124694D01*
X792929Y124774D01*
X792778Y124850D01*
X792626Y124922D01*
X792472Y124991D01*
X792317Y125056D01*
X792160Y125118D01*
X792002Y125175D01*
X791842Y125229D01*
X791681Y125279D01*
X791519Y125325D01*
X791355Y125367D01*
X791191Y125405D01*
X791026Y125440D01*
X790860Y125470D01*
X790694Y125496D01*
X790527Y125518D01*
X790359Y125537D01*
X790191Y125551D01*
X790023Y125561D01*
X789855Y125567D01*
X789686Y125569D01*
X789517Y125567D01*
X789349Y125561D01*
X789181Y125551D01*
X789013Y125537D01*
X788845Y125518D01*
X788678Y125496D01*
X788512Y125470D01*
X788346Y125440D01*
X788181Y125405D01*
X788017Y125367D01*
X787853Y125325D01*
X787691Y125279D01*
X787530Y125229D01*
X787370Y125175D01*
X787212Y125118D01*
X787055Y125056D01*
X786900Y124991D01*
X786746Y124922D01*
X786594Y124850D01*
X786443Y124774D01*
X786295Y124694D01*
X786148Y124611D01*
X786004Y124524D01*
X785861Y124433D01*
X785721Y124340D01*
X785583Y124243D01*
X785448Y124142D01*
X785315Y124039D01*
X785185Y123932D01*
M02*
