G04 EAGLE Gerber RS-274X export*
G75*
%MOMM*%
%FSLAX34Y34*%
%LPD*%
%INSoldermask Top*%
%IPPOS*%
%AMOC8*
5,1,8,0,0,1.08239X$1,22.5*%
G01*
%ADD10C,3.251200*%
%ADD11C,1.879600*%
%ADD12P,1.649562X8X292.500000*%
%ADD13R,1.981200X1.981200*%
%ADD14C,1.981200*%
%ADD15P,1.649562X8X112.500000*%
%ADD16R,7.823200X2.235200*%
%ADD17C,2.082800*%
%ADD18P,1.951982X8X292.500000*%
%ADD19C,1.903200*%
%ADD20C,0.959600*%


D10*
X609600Y25400D03*
X863600Y25400D03*
X609600Y406400D03*
X863600Y406400D03*
D11*
X614680Y266700D03*
X614680Y368300D03*
D12*
X774700Y266700D03*
X774700Y165100D03*
X736600Y266700D03*
X736600Y165100D03*
D13*
X660400Y393700D03*
D14*
X660400Y368300D03*
X660400Y342900D03*
X660400Y317500D03*
X660400Y292100D03*
X660400Y266700D03*
X660400Y241300D03*
X660400Y215900D03*
X660400Y190500D03*
X660400Y165100D03*
X660400Y139700D03*
X660400Y114300D03*
X660400Y88900D03*
X660400Y63500D03*
X660400Y38100D03*
X812800Y393700D03*
X812800Y368300D03*
X812800Y342900D03*
X812800Y317500D03*
X812800Y292100D03*
X812800Y266700D03*
X812800Y241300D03*
X812800Y215900D03*
X812800Y190500D03*
X812800Y165100D03*
X812800Y139700D03*
X812800Y114300D03*
X812800Y88900D03*
X812800Y63500D03*
X812800Y38100D03*
D15*
X858520Y254000D03*
X858520Y279400D03*
X774700Y292100D03*
X774700Y393700D03*
D16*
X523240Y203200D03*
X523240Y228600D03*
X523240Y177800D03*
X523240Y152400D03*
X523240Y279400D03*
X523240Y127000D03*
X523240Y304800D03*
D15*
X858520Y152400D03*
X858520Y177800D03*
X736600Y292100D03*
X736600Y393700D03*
D12*
X698500Y266700D03*
X698500Y165100D03*
D17*
X614680Y165100D03*
X614680Y190500D03*
X614680Y215900D03*
X614680Y88900D03*
X614680Y114300D03*
D18*
X858520Y114300D03*
X858520Y63500D03*
D11*
X736600Y38100D03*
X736600Y139700D03*
D15*
X871220Y330200D03*
X871220Y355600D03*
X845820Y355600D03*
X698500Y292100D03*
X698500Y393700D03*
D19*
X698500Y63500D03*
X698500Y139700D03*
X774700Y63500D03*
X774700Y139700D03*
D20*
X632460Y128016D03*
X572008Y188468D03*
X566928Y152400D03*
X680720Y203454D03*
M02*
